<svg width="81" height="80" viewBox="0 0 81 80" fill="none" xmlns="http://www.w3.org/2000/svg">
<g clip-path="url(#clip0_1166_6275)">
<path d="M40.8311 60.468C36.7686 60.468 33.0711 59.373 29.7361 57.188C26.4011 55.0005 23.9011 52.188 22.2361 48.7505L5.83105 19.998C2.39355 26.1455 0.831055 33.0205 0.831055 39.998C0.831055 49.998 4.08605 58.723 10.5961 66.1705C17.1061 73.618 25.2061 78.0705 34.8936 79.5305L46.4961 59.453C45.3286 59.7955 43.3811 60.468 40.8311 60.468Z" fill="#4AAE48"/>
<path d="M28.2535 23.8255C31.9485 20.963 36.1435 19.998 40.831 19.998C41.456 19.998 75.206 19.998 75.206 19.998C71.6635 13.958 66.846 8.85305 60.7535 5.31055C54.6585 1.77055 48.0185 -0.00195312 40.831 -0.00195312C34.581 -0.00195312 28.746 1.32555 23.331 3.98305C17.9135 6.63805 12.901 10.5055 9.22852 15.468L20.831 34.998C21.976 30.5205 24.5535 26.693 28.2535 23.8255Z" fill="#EA3939"/>
<path d="M77.8238 24.998H54.5813C58.6438 29.0605 61.3013 34.2705 61.3013 39.998C61.3013 44.2705 60.1038 48.1755 57.7063 51.718L41.3013 79.998C52.2388 79.893 61.5613 75.9355 69.2713 68.123C76.9763 60.3105 80.8313 50.9355 80.8313 39.998C80.8313 34.8955 79.9713 29.528 77.8238 24.998Z" fill="#FED14B"/>
<path d="M40.8311 54.998C49.1153 54.998 55.8311 48.2823 55.8311 39.998C55.8311 31.7138 49.1153 24.998 40.8311 24.998C32.5468 24.998 25.8311 31.7138 25.8311 39.998C25.8311 48.2823 32.5468 54.998 40.8311 54.998Z" fill="#188FD1"/>
<g clip-path="url(#clip1_1166_6275)">
<path fill-rule="evenodd" clip-rule="evenodd" d="M45.1982 47.5467C45.5426 47.5467 45.8249 47.2738 45.8249 46.9419V43.6273C46.0393 41.8404 46.8306 42.3711 47.7617 42.9238C50.0126 44.2595 51.5081 40.746 49.6889 39.6626C48.2612 38.8123 47.6427 40.2742 46.5968 40.1234C46.1929 40.0644 45.912 39.6434 45.8235 39.003V36.6085C45.8235 36.2753 45.5413 36.0037 45.1968 36.0037H42.3178C39.941 35.713 42.0508 34.4445 42.0508 33.2637C42.0522 32.3161 41.1626 31.5481 40.0655 31.5481C38.9698 31.5481 37.964 32.3161 37.964 33.2637C37.964 34.3773 40.1471 35.713 37.7371 36.0037H34.1277C33.7832 36.0037 33.501 36.2753 33.501 36.6085V38.9975C33.685 40.0164 34.3988 40.2523 35.3133 39.5803C35.6218 39.3527 36.142 39.088 36.5183 39.088C37.4992 39.088 38.2961 39.9451 38.2961 41.0025C38.2961 42.0598 37.5006 43.15 36.5183 43.15C36.1683 43.15 35.8418 43.0403 35.5651 42.8497C35.5651 42.9306 33.8496 41.3618 33.501 43.2817V46.9447C33.501 47.2779 33.7832 47.5495 34.1277 47.5495C36.0604 47.5495 37.9903 47.5495 39.9216 47.5481C39.9977 47.1984 39.7501 46.7979 39.5177 46.451C37.6887 43.7178 44.8039 43.4449 42.9749 46.536C42.885 46.6882 42.7951 46.8363 42.7259 46.9803C42.6388 47.16 42.5806 47.3794 42.5931 47.5481L45.1982 47.5467Z" fill="white"/>
</g>
</g>
<defs>
<clipPath id="clip0_1166_6275">
<rect width="80" height="80" fill="white" transform="translate(0.831055 -0.00195312)"/>
</clipPath>
<clipPath id="clip1_1166_6275">
<rect width="17" height="16" fill="white" transform="translate(32.3311 31.998)"/>
</clipPath>
</defs>
</svg>
