<svg width="101" height="91" viewBox="0 0 101 91" fill="none" xmlns="http://www.w3.org/2000/svg">
<path d="M80.9536 28.8999L43.9708 1.29455C42.5506 0.234823 40.5996 0.234823 39.1795 1.29455L2.19665 28.8999C1.19029 29.6516 0.597656 30.8315 0.597656 32.0847V73.7169C0.597656 74.901 1.1173 75.965 1.94133 76.693C2.64687 77.3168 3.57471 77.6961 4.59226 77.6961H26.5691V88.5186C26.5691 90.0919 28.3505 91.0105 29.6401 90.1023L47.2626 77.6961H78.5578C79.5754 77.6961 80.5032 77.3168 81.2087 76.693C82.0328 75.965 82.5524 74.9011 82.5524 73.7169V32.0847C82.5526 30.8315 81.96 29.6516 80.9536 28.8999Z" fill="#E2B461"/>
<path d="M12.6167 56.8884V9.87412C12.6167 8.76341 13.5206 7.86292 14.6357 7.86292H68.5146C69.6296 7.86292 70.5336 8.76332 70.5336 9.87412V56.8884H12.6167Z" fill="#E9F1F4"/>
<path d="M80.9536 28.9011C81.7524 29.4977 81.7524 30.6923 80.9536 31.2889L50.6669 53.8965L43.3277 48.4181C42.2891 47.6427 40.8612 47.6427 39.8226 48.4181L32.4834 53.8965L2.19665 31.2889C1.39784 30.6923 1.39784 29.4978 2.19665 28.9011C1.19029 29.6528 0.597656 30.8328 0.597656 32.086V73.7182C0.597656 74.9022 1.1173 75.9663 1.94133 76.6942C2.64687 77.3181 3.57471 77.6974 4.59226 77.6974H26.5691V88.5199C26.5691 90.0931 28.3505 91.0117 29.6401 90.1035L47.2626 77.6974H78.5578C79.5754 77.6974 80.5032 77.3181 81.2087 76.6942C82.0328 75.9663 82.5524 74.9023 82.5524 73.7182V32.086C82.5526 30.8328 81.96 29.6528 80.9536 28.9011Z" fill="#EFD06F"/>
<path d="M81.2088 76.6932C80.5033 77.3171 79.5754 77.6964 78.5579 77.6964H47.2627L29.6402 90.1026C28.3505 91.0107 26.5692 90.092 26.5692 88.5189V77.6964H4.59235C3.5748 77.6964 2.64695 77.3171 1.94141 76.6932L32.4834 53.8956L39.8225 48.4173C40.8612 47.6418 42.289 47.6418 43.3277 48.4173L50.6669 53.8956L81.2088 76.6932Z" fill="#F4DE73"/>
<path d="M60.8941 22.2185H22.2565C21.6302 22.2185 21.1226 21.7125 21.1226 21.0885C21.1226 20.4644 21.6303 19.9585 22.2565 19.9585H60.8941C61.5204 19.9585 62.028 20.4645 62.028 21.0885C62.0281 21.7125 61.5204 22.2185 60.8941 22.2185Z" fill="#2A4654"/>
<path d="M60.8941 30.6321H22.2565C21.6302 30.6321 21.1226 30.1261 21.1226 29.5021C21.1226 28.8779 21.6303 28.3721 22.2565 28.3721H60.8941C61.5204 28.3721 62.028 28.878 62.028 29.5021C62.0281 30.1261 61.5204 30.6321 60.8941 30.6321Z" fill="#2A4654"/>
<path d="M49.736 39.0436H22.2565C21.6302 39.0436 21.1226 38.5376 21.1226 37.9136C21.1226 37.2894 21.6303 36.7836 22.2565 36.7836H49.736C50.3622 36.7836 50.8699 37.2895 50.8699 37.9136C50.8699 38.5377 50.3622 39.0436 49.736 39.0436Z" fill="#2A4654"/>
<ellipse cx="82.046" cy="25.2084" rx="18.0626" ry="17.9925" fill="white"/>
<path d="M82.0457 8.71533C78.7709 8.71533 75.5697 9.68264 72.8469 11.4949C70.124 13.3072 68.0018 15.8831 66.7486 18.8968C65.4955 21.9105 65.1676 25.2267 65.8064 28.4261C66.4453 31.6254 68.0222 34.5642 70.3378 36.8708C72.6534 39.1774 75.6037 40.7482 78.8155 41.3846C82.0273 42.021 85.3564 41.6944 88.3819 40.4461C91.4074 39.1977 93.9933 37.0838 95.8126 34.3715C97.632 31.6592 98.6031 28.4705 98.6031 25.2084C98.6031 20.8342 96.8586 16.6391 93.7535 13.546C90.6484 10.453 86.437 8.71533 82.0457 8.71533ZM90.636 21.7704L80.0994 32.266C79.8172 32.5471 79.4344 32.705 79.0352 32.705C78.6361 32.705 78.2533 32.5471 77.9711 32.266L73.4554 27.7679C73.1812 27.4851 73.0295 27.1063 73.0329 26.7132C73.0364 26.3201 73.1947 25.944 73.4737 25.666C73.7528 25.388 74.1303 25.2303 74.525 25.2269C74.9197 25.2235 75.2999 25.3746 75.5838 25.6477L79.0352 29.0858L88.5076 19.6503C88.7915 19.3771 89.1717 19.226 89.5663 19.2294C89.961 19.2328 90.3385 19.3905 90.6176 19.6685C90.8967 19.9465 91.055 20.3226 91.0584 20.7157C91.0619 21.1088 90.9101 21.4876 90.636 21.7704Z" fill="#E11D48"/>
</svg>
