<svg width="28" height="32" viewBox="0 0 28 32" fill="none" xmlns="http://www.w3.org/2000/svg">
<path d="M13.2113 15.3068L0.435547 28.8669C0.436027 28.8697 0.436987 28.872 0.437467 28.8748C0.829267 30.3472 2.17411 31.4314 3.77023 31.4314C4.40827 31.4314 5.00731 31.2589 5.52103 30.9561L5.56183 30.9322L19.9426 22.6339L13.2113 15.3068Z" fill="#EA4335"/>
<path d="M26.1364 12.9979L26.1241 12.9895L19.9156 9.39033L12.9209 15.6145L19.9399 22.6326L26.1157 19.0692C27.1985 18.4846 27.9335 17.3432 27.9335 16.0269C27.9335 14.7201 27.2083 13.5843 26.1364 12.9979Z" fill="#FBBC04"/>
<path d="M0.435039 3.13064C0.358239 3.41384 0.317871 3.71048 0.317871 4.01852V27.9796C0.317871 28.2871 0.357759 28.5848 0.435519 28.8669L13.651 15.6538L0.435039 3.13064Z" fill="#4285F4"/>
<path d="M13.3055 15.9988L19.9183 9.38798L5.55378 1.05974C5.03166 0.747019 4.4223 0.566541 3.77022 0.566541C2.1741 0.566541 0.827458 1.65266 0.435538 3.12686C0.435058 3.1283 0.435059 3.12926 0.435059 3.13058L13.3055 15.9988Z" fill="#34A853"/>
</svg>
