<svg width="431" height="311" viewBox="0 0 431 311" fill="none" xmlns="http://www.w3.org/2000/svg">
<path d="M205.186 0.780083C280.46 0.780132 341.483 61.9666 341.483 137.447C341.483 212.927 280.46 274.114 205.186 274.114C129.911 274.114 68.8878 212.928 68.8877 137.447C68.8877 61.9666 129.911 0.780083 205.186 0.780083Z" fill="url(#paint0_linear_3112_6695)" stroke="url(#paint1_linear_3112_6695)" stroke-width="0.934579"/>
<g filter="url(#filter0_dd_3112_6695)">
<rect x="15.4727" y="177.726" width="146.729" height="41.2325" rx="20.6162" fill="white"/>
<path d="M63.4199 202.877V194.791H60.7115V193.718H67.4498V194.791H64.7283V202.877H63.4199ZM68.0066 202.877V196.283H69.1841L69.3019 197.526C69.4502 197.229 69.6421 196.98 69.8776 196.78C70.1131 196.57 70.3879 196.409 70.7019 196.296C71.0246 196.182 71.391 196.126 71.801 196.126V197.512H71.3299C71.0595 197.512 70.8022 197.547 70.558 197.617C70.3137 197.678 70.0957 197.787 69.9038 197.944C69.7206 198.101 69.5767 198.315 69.472 198.585C69.3673 198.856 69.315 199.192 69.315 199.593V202.877H68.0066ZM75.1876 203.034C74.6468 203.034 74.1976 202.942 73.8399 202.759C73.4823 202.576 73.2163 202.332 73.0418 202.026C72.8674 201.712 72.7801 201.377 72.7801 201.019C72.7801 200.583 72.8935 200.212 73.1203 199.907C73.3471 199.593 73.6699 199.353 74.0885 199.187C74.5072 199.021 75.0088 198.939 75.5932 198.939H77.3072C77.3072 198.555 77.2505 198.236 77.1371 197.983C77.0237 197.731 76.8537 197.543 76.6269 197.421C76.4088 197.29 76.1297 197.225 75.7895 197.225C75.397 197.225 75.0611 197.321 74.782 197.512C74.5029 197.696 74.3284 197.97 74.2586 198.337H72.9502C73.0026 197.874 73.1596 197.482 73.4213 197.159C73.6917 196.828 74.0362 196.575 74.4549 196.4C74.8736 196.217 75.3185 196.126 75.7895 196.126C76.4088 196.126 76.9278 196.235 77.3465 196.453C77.7652 196.671 78.0792 196.98 78.2885 197.382C78.5066 197.774 78.6156 198.245 78.6156 198.795V202.877H77.4773L77.3727 201.765C77.2767 201.939 77.1633 202.105 77.0325 202.262C76.9016 202.419 76.7446 202.554 76.5614 202.668C76.387 202.781 76.182 202.868 75.9465 202.929C75.7197 202.999 75.4667 203.034 75.1876 203.034ZM75.4362 201.974C75.7153 201.974 75.9683 201.917 76.1951 201.804C76.4219 201.691 76.6138 201.538 76.7708 201.346C76.9365 201.145 77.0586 200.923 77.1371 200.679C77.2244 200.426 77.2723 200.169 77.2811 199.907V199.868H75.7241C75.349 199.868 75.0437 199.916 74.8082 200.012C74.5814 200.099 74.4156 200.221 74.311 200.378C74.2063 200.535 74.154 200.718 74.154 200.927C74.154 201.145 74.2019 201.333 74.2979 201.49C74.4026 201.638 74.5508 201.756 74.7427 201.843C74.9346 201.931 75.1658 201.974 75.4362 201.974ZM80.2857 202.877V196.283H81.4633L81.5418 197.408C81.7511 197.015 82.0477 196.706 82.4315 196.479C82.8153 196.243 83.2558 196.126 83.753 196.126C84.2764 196.126 84.7256 196.23 85.1007 196.44C85.4757 196.649 85.768 196.967 85.9773 197.395C86.1866 197.813 86.2913 198.341 86.2913 198.978V202.877H84.9829V199.109C84.9829 198.498 84.8477 198.036 84.5773 197.722C84.3069 197.408 83.9144 197.251 83.3997 197.251C83.0595 197.251 82.7542 197.334 82.4838 197.499C82.2134 197.656 81.9954 197.892 81.8296 198.206C81.6726 198.52 81.5941 198.904 81.5941 199.357V202.877H80.2857ZM90.5164 203.034C89.9581 203.034 89.4696 202.942 89.0509 202.759C88.6323 202.576 88.3008 202.319 88.0565 201.987C87.8123 201.656 87.664 201.268 87.6117 200.823H88.9463C88.9899 201.032 89.0727 201.224 89.1949 201.398C89.3257 201.573 89.5002 201.712 89.7182 201.817C89.945 201.922 90.2111 201.974 90.5164 201.974C90.8042 201.974 91.0397 201.935 91.2229 201.856C91.4148 201.769 91.5544 201.656 91.6416 201.516C91.7288 201.368 91.7724 201.211 91.7724 201.045C91.7724 200.801 91.7114 200.618 91.5893 200.496C91.4759 200.365 91.3014 200.264 91.0659 200.195C90.8391 200.116 90.5643 200.046 90.2416 199.985C89.9363 199.933 89.6397 199.863 89.3519 199.776C89.0727 199.68 88.8198 199.562 88.593 199.423C88.3749 199.283 88.2005 199.109 88.0696 198.899C87.9388 198.681 87.8734 198.415 87.8734 198.101C87.8734 197.726 87.9737 197.39 88.1743 197.094C88.3749 196.788 88.6584 196.553 89.0248 196.387C89.3999 196.213 89.8404 196.126 90.3463 196.126C91.079 196.126 91.6678 196.3 92.1126 196.649C92.5575 196.998 92.8192 197.491 92.8977 198.127H91.6285C91.5936 197.831 91.4628 197.604 91.236 197.447C91.0092 197.281 90.7083 197.198 90.3332 197.198C89.9581 197.198 89.6703 197.273 89.4696 197.421C89.269 197.569 89.1687 197.765 89.1687 198.01C89.1687 198.167 89.2254 198.306 89.3388 198.428C89.4522 198.55 89.6179 198.655 89.836 198.742C90.0628 198.821 90.3375 198.895 90.6603 198.965C91.1226 199.052 91.5369 199.161 91.9033 199.292C92.2696 199.423 92.5618 199.615 92.7799 199.868C92.998 200.121 93.107 200.483 93.107 200.954C93.1157 201.364 93.0111 201.726 92.793 202.04C92.5837 202.354 92.2827 202.598 91.8902 202.772C91.5064 202.947 91.0484 203.034 90.5164 203.034ZM97.6962 203.034C97.0594 203.034 96.4924 202.89 95.9952 202.602C95.498 202.306 95.1055 201.9 94.8177 201.385C94.5385 200.871 94.399 200.273 94.399 199.593C94.399 198.904 94.5385 198.302 94.8177 197.787C95.1055 197.264 95.498 196.858 95.9952 196.57C96.4924 196.274 97.0594 196.126 97.6962 196.126C98.4987 196.126 99.1703 196.335 99.7111 196.754C100.252 197.172 100.596 197.739 100.745 198.454H99.384C99.2968 198.071 99.0962 197.774 98.7821 197.565C98.4769 197.355 98.1105 197.251 97.6831 197.251C97.3342 197.251 97.0114 197.342 96.7149 197.526C96.4183 197.7 96.1784 197.962 95.9952 198.311C95.8208 198.651 95.7336 199.074 95.7336 199.58C95.7336 199.955 95.7859 200.291 95.8906 200.587C95.9952 200.875 96.1348 201.119 96.3093 201.32C96.4924 201.521 96.7018 201.673 96.9373 201.778C97.1728 201.874 97.4214 201.922 97.6831 201.922C97.9709 201.922 98.2283 201.878 98.455 201.791C98.6906 201.695 98.8868 201.555 99.0438 201.372C99.2096 201.189 99.323 200.971 99.384 200.718H100.745C100.596 201.416 100.252 201.978 99.7111 202.406C99.1703 202.825 98.4987 203.034 97.6962 203.034ZM102.276 202.877V196.283H103.453L103.571 197.526C103.719 197.229 103.911 196.98 104.147 196.78C104.382 196.57 104.657 196.409 104.971 196.296C105.294 196.182 105.66 196.126 106.07 196.126V197.512H105.599C105.329 197.512 105.071 197.547 104.827 197.617C104.583 197.678 104.365 197.787 104.173 197.944C103.99 198.101 103.846 198.315 103.741 198.585C103.636 198.856 103.584 199.192 103.584 199.593V202.877H102.276ZM107.363 202.877V196.283H108.672V202.877H107.363ZM108.031 195.04C107.778 195.04 107.568 194.961 107.403 194.804C107.246 194.647 107.167 194.446 107.167 194.202C107.167 193.967 107.246 193.775 107.403 193.626C107.568 193.469 107.778 193.391 108.031 193.391C108.275 193.391 108.48 193.469 108.646 193.626C108.811 193.775 108.894 193.967 108.894 194.202C108.894 194.446 108.811 194.647 108.646 194.804C108.48 194.961 108.275 195.04 108.031 195.04ZM114.141 203.034C113.783 203.034 113.456 202.982 113.16 202.877C112.872 202.781 112.619 202.646 112.401 202.471C112.183 202.297 111.999 202.096 111.851 201.869L111.72 202.877H110.543V193.456H111.851V197.316C112.06 196.985 112.353 196.706 112.728 196.479C113.112 196.243 113.583 196.126 114.141 196.126C114.769 196.126 115.323 196.278 115.803 196.583C116.282 196.88 116.653 197.29 116.915 197.813C117.185 198.328 117.32 198.921 117.32 199.593C117.32 200.247 117.185 200.836 116.915 201.359C116.653 201.883 116.282 202.293 115.803 202.589C115.323 202.886 114.769 203.034 114.141 203.034ZM113.932 201.896C114.333 201.896 114.686 201.8 114.991 201.608C115.305 201.416 115.55 201.145 115.724 200.797C115.907 200.448 115.999 200.042 115.999 199.58C115.999 199.117 115.907 198.716 115.724 198.376C115.55 198.027 115.305 197.757 114.991 197.565C114.686 197.364 114.333 197.264 113.932 197.264C113.522 197.264 113.16 197.364 112.846 197.565C112.54 197.757 112.3 198.027 112.126 198.376C111.951 198.716 111.864 199.117 111.864 199.58C111.864 200.042 111.951 200.448 112.126 200.797C112.3 201.145 112.54 201.416 112.846 201.608C113.16 201.8 113.522 201.896 113.932 201.896ZM121.831 203.034C121.203 203.034 120.645 202.89 120.156 202.602C119.668 202.314 119.284 201.913 119.005 201.398C118.735 200.884 118.599 200.286 118.599 199.606C118.599 198.908 118.735 198.302 119.005 197.787C119.284 197.264 119.668 196.858 120.156 196.57C120.645 196.274 121.212 196.126 121.857 196.126C122.503 196.126 123.057 196.269 123.519 196.557C123.981 196.845 124.339 197.229 124.592 197.709C124.845 198.18 124.971 198.703 124.971 199.279C124.971 199.366 124.967 199.462 124.958 199.567C124.958 199.663 124.954 199.772 124.945 199.894H119.555V198.965H123.663C123.637 198.415 123.454 197.988 123.113 197.683C122.773 197.369 122.35 197.212 121.844 197.212C121.487 197.212 121.16 197.294 120.863 197.46C120.566 197.617 120.327 197.853 120.143 198.167C119.969 198.472 119.882 198.86 119.882 199.331V199.697C119.882 200.186 119.969 200.6 120.143 200.94C120.327 201.272 120.566 201.525 120.863 201.699C121.16 201.865 121.482 201.948 121.831 201.948C122.25 201.948 122.594 201.856 122.865 201.673C123.135 201.49 123.336 201.241 123.467 200.927H124.775C124.662 201.329 124.47 201.691 124.199 202.013C123.929 202.327 123.593 202.576 123.192 202.759C122.799 202.942 122.346 203.034 121.831 203.034Z" fill="#4B5563"/>
<ellipse cx="38.837" cy="198.288" rx="12.1495" ry="12.1509" fill="#3F7EF8"/>
<path d="M43.679 195.364C43.6483 195.289 43.6109 195.218 43.5598 195.156L40.7044 192.023C40.6397 191.951 40.5613 191.9 40.4761 191.856C40.3773 191.804 40.2683 191.784 40.1524 191.784H34.7041C34.2816 191.784 33.9307 192.146 33.9307 192.6V204.053C33.9307 204.51 34.2816 204.903 34.7041 204.903H42.9873C43.4098 204.903 43.7437 204.51 43.7437 204.053V195.713C43.7437 195.59 43.7267 195.47 43.679 195.364ZM35.5662 195.686C35.5662 195.634 35.6275 195.614 35.682 195.614H38.0944C38.1489 195.614 38.1898 195.634 38.1898 195.686V196.055C38.1898 196.102 38.1523 196.16 38.0944 196.16H35.682C35.6275 196.16 35.5662 196.102 35.5662 196.055V195.686ZM35.5662 200.059C35.5662 200.007 35.6275 199.987 35.682 199.987H39.8458C39.9003 199.987 39.9275 200.007 39.9275 200.059V200.428C39.9275 200.476 39.9037 200.534 39.8458 200.534H35.682C35.6275 200.534 35.5662 200.476 35.5662 200.428V200.059ZM41.0179 202.614C41.0179 202.662 40.994 202.72 40.9361 202.72H35.682C35.6275 202.72 35.5662 202.662 35.5662 202.614V202.245C35.5662 202.194 35.6275 202.174 35.682 202.174H40.9361C40.9906 202.174 41.0179 202.194 41.0179 202.245V202.614ZM42.1082 198.241C42.1082 198.289 42.0844 198.347 42.0265 198.347H35.682C35.6275 198.347 35.5662 198.289 35.5662 198.241V197.872C35.5662 197.821 35.6275 197.8 35.682 197.8H42.0265C42.081 197.8 42.1082 197.821 42.1082 197.872V198.241ZM40.5102 195.648C40.3194 195.648 40.132 195.47 40.132 195.262V193.007L42.558 195.648H40.5102Z" fill="white"/>
</g>
<g filter="url(#filter1_dd_3112_6695)">
<rect x="198.65" y="247.073" width="146.729" height="41.2325" rx="20.6162" fill="white"/>
<ellipse cx="222.015" cy="267.632" rx="12.1495" ry="12.1509" fill="#3F7EF8"/>
<path d="M247.461 272.379C246.79 272.379 246.201 272.261 245.695 272.025C245.189 271.781 244.796 271.441 244.517 271.005C244.238 270.569 244.099 270.059 244.099 269.474H245.472C245.481 269.806 245.56 270.111 245.708 270.39C245.865 270.66 246.087 270.878 246.375 271.044C246.672 271.201 247.034 271.28 247.461 271.28C247.828 271.28 248.142 271.219 248.403 271.097C248.674 270.974 248.879 270.809 249.018 270.599C249.158 270.381 249.228 270.133 249.228 269.854C249.228 269.531 249.153 269.265 249.005 269.055C248.857 268.846 248.656 268.676 248.403 268.545C248.159 268.406 247.871 268.283 247.54 268.179C247.217 268.074 246.877 267.961 246.519 267.839C245.795 267.603 245.254 267.298 244.897 266.923C244.548 266.548 244.373 266.059 244.373 265.457C244.373 264.943 244.495 264.498 244.74 264.123C244.984 263.739 245.324 263.442 245.76 263.233C246.205 263.015 246.728 262.906 247.33 262.906C247.923 262.906 248.442 263.015 248.887 263.233C249.332 263.451 249.681 263.752 249.934 264.136C250.187 264.52 250.314 264.969 250.314 265.483H248.927C248.927 265.248 248.866 265.017 248.743 264.79C248.621 264.563 248.438 264.38 248.194 264.24C247.95 264.092 247.649 264.018 247.291 264.018C246.995 264.009 246.728 264.057 246.493 264.162C246.257 264.267 246.074 264.419 245.943 264.62C245.813 264.82 245.747 265.06 245.747 265.339C245.747 265.619 245.804 265.845 245.917 266.02C246.039 266.186 246.214 266.33 246.441 266.452C246.667 266.574 246.929 266.687 247.226 266.792C247.531 266.888 247.867 266.997 248.233 267.119C248.687 267.267 249.088 267.45 249.437 267.668C249.795 267.878 250.074 268.153 250.274 268.493C250.484 268.824 250.588 269.252 250.588 269.775C250.588 270.229 250.471 270.652 250.235 271.044C249.999 271.437 249.651 271.759 249.188 272.012C248.726 272.257 248.15 272.379 247.461 272.379ZM254.499 272.379C253.985 272.379 253.535 272.274 253.152 272.065C252.777 271.855 252.484 271.541 252.275 271.123C252.074 270.704 251.974 270.176 251.974 269.539V265.627H253.282V269.396C253.282 270.015 253.418 270.482 253.688 270.796C253.958 271.11 254.347 271.267 254.853 271.267C255.193 271.267 255.498 271.184 255.768 271.018C256.048 270.852 256.266 270.612 256.423 270.298C256.58 269.984 256.658 269.601 256.658 269.147V265.627H257.967V272.222H256.802L256.711 271.097C256.51 271.498 256.218 271.812 255.834 272.039C255.45 272.265 255.005 272.379 254.499 272.379ZM259.758 272.222V265.627H260.936L261.027 266.556C261.236 266.216 261.516 265.95 261.865 265.758C262.213 265.566 262.606 265.47 263.042 265.47C263.374 265.47 263.674 265.518 263.945 265.614C264.215 265.701 264.455 265.837 264.665 266.02C264.874 266.203 265.044 266.43 265.175 266.7C265.41 266.316 265.724 266.016 266.117 265.797C266.518 265.579 266.941 265.47 267.386 265.47C267.918 265.47 268.376 265.579 268.76 265.797C269.144 266.007 269.436 266.325 269.636 266.753C269.837 267.171 269.937 267.695 269.937 268.323V272.222H268.642V268.454C268.642 267.843 268.516 267.381 268.263 267.067C268.018 266.753 267.656 266.596 267.177 266.596C266.854 266.596 266.566 266.678 266.313 266.844C266.06 267.01 265.86 267.25 265.711 267.564C265.572 267.878 265.502 268.262 265.502 268.715V272.222H264.193V268.454C264.193 267.843 264.067 267.381 263.814 267.067C263.57 266.753 263.208 266.596 262.728 266.596C262.423 266.596 262.144 266.678 261.891 266.844C261.638 267.01 261.437 267.25 261.289 267.564C261.141 267.878 261.066 268.262 261.066 268.715V272.222H259.758ZM271.628 272.222V265.627H272.806L272.897 266.556C273.107 266.216 273.386 265.95 273.735 265.758C274.084 265.566 274.476 265.47 274.912 265.47C275.244 265.47 275.545 265.518 275.815 265.614C276.086 265.701 276.325 265.837 276.535 266.02C276.744 266.203 276.914 266.43 277.045 266.7C277.281 266.316 277.595 266.016 277.987 265.797C278.388 265.579 278.811 265.47 279.256 265.47C279.788 265.47 280.246 265.579 280.63 265.797C281.014 266.007 281.306 266.325 281.507 266.753C281.707 267.171 281.808 267.695 281.808 268.323V272.222H280.512V268.454C280.512 267.843 280.386 267.381 280.133 267.067C279.889 266.753 279.527 266.596 279.047 266.596C278.724 266.596 278.436 266.678 278.183 266.844C277.93 267.01 277.73 267.25 277.582 267.564C277.442 267.878 277.372 268.262 277.372 268.715V272.222H276.064V268.454C276.064 267.843 275.937 267.381 275.684 267.067C275.44 266.753 275.078 266.596 274.598 266.596C274.293 266.596 274.014 266.678 273.761 266.844C273.508 267.01 273.307 267.25 273.159 267.564C273.011 267.878 272.937 268.262 272.937 268.715V272.222H271.628ZM285.684 272.379C285.143 272.379 284.694 272.287 284.336 272.104C283.978 271.921 283.712 271.677 283.538 271.371C283.363 271.057 283.276 270.721 283.276 270.364C283.276 269.928 283.389 269.557 283.616 269.252C283.843 268.938 284.166 268.698 284.584 268.532C285.003 268.366 285.505 268.283 286.089 268.283H287.803C287.803 267.9 287.746 267.581 287.633 267.328C287.52 267.075 287.35 266.888 287.123 266.766C286.905 266.635 286.626 266.569 286.285 266.569C285.893 266.569 285.557 266.665 285.278 266.857C284.999 267.04 284.824 267.315 284.755 267.682H283.446C283.498 267.219 283.656 266.827 283.917 266.504C284.188 266.173 284.532 265.92 284.951 265.745C285.37 265.562 285.814 265.47 286.285 265.47C286.905 265.47 287.424 265.579 287.842 265.797C288.261 266.016 288.575 266.325 288.784 266.726C289.003 267.119 289.112 267.59 289.112 268.139V272.222H287.973L287.869 271.11C287.773 271.284 287.659 271.45 287.528 271.607C287.398 271.764 287.241 271.899 287.057 272.012C286.883 272.126 286.678 272.213 286.442 272.274C286.216 272.344 285.963 272.379 285.684 272.379ZM285.932 271.319C286.211 271.319 286.464 271.262 286.691 271.149C286.918 271.035 287.11 270.883 287.267 270.691C287.432 270.49 287.555 270.268 287.633 270.024C287.72 269.771 287.768 269.513 287.777 269.252V269.212H286.22C285.845 269.212 285.54 269.26 285.304 269.356C285.077 269.444 284.912 269.566 284.807 269.723C284.702 269.88 284.65 270.063 284.65 270.272C284.65 270.49 284.698 270.678 284.794 270.835C284.898 270.983 285.047 271.101 285.239 271.188C285.431 271.275 285.662 271.319 285.932 271.319ZM290.782 272.222V265.627H291.959L292.077 266.87C292.225 266.574 292.417 266.325 292.653 266.125C292.888 265.915 293.163 265.754 293.477 265.64C293.8 265.527 294.166 265.47 294.576 265.47V266.857H294.105C293.835 266.857 293.577 266.892 293.333 266.962C293.089 267.023 292.871 267.132 292.679 267.289C292.496 267.446 292.352 267.66 292.247 267.93C292.142 268.201 292.09 268.536 292.09 268.938V272.222H290.782ZM295.869 272.222V265.627H297.178V272.222H295.869ZM296.537 264.384C296.284 264.384 296.074 264.306 295.908 264.149C295.751 263.992 295.673 263.791 295.673 263.547C295.673 263.311 295.751 263.12 295.908 262.971C296.074 262.814 296.284 262.736 296.537 262.736C296.781 262.736 296.986 262.814 297.151 262.971C297.317 263.12 297.4 263.311 297.4 263.547C297.4 263.791 297.317 263.992 297.151 264.149C296.986 264.306 296.781 264.384 296.537 264.384ZM298.617 272.222V271.162L302.163 266.726H298.669V265.627H303.654V266.7L300.095 271.136H303.72V272.222H298.617ZM308.152 272.379C307.524 272.379 306.966 272.235 306.477 271.947C305.989 271.659 305.605 271.258 305.326 270.743C305.056 270.229 304.92 269.631 304.92 268.951C304.92 268.253 305.056 267.647 305.326 267.132C305.605 266.609 305.989 266.203 306.477 265.915C306.966 265.619 307.533 265.47 308.178 265.47C308.824 265.47 309.378 265.614 309.84 265.902C310.302 266.19 310.66 266.574 310.913 267.054C311.166 267.525 311.292 268.048 311.292 268.624C311.292 268.711 311.288 268.807 311.279 268.911C311.279 269.007 311.275 269.116 311.266 269.239H305.876V268.31H309.984C309.958 267.76 309.775 267.333 309.434 267.027C309.094 266.713 308.671 266.556 308.165 266.556C307.808 266.556 307.481 266.639 307.184 266.805C306.887 266.962 306.648 267.197 306.464 267.511C306.29 267.817 306.203 268.205 306.203 268.676V269.042C306.203 269.531 306.29 269.945 306.464 270.285C306.648 270.617 306.887 270.87 307.184 271.044C307.481 271.21 307.803 271.293 308.152 271.293C308.571 271.293 308.915 271.201 309.186 271.018C309.456 270.835 309.657 270.586 309.788 270.272H311.096C310.983 270.673 310.791 271.035 310.52 271.358C310.25 271.672 309.914 271.921 309.513 272.104C309.12 272.287 308.667 272.379 308.152 272.379Z" fill="#4B5563"/>
<path d="M226.397 269.001C226.679 270.316 227.703 271.343 229.014 271.625C227.703 271.907 226.679 272.934 226.397 274.248C226.116 272.934 225.091 271.907 223.78 271.625C225.091 271.343 226.116 270.316 226.397 269.001ZM220.557 261.262C221.153 264.046 223.322 266.221 226.099 266.819C223.322 267.417 221.153 269.592 220.557 272.376C219.96 269.592 217.791 267.417 215.015 266.819C217.791 266.222 219.96 264.046 220.557 261.262ZM227.052 261.129C227.263 262.115 228.031 262.885 229.014 263.097C228.031 263.309 227.263 264.079 227.052 265.065C226.841 264.079 226.072 263.308 225.089 263.097C226.072 262.885 226.841 262.115 227.052 261.129Z" fill="white"/>
</g>
<g clip-path="url(#clip0_3112_6695)">
<path d="M304.922 64.279H105.449C105.153 64.2786 104.869 64.1605 104.66 63.9505C104.45 63.7406 104.332 63.4558 104.332 63.1589V56.5702C104.332 56.2733 104.45 55.9886 104.66 55.7786C104.869 55.5686 105.153 55.4505 105.449 55.4502H304.922C305.218 55.4505 305.502 55.5686 305.711 55.7786C305.921 55.9886 306.039 56.2733 306.039 56.5702V63.1589C306.039 63.4558 305.921 63.7406 305.711 63.9505C305.502 64.1605 305.218 64.2786 304.922 64.279Z" fill="white"/>
<path d="M110.816 61.134C111.692 61.134 112.403 60.422 112.403 59.5437C112.403 58.6655 111.692 57.9535 110.816 57.9535C109.94 57.9535 109.23 58.6655 109.23 59.5437C109.23 60.422 109.94 61.134 110.816 61.134Z" fill="#F1585A"/>
<path d="M116.837 61.134C117.713 61.134 118.424 60.422 118.424 59.5437C118.424 58.6655 117.713 57.9535 116.837 57.9535C115.961 57.9535 115.251 58.6655 115.251 59.5437C115.251 60.422 115.961 61.134 116.837 61.134Z" fill="#FBD046"/>
<path d="M122.859 61.134C123.735 61.134 124.445 60.422 124.445 59.5437C124.445 58.6655 123.735 57.9535 122.859 57.9535C121.983 57.9535 121.272 58.6655 121.272 59.5437C121.272 60.422 121.983 61.134 122.859 61.134Z" fill="#6CE490"/>
<path d="M303.411 219.444H214.693C213.975 219.443 213.286 219.156 212.779 218.647C212.271 218.138 211.985 217.448 211.984 216.728V153.858C211.985 153.138 212.271 152.448 212.779 151.939C213.286 151.43 213.975 151.144 214.693 151.143H303.411C304.129 151.144 304.818 151.43 305.326 151.939C305.833 152.448 306.119 153.138 306.12 153.858V216.728C306.119 217.448 305.833 218.138 305.326 218.647C304.818 219.156 304.129 219.443 303.411 219.444Z" fill="#D1E2FE"/>
<path d="M299.718 154.844H218.388C217.669 154.845 216.981 155.131 216.472 155.641C215.964 156.15 215.679 156.84 215.678 157.561V213.023C215.679 213.743 215.964 214.434 216.473 214.943C216.981 215.452 217.669 215.739 218.388 215.74H299.718C300.436 215.739 301.124 215.452 301.632 214.943C302.14 214.434 302.425 213.743 302.426 213.023V157.561C302.425 156.841 302.14 156.15 301.632 155.641C301.124 155.132 300.436 154.845 299.718 154.844Z" fill="white"/>
<path d="M266.465 181.211C267.814 175.318 264.143 169.443 258.264 168.09C252.385 166.737 246.525 170.418 245.175 176.311C243.826 182.205 247.497 188.079 253.376 189.432C259.255 190.785 265.115 187.105 266.465 181.211Z" fill="#FFB9B9"/>
<path d="M287.23 205.431C286.828 203.529 285.919 201.771 284.6 200.346C283.28 198.92 281.6 197.88 279.738 197.337L279.729 197.332C279.374 197.157 278.998 197.027 278.61 196.947L265.484 194.255L262.855 191.426L251.665 192.142L250.497 195.396L237.644 201.123L237.857 200.973C237.307 201.194 236.771 201.451 236.254 201.743L236.189 201.772C235.818 201.939 235.474 202.159 235.167 202.425C231.899 204.7 229.739 208.35 229.659 212.42L229.32 215.741H289.413L287.23 205.431Z" fill="#3F7EF8"/>
<path d="M267.772 172.893C266.878 170.093 264.262 167.729 261.331 167.804C261.559 167.106 261.169 166.323 260.585 165.878C260.001 165.434 259.263 165.256 258.545 165.106C257.062 164.796 255.516 164.559 254.041 164.909C252.566 165.258 251.168 166.319 250.836 167.801C249.493 166.539 247.008 166.888 246.063 168.472C245.577 169.287 245.508 170.382 246.034 171.173C246.556 171.958 247.545 172.312 248.486 172.356C249.426 172.4 250.357 172.189 251.294 172.09C253.53 171.855 255.892 172.307 257.701 173.647C259.509 174.988 260.664 177.287 260.342 179.518C261.065 179.055 262.106 179.376 262.611 180.072C263.116 180.767 263.156 181.717 262.921 182.544C262.687 183.371 262.211 184.105 261.741 184.824C260.877 186.15 260.013 187.475 259.149 188.8L259.503 189.036C260.807 189.587 262.217 188.557 263.166 187.505C264.766 185.73 266.055 183.697 266.979 181.491C268.112 178.78 268.666 175.692 267.772 172.893Z" fill="#2F2E41"/>
<path d="M220.659 170.76H107.7C106.786 170.759 105.909 170.394 105.262 169.746C104.616 169.098 104.252 168.219 104.251 167.302V87.2543C104.252 86.3376 104.616 85.4588 105.262 84.8106C105.909 84.1624 106.786 83.7978 107.7 83.7968H220.659C221.573 83.7978 222.45 84.1624 223.097 84.8106C223.743 85.4588 224.107 86.3376 224.108 87.2543V167.302C224.107 168.219 223.743 169.098 223.097 169.746C222.45 170.394 221.573 170.759 220.659 170.76Z" fill="white"/>
<path d="M215.956 88.5102H112.404C111.489 88.5113 110.612 88.8762 109.966 89.5246C109.319 90.1731 108.955 91.0522 108.954 91.9693V162.586C108.955 163.503 109.319 164.382 109.966 165.031C110.612 165.679 111.489 166.044 112.404 166.045H215.956C216.871 166.044 217.748 165.679 218.394 165.031C219.04 164.382 219.404 163.503 219.404 162.586V91.9693C219.404 91.0525 219.04 90.1734 218.394 89.5249C217.748 88.8764 216.871 88.5114 215.956 88.5102Z" fill="#D1E2FE"/>
<path d="M179.079 121.65L178.888 121.995C180.588 117.795 179.042 112.62 176.01 109.453C172.977 106.286 168.761 104.838 164.61 104.264C161.528 103.837 158.33 103.85 155.4 104.981C151.156 106.62 147.914 110.414 145.207 114.36C143.969 116.165 142.752 118.223 142.875 120.479C142.99 122.572 144.229 124.349 145.245 126.125C146.26 127.902 147.108 130.105 146.379 132.044C145.945 133.199 145.027 134.031 144.283 134.976C143.538 135.921 142.926 137.199 143.285 138.385C143.576 139.344 144.452 139.975 145.352 140.185C146.252 140.395 147.186 140.258 148.097 140.12L171.759 136.536C173.367 136.292 174.893 135.663 176.205 134.7C177.518 133.738 178.579 132.472 179.298 131.01C180.017 129.548 180.373 127.933 180.334 126.303C180.296 124.673 179.866 123.077 179.079 121.65Z" fill="#2F2E41"/>
<path d="M161.479 136.371C167.869 136.371 173.048 131.178 173.048 124.773C173.048 118.368 167.869 113.176 161.479 113.176C155.09 113.176 149.911 118.368 149.911 124.773C149.911 131.178 155.09 136.371 161.479 136.371Z" fill="#FFB9B9"/>
<path d="M190.335 151.027C189.586 149.383 188.405 147.973 186.919 146.95C185.432 145.927 183.696 145.328 181.896 145.218L178.672 145.022L178.68 145.056L170.483 140.113C170.685 140.345 157.151 140.829 157.151 140.829L152.13 145.172L150.024 145.3C148.224 145.41 146.488 146.009 145.001 147.032C143.515 148.055 142.334 149.465 141.585 151.11L134.747 166.128H148.377L148.693 164.763C149.037 165.184 149.371 165.611 149.694 166.046H197.174L190.335 151.027Z" fill="#3F7EF8"/>
<path d="M172.453 114.008C172.154 112.425 170.543 111.7 169.162 111.349C165.158 110.325 160.992 110.096 156.9 110.674C153.917 111.101 150.863 112.041 148.699 114.375C147.011 116.196 145.989 118.804 145.91 121.497C145.863 123.066 146.143 124.699 146.922 126.021C147.701 127.342 149.029 128.301 150.399 128.267L150.538 128.751C156.346 127.94 161.742 124.317 165.14 118.946C164.502 121.229 163.233 123.285 161.479 124.875C165.401 123.302 168.809 120.668 171.326 117.268C172.013 116.353 172.68 115.213 172.453 114.008Z" fill="#2F2E41"/>
<path d="M299.022 58.4487H292.089C292.021 58.4489 291.954 58.4357 291.892 58.41C291.829 58.3842 291.773 58.3463 291.725 58.2985C291.677 58.2506 291.639 58.1938 291.613 58.1312C291.587 58.0687 291.574 58.0016 291.574 57.9338C291.574 57.8661 291.587 57.799 291.613 57.7364C291.639 57.6739 291.677 57.617 291.725 57.5692C291.773 57.5214 291.829 57.4835 291.892 57.4577C291.954 57.4319 292.021 57.4188 292.089 57.419H299.022C299.158 57.4194 299.289 57.4738 299.385 57.5703C299.481 57.6668 299.534 57.7976 299.534 57.9338C299.534 58.0701 299.481 58.2008 299.385 58.2973C299.289 58.3938 299.158 58.4483 299.022 58.4487Z" fill="white"/>
<path d="M299.022 60.3797H292.089C292.021 60.3799 291.954 60.3667 291.892 60.3409C291.829 60.3151 291.773 60.2773 291.725 60.2294C291.677 60.1816 291.639 60.1248 291.613 60.0622C291.587 59.9996 291.574 59.9325 291.574 59.8648C291.574 59.797 291.587 59.73 291.613 59.6674C291.639 59.6048 291.677 59.548 291.725 59.5002C291.773 59.4523 291.829 59.4144 291.892 59.3887C291.954 59.3629 292.021 59.3497 292.089 59.3499H299.022C299.158 59.3503 299.289 59.4048 299.385 59.5013C299.481 59.5978 299.534 59.7285 299.534 59.8648C299.534 60.0011 299.481 60.1318 299.385 60.2283C299.289 60.3248 299.158 60.3792 299.022 60.3797Z" fill="white"/>
<path d="M299.022 62.3106H292.089C292.021 62.3108 291.954 62.2977 291.892 62.2719C291.829 62.2461 291.773 62.2082 291.725 62.1604C291.677 62.1126 291.639 62.0557 291.613 61.9932C291.587 61.9306 291.574 61.8635 291.574 61.7957C291.574 61.728 291.587 61.6609 291.613 61.5983C291.639 61.5358 291.677 61.4789 291.725 61.4311C291.773 61.3833 291.829 61.3454 291.892 61.3196C291.954 61.2938 292.021 61.2807 292.089 61.2809H299.022C299.158 61.2813 299.289 61.3357 299.385 61.4322C299.481 61.5288 299.534 61.6595 299.534 61.7957C299.534 61.932 299.481 62.0627 299.385 62.1592C299.289 62.2558 299.158 62.3102 299.022 62.3106Z" fill="white"/>
<path fill-rule="evenodd" clip-rule="evenodd" d="M232.858 115.672C232.555 115.672 232.309 115.426 232.309 115.122V113.114C232.309 112.81 232.555 112.564 232.858 112.564C233.161 112.564 233.407 112.81 233.407 113.114V115.122C233.406 115.425 233.161 115.672 232.858 115.672ZM234.168 116.749C233.865 116.749 233.619 116.503 233.619 116.199V112.036C233.619 111.732 233.865 111.485 234.168 111.485C234.472 111.485 234.717 111.732 234.717 112.036V116.199C234.718 116.502 234.472 116.749 234.168 116.749ZM238.407 115.672C238.104 115.672 237.858 115.425 237.858 115.122V113.114C237.858 112.811 238.104 112.564 238.407 112.564C238.71 112.564 238.956 112.81 238.956 113.114V115.122C238.956 115.425 238.71 115.672 238.407 115.672ZM237.096 116.749C236.793 116.749 236.547 116.503 236.547 116.199V112.036C236.547 111.732 236.793 111.485 237.096 111.485C237.399 111.485 237.645 111.732 237.645 112.036V116.199C237.645 116.502 237.399 116.749 237.096 116.749ZM235.633 118.571C235.33 118.571 235.084 118.325 235.084 118.02V110.214C235.084 109.91 235.33 109.664 235.633 109.664C235.936 109.664 236.181 109.911 236.181 110.214V118.021C236.181 118.325 235.936 118.571 235.633 118.571ZM252.357 115.672C252.054 115.672 251.809 115.426 251.809 115.122V113.114C251.809 112.81 252.054 112.564 252.357 112.564C252.661 112.564 252.906 112.81 252.906 113.114V115.122C252.906 115.425 252.66 115.672 252.357 115.672ZM253.669 116.749C253.365 116.749 253.12 116.503 253.12 116.199V112.036C253.12 111.732 253.365 111.485 253.669 111.485C253.972 111.485 254.217 111.732 254.217 112.036V116.199C254.217 116.502 253.971 116.749 253.669 116.749ZM257.907 115.672C257.604 115.672 257.358 115.425 257.358 115.122V113.114C257.358 112.81 257.603 112.564 257.907 112.564C258.21 112.564 258.456 112.81 258.456 113.114V115.122C258.456 115.425 258.209 115.672 257.907 115.672ZM256.596 116.749C256.293 116.749 256.047 116.502 256.047 116.199V112.036C256.047 111.732 256.293 111.485 256.596 111.485C256.899 111.485 257.144 111.732 257.144 112.036V116.199C257.144 116.503 256.898 116.749 256.596 116.749ZM255.132 118.571C254.829 118.571 254.583 118.324 254.583 118.02V110.214C254.583 109.91 254.829 109.664 255.132 109.664C255.435 109.664 255.681 109.91 255.681 110.214V118.021C255.681 118.325 255.435 118.571 255.132 118.571Z" fill="white"/>
<path fill-rule="evenodd" clip-rule="evenodd" d="M246.225 130.357V134.134H244.493V130.35C244.781 130.382 245.07 130.395 245.36 130.395H245.382C245.664 130.395 245.945 130.387 246.225 130.357Z" fill="white"/>
<path fill-rule="evenodd" clip-rule="evenodd" d="M240.991 134.867H249.728C250.026 134.867 250.268 135.109 250.268 135.409C250.268 135.553 250.213 135.69 250.111 135.793C250.008 135.895 249.872 135.952 249.728 135.952H240.991C240.693 135.952 240.45 135.708 240.45 135.409C240.45 135.109 240.694 134.867 240.991 134.867Z" fill="white"/>
<path fill-rule="evenodd" clip-rule="evenodd" d="M246.294 129.611C245.993 129.655 245.688 129.663 245.383 129.663H245.36C245.046 129.663 244.731 129.648 244.419 129.604C244.414 129.603 244.409 129.603 244.404 129.603C243.009 129.457 241.696 128.924 240.582 128.073C238.564 126.532 237.389 124.11 237.388 121.57V119.599C237.388 119.285 237.644 119.028 237.958 119.028C238.271 119.028 238.527 119.285 238.527 119.599V121.648C238.527 123.491 239.247 125.221 240.551 126.52C241.844 127.81 243.557 128.521 245.38 128.521H245.423C249.213 128.521 252.236 125.347 252.236 121.574V119.599C252.236 119.285 252.492 119.028 252.806 119.028C253.12 119.028 253.376 119.285 253.376 119.599V121.648C253.376 123.793 252.538 125.808 251.023 127.322C249.753 128.592 248.117 129.451 246.318 129.61C246.311 129.609 246.302 129.611 246.294 129.611Z" fill="white"/>
<path fill-rule="evenodd" clip-rule="evenodd" d="M250.155 121.494H240.609V121.645C240.609 124.285 242.75 126.432 245.381 126.432C248.014 126.432 250.155 124.285 250.155 121.646L250.155 121.494Z" fill="white"/>
<path fill-rule="evenodd" clip-rule="evenodd" d="M250.155 120.074H240.609V120.854H250.155V120.074Z" fill="white"/>
<path fill-rule="evenodd" clip-rule="evenodd" d="M243.511 110.763C243.491 110.763 243.469 110.761 243.449 110.757C243.429 110.753 243.409 110.746 243.389 110.738C243.369 110.731 243.351 110.72 243.333 110.709C243.315 110.698 243.299 110.684 243.284 110.669C243.27 110.654 243.256 110.637 243.244 110.619C243.233 110.603 243.223 110.584 243.215 110.564C243.208 110.544 243.201 110.524 243.197 110.503C243.192 110.483 243.191 110.461 243.191 110.441C243.191 110.356 243.225 110.274 243.285 110.214C243.3 110.199 243.316 110.185 243.334 110.174C243.351 110.163 243.369 110.152 243.389 110.145C243.409 110.137 243.429 110.13 243.45 110.126C243.491 110.118 243.534 110.118 243.575 110.126C243.596 110.13 243.615 110.137 243.635 110.145C243.654 110.152 243.673 110.163 243.69 110.174C243.708 110.185 243.724 110.199 243.74 110.214C243.799 110.274 243.833 110.356 243.833 110.441C243.833 110.461 243.831 110.483 243.826 110.503C243.822 110.523 243.816 110.544 243.808 110.564C243.801 110.583 243.79 110.602 243.779 110.619C243.768 110.637 243.754 110.654 243.74 110.669C243.725 110.684 243.708 110.697 243.69 110.709C243.674 110.72 243.654 110.73 243.635 110.738C243.616 110.746 243.596 110.753 243.575 110.757C243.554 110.761 243.533 110.763 243.511 110.763ZM245.382 110.764C245.361 110.764 245.34 110.762 245.319 110.757C245.299 110.753 245.279 110.747 245.259 110.74C245.24 110.732 245.221 110.721 245.204 110.711C245.186 110.699 245.17 110.686 245.154 110.67C245.095 110.611 245.06 110.527 245.06 110.443C245.06 110.423 245.063 110.401 245.068 110.381C245.072 110.36 245.078 110.34 245.086 110.32C245.094 110.301 245.104 110.282 245.115 110.264C245.127 110.247 245.141 110.231 245.155 110.215C245.171 110.201 245.187 110.187 245.204 110.176C245.222 110.164 245.24 110.154 245.26 110.147C245.279 110.138 245.299 110.132 245.32 110.128C245.361 110.12 245.404 110.12 245.445 110.128C245.466 110.132 245.485 110.138 245.505 110.147C245.525 110.154 245.543 110.164 245.561 110.176C245.579 110.187 245.595 110.201 245.61 110.215C245.669 110.276 245.704 110.358 245.704 110.443C245.704 110.463 245.702 110.485 245.697 110.505C245.693 110.525 245.686 110.545 245.678 110.565C245.671 110.585 245.661 110.603 245.649 110.621C245.638 110.639 245.624 110.656 245.61 110.67C245.595 110.686 245.579 110.698 245.561 110.711C245.544 110.722 245.525 110.732 245.505 110.74C245.486 110.747 245.466 110.753 245.445 110.757C245.425 110.761 245.403 110.764 245.382 110.764ZM247.253 110.764C247.232 110.764 247.211 110.762 247.191 110.757C247.17 110.753 247.15 110.747 247.13 110.739C247.111 110.732 247.092 110.721 247.075 110.71C247.057 110.698 247.041 110.685 247.026 110.67C247.011 110.655 246.997 110.639 246.986 110.621C246.975 110.604 246.964 110.586 246.957 110.565C246.949 110.546 246.943 110.526 246.939 110.505C246.934 110.485 246.931 110.463 246.931 110.443C246.931 110.422 246.934 110.4 246.939 110.38C246.943 110.36 246.949 110.339 246.957 110.319C246.964 110.3 246.975 110.281 246.986 110.264C246.997 110.246 247.011 110.23 247.026 110.214C247.041 110.2 247.057 110.186 247.075 110.175C247.092 110.163 247.11 110.153 247.13 110.146C247.15 110.138 247.17 110.131 247.191 110.127C247.232 110.119 247.274 110.119 247.315 110.127C247.336 110.131 247.356 110.138 247.376 110.146C247.395 110.153 247.413 110.163 247.431 110.175C247.449 110.186 247.465 110.2 247.48 110.214C247.495 110.23 247.508 110.246 247.52 110.264C247.532 110.281 247.541 110.3 247.549 110.319C247.557 110.339 247.563 110.359 247.567 110.38C247.572 110.4 247.574 110.422 247.574 110.443C247.574 110.463 247.572 110.485 247.567 110.505C247.563 110.525 247.557 110.545 247.549 110.565C247.541 110.585 247.531 110.603 247.52 110.621C247.508 110.639 247.495 110.655 247.48 110.67C247.466 110.685 247.449 110.698 247.431 110.71C247.414 110.721 247.396 110.732 247.376 110.739C247.356 110.747 247.336 110.753 247.315 110.757C247.294 110.761 247.273 110.764 247.253 110.764ZM241.641 112.639C241.621 112.639 241.6 112.637 241.579 112.632C241.559 112.628 241.539 112.621 241.519 112.613C241.5 112.606 241.481 112.596 241.464 112.584C241.447 112.573 241.43 112.559 241.415 112.544C241.4 112.529 241.387 112.513 241.375 112.495C241.365 112.478 241.354 112.459 241.346 112.439C241.339 112.42 241.332 112.4 241.328 112.379C241.324 112.358 241.321 112.337 241.321 112.316C241.321 112.296 241.323 112.274 241.328 112.254C241.332 112.233 241.338 112.213 241.346 112.193C241.354 112.174 241.365 112.155 241.375 112.137C241.387 112.12 241.4 112.103 241.415 112.088C241.43 112.074 241.447 112.06 241.464 112.049C241.481 112.037 241.5 112.027 241.519 112.019C241.538 112.011 241.559 112.005 241.579 112.001C241.621 111.993 241.663 111.993 241.704 112.001C241.725 112.005 241.744 112.011 241.765 112.019C241.784 112.027 241.802 112.037 241.82 112.049C241.838 112.06 241.855 112.074 241.869 112.088C241.884 112.103 241.897 112.12 241.909 112.137C241.921 112.154 241.93 112.174 241.938 112.193C241.946 112.212 241.952 112.232 241.956 112.254C241.961 112.274 241.963 112.296 241.963 112.316C241.963 112.337 241.961 112.358 241.956 112.379C241.952 112.399 241.946 112.419 241.938 112.439C241.93 112.459 241.92 112.477 241.909 112.495C241.897 112.513 241.883 112.529 241.869 112.544C241.855 112.559 241.838 112.572 241.82 112.584C241.803 112.595 241.784 112.605 241.765 112.613C241.745 112.621 241.725 112.628 241.704 112.632C241.684 112.637 241.662 112.639 241.641 112.639ZM243.511 112.639C243.491 112.639 243.469 112.637 243.449 112.632C243.429 112.628 243.409 112.621 243.389 112.613C243.369 112.606 243.351 112.596 243.333 112.584C243.315 112.573 243.299 112.559 243.284 112.544C243.27 112.529 243.256 112.513 243.244 112.495C243.233 112.478 243.223 112.459 243.215 112.439C243.208 112.42 243.201 112.4 243.197 112.379C243.192 112.358 243.191 112.337 243.191 112.316C243.191 112.232 243.225 112.149 243.285 112.089C243.3 112.074 243.316 112.061 243.334 112.049C243.351 112.038 243.369 112.028 243.389 112.02C243.409 112.012 243.429 112.006 243.45 112.002C243.491 111.994 243.534 111.994 243.575 112.002C243.596 112.006 243.615 112.012 243.635 112.02C243.654 112.028 243.673 112.038 243.69 112.049C243.708 112.061 243.724 112.074 243.74 112.089C243.799 112.149 243.833 112.232 243.833 112.316C243.833 112.337 243.831 112.358 243.826 112.379C243.822 112.399 243.816 112.419 243.808 112.439C243.801 112.459 243.79 112.477 243.779 112.495C243.768 112.513 243.754 112.529 243.74 112.544C243.725 112.559 243.708 112.572 243.69 112.584C243.674 112.595 243.654 112.605 243.635 112.613C243.616 112.621 243.596 112.628 243.575 112.632C243.554 112.637 243.533 112.639 243.511 112.639ZM245.382 112.639C245.361 112.639 245.34 112.637 245.319 112.632C245.299 112.628 245.279 112.621 245.259 112.614C245.24 112.606 245.221 112.596 245.204 112.585C245.186 112.574 245.17 112.56 245.154 112.545C245.139 112.53 245.126 112.513 245.114 112.496C245.104 112.479 245.093 112.46 245.085 112.44C245.077 112.421 245.071 112.4 245.067 112.379C245.062 112.359 245.059 112.338 245.059 112.317C245.059 112.296 245.062 112.274 245.067 112.254C245.071 112.234 245.077 112.214 245.085 112.194C245.093 112.174 245.103 112.156 245.114 112.138C245.126 112.12 245.14 112.103 245.154 112.089C245.17 112.074 245.186 112.061 245.204 112.049C245.221 112.038 245.239 112.028 245.259 112.02C245.278 112.012 245.298 112.006 245.319 112.002C245.36 111.994 245.403 111.994 245.444 112.002C245.465 112.006 245.484 112.012 245.505 112.02C245.524 112.028 245.542 112.038 245.56 112.049C245.578 112.061 245.594 112.074 245.609 112.089C245.624 112.104 245.637 112.12 245.649 112.138C245.661 112.155 245.67 112.174 245.678 112.194C245.686 112.213 245.692 112.233 245.696 112.254C245.701 112.274 245.703 112.296 245.703 112.317C245.703 112.401 245.669 112.484 245.609 112.544C245.594 112.559 245.578 112.572 245.56 112.584C245.543 112.595 245.524 112.605 245.505 112.613C245.485 112.621 245.465 112.627 245.444 112.631C245.425 112.637 245.403 112.639 245.382 112.639ZM247.253 112.639C247.232 112.639 247.211 112.637 247.191 112.632C247.17 112.628 247.15 112.621 247.13 112.614C247.111 112.606 247.092 112.596 247.075 112.585C247.057 112.574 247.041 112.559 247.026 112.545C246.966 112.485 246.931 112.402 246.931 112.318C246.931 112.297 246.934 112.275 246.939 112.255C246.943 112.235 246.949 112.215 246.957 112.195C246.964 112.175 246.975 112.157 246.986 112.139C246.997 112.121 247.011 112.104 247.026 112.09C247.041 112.075 247.057 112.061 247.075 112.05C247.092 112.039 247.11 112.028 247.13 112.021C247.15 112.014 247.17 112.007 247.191 112.003C247.232 111.994 247.274 111.994 247.315 112.003C247.336 112.007 247.356 112.013 247.376 112.021C247.395 112.028 247.413 112.039 247.431 112.05C247.449 112.061 247.465 112.075 247.48 112.09C247.495 112.105 247.508 112.121 247.52 112.139C247.532 112.156 247.541 112.175 247.549 112.195C247.557 112.214 247.563 112.234 247.567 112.255C247.572 112.275 247.574 112.297 247.574 112.318C247.574 112.402 247.539 112.485 247.479 112.545C247.465 112.559 247.448 112.573 247.43 112.585C247.413 112.596 247.395 112.606 247.375 112.614C247.356 112.621 247.335 112.628 247.315 112.632C247.294 112.637 247.273 112.639 247.253 112.639ZM249.123 112.639C249.038 112.639 248.955 112.604 248.896 112.545C248.836 112.485 248.802 112.402 248.802 112.318C248.802 112.297 248.803 112.275 248.809 112.255C248.813 112.235 248.82 112.215 248.828 112.195C248.835 112.175 248.845 112.157 248.857 112.139C248.869 112.121 248.882 112.104 248.896 112.09C248.911 112.075 248.927 112.061 248.945 112.05C248.962 112.039 248.98 112.028 249.001 112.021C249.02 112.013 249.04 112.007 249.061 112.003C249.102 111.994 249.145 111.994 249.186 112.003C249.207 112.007 249.226 112.013 249.246 112.021C249.265 112.028 249.284 112.039 249.302 112.05C249.319 112.061 249.335 112.075 249.351 112.09C249.365 112.105 249.379 112.121 249.39 112.139C249.401 112.156 249.412 112.175 249.419 112.195C249.427 112.214 249.434 112.234 249.438 112.255C249.442 112.275 249.445 112.297 249.445 112.318C249.445 112.402 249.41 112.485 249.351 112.545C249.336 112.56 249.319 112.573 249.302 112.585C249.285 112.596 249.266 112.606 249.246 112.614C249.227 112.622 249.207 112.629 249.186 112.633C249.165 112.637 249.143 112.639 249.123 112.639ZM241.641 114.514C241.621 114.514 241.6 114.512 241.579 114.507C241.559 114.503 241.539 114.496 241.519 114.489C241.5 114.481 241.481 114.47 241.464 114.46C241.447 114.448 241.43 114.435 241.415 114.419C241.356 114.36 241.321 114.277 241.321 114.193C241.321 114.172 241.323 114.15 241.328 114.13C241.332 114.11 241.338 114.089 241.346 114.069C241.354 114.05 241.365 114.031 241.375 114.014C241.387 113.996 241.4 113.98 241.415 113.964C241.43 113.95 241.447 113.936 241.464 113.925C241.481 113.914 241.5 113.903 241.519 113.896C241.538 113.888 241.559 113.881 241.579 113.877C241.621 113.869 241.663 113.869 241.704 113.877C241.725 113.881 241.744 113.888 241.765 113.896C241.784 113.903 241.802 113.914 241.82 113.925C241.838 113.936 241.855 113.95 241.869 113.964C241.884 113.98 241.897 113.996 241.909 114.014C241.921 114.031 241.93 114.05 241.938 114.069C241.946 114.089 241.952 114.11 241.956 114.13C241.961 114.15 241.963 114.172 241.963 114.193C241.963 114.213 241.961 114.235 241.956 114.255C241.952 114.275 241.946 114.295 241.938 114.315C241.93 114.335 241.92 114.353 241.909 114.371C241.897 114.388 241.883 114.405 241.869 114.419C241.855 114.435 241.838 114.448 241.82 114.46C241.803 114.471 241.784 114.481 241.765 114.489C241.745 114.496 241.725 114.503 241.704 114.507C241.684 114.512 241.662 114.514 241.641 114.514ZM243.511 114.514C243.491 114.514 243.469 114.512 243.449 114.507C243.429 114.503 243.409 114.496 243.389 114.489C243.369 114.481 243.351 114.47 243.333 114.46C243.315 114.448 243.299 114.435 243.284 114.419C243.225 114.36 243.19 114.277 243.19 114.193C243.19 114.172 243.191 114.15 243.196 114.13C243.201 114.11 243.207 114.089 243.214 114.069C243.222 114.05 243.233 114.031 243.243 114.014C243.254 113.996 243.269 113.98 243.283 113.964C243.299 113.95 243.315 113.936 243.332 113.925C243.349 113.914 243.368 113.903 243.388 113.896C243.407 113.888 243.427 113.881 243.448 113.877C243.551 113.856 243.662 113.891 243.737 113.965C243.752 113.981 243.765 113.997 243.777 114.014C243.788 114.031 243.798 114.051 243.806 114.07C243.814 114.089 243.82 114.11 243.824 114.131C243.829 114.151 243.831 114.172 243.831 114.194C243.831 114.277 243.797 114.361 243.737 114.42C243.678 114.48 243.596 114.514 243.511 114.514ZM245.382 114.514C245.361 114.514 245.34 114.512 245.319 114.507C245.299 114.503 245.279 114.496 245.259 114.489C245.24 114.481 245.221 114.47 245.204 114.46C245.186 114.448 245.17 114.435 245.154 114.419C245.095 114.36 245.06 114.277 245.06 114.193C245.06 114.172 245.063 114.15 245.068 114.13C245.072 114.11 245.078 114.089 245.086 114.069C245.094 114.05 245.104 114.031 245.115 114.014C245.127 113.996 245.141 113.98 245.155 113.964C245.171 113.95 245.187 113.936 245.204 113.925C245.222 113.914 245.24 113.903 245.26 113.896C245.279 113.888 245.299 113.881 245.32 113.877C245.361 113.869 245.404 113.869 245.445 113.877C245.466 113.881 245.485 113.888 245.505 113.896C245.525 113.903 245.543 113.914 245.561 113.925C245.579 113.936 245.595 113.95 245.61 113.964C245.669 114.025 245.704 114.107 245.704 114.192C245.704 114.212 245.702 114.234 245.697 114.254C245.693 114.274 245.686 114.294 245.678 114.314C245.671 114.334 245.661 114.353 245.649 114.37C245.638 114.387 245.624 114.404 245.61 114.419C245.595 114.434 245.579 114.447 245.561 114.459C245.544 114.47 245.525 114.48 245.505 114.488C245.486 114.495 245.466 114.502 245.445 114.506C245.425 114.512 245.403 114.514 245.382 114.514ZM247.253 114.514C247.232 114.514 247.211 114.512 247.191 114.507C247.17 114.503 247.15 114.496 247.13 114.489C247.111 114.481 247.092 114.47 247.075 114.46C247.057 114.448 247.041 114.435 247.026 114.419C247.011 114.404 246.997 114.388 246.986 114.37C246.975 114.353 246.964 114.335 246.957 114.314C246.949 114.295 246.943 114.275 246.939 114.254C246.934 114.234 246.931 114.212 246.931 114.192C246.931 114.171 246.934 114.149 246.939 114.129C246.943 114.109 246.949 114.089 246.957 114.068C246.964 114.049 246.975 114.031 246.986 114.013C246.997 113.995 247.011 113.979 247.026 113.964C247.041 113.949 247.057 113.935 247.075 113.924C247.092 113.913 247.11 113.902 247.13 113.895C247.15 113.888 247.17 113.881 247.191 113.876C247.232 113.868 247.274 113.868 247.315 113.876C247.336 113.881 247.356 113.887 247.376 113.895C247.396 113.903 247.413 113.913 247.431 113.924C247.449 113.935 247.465 113.949 247.48 113.964C247.495 113.979 247.508 113.995 247.52 114.013C247.532 114.03 247.541 114.049 247.549 114.068C247.557 114.088 247.563 114.108 247.567 114.129C247.572 114.149 247.574 114.171 247.574 114.192C247.574 114.212 247.572 114.234 247.567 114.254C247.563 114.274 247.557 114.294 247.549 114.314C247.541 114.334 247.531 114.353 247.52 114.37C247.508 114.388 247.495 114.404 247.48 114.419C247.466 114.435 247.449 114.448 247.431 114.46C247.414 114.471 247.396 114.481 247.376 114.489C247.356 114.496 247.336 114.503 247.315 114.507C247.294 114.512 247.273 114.514 247.253 114.514ZM249.123 114.514C249.102 114.514 249.08 114.512 249.06 114.507C249.04 114.503 249.02 114.497 249 114.489C248.98 114.481 248.962 114.47 248.944 114.46C248.926 114.448 248.91 114.435 248.895 114.419C248.881 114.404 248.867 114.388 248.856 114.37C248.844 114.353 248.834 114.335 248.827 114.314C248.819 114.295 248.812 114.275 248.808 114.254C248.803 114.234 248.801 114.212 248.801 114.192C248.801 114.171 248.803 114.149 248.808 114.129C248.812 114.109 248.819 114.089 248.827 114.068C248.834 114.049 248.844 114.031 248.856 114.013C248.868 113.995 248.881 113.979 248.895 113.964C248.91 113.949 248.926 113.935 248.944 113.924C248.961 113.913 248.98 113.902 249 113.895C249.02 113.888 249.039 113.881 249.06 113.876C249.164 113.855 249.274 113.89 249.349 113.964C249.409 114.025 249.443 114.107 249.443 114.192C249.443 114.212 249.441 114.234 249.436 114.254C249.432 114.274 249.425 114.294 249.417 114.314C249.41 114.334 249.4 114.353 249.389 114.37C249.377 114.388 249.364 114.404 249.349 114.419C249.335 114.435 249.318 114.448 249.3 114.46C249.283 114.471 249.264 114.481 249.244 114.489C249.225 114.496 249.205 114.503 249.184 114.507C249.165 114.512 249.143 114.514 249.123 114.514ZM241.641 116.39C241.557 116.39 241.475 116.355 241.415 116.296C241.4 116.281 241.387 116.264 241.375 116.247C241.365 116.229 241.354 116.211 241.346 116.192C241.339 116.172 241.332 116.152 241.328 116.131C241.324 116.111 241.321 116.089 241.321 116.069C241.321 115.984 241.356 115.902 241.415 115.841C241.49 115.767 241.6 115.732 241.704 115.753C241.725 115.757 241.744 115.764 241.765 115.772C241.784 115.779 241.802 115.79 241.82 115.801C241.838 115.812 241.855 115.826 241.869 115.841C241.929 115.901 241.963 115.983 241.963 116.068C241.963 116.088 241.961 116.11 241.956 116.13C241.952 116.15 241.946 116.171 241.938 116.191C241.93 116.21 241.92 116.229 241.909 116.246C241.897 116.263 241.883 116.281 241.869 116.295C241.855 116.31 241.838 116.323 241.82 116.335C241.802 116.347 241.784 116.356 241.765 116.364C241.745 116.371 241.724 116.378 241.704 116.383C241.684 116.388 241.662 116.39 241.641 116.39ZM243.511 116.39C243.491 116.39 243.469 116.388 243.449 116.383C243.429 116.379 243.409 116.372 243.389 116.365C243.369 116.357 243.351 116.347 243.333 116.336C243.315 116.325 243.299 116.311 243.284 116.296C243.225 116.236 243.19 116.153 243.19 116.069C243.19 116.048 243.191 116.026 243.196 116.006C243.201 115.986 243.207 115.966 243.214 115.946C243.222 115.927 243.233 115.907 243.243 115.891C243.254 115.873 243.269 115.856 243.283 115.841C243.299 115.827 243.315 115.813 243.332 115.802C243.349 115.791 243.368 115.78 243.388 115.773C243.407 115.766 243.427 115.759 243.448 115.754C243.489 115.746 243.532 115.746 243.573 115.754C243.594 115.759 243.613 115.765 243.633 115.773C243.653 115.78 243.671 115.791 243.689 115.802C243.707 115.813 243.723 115.827 243.738 115.841C243.752 115.857 243.766 115.873 243.777 115.891C243.789 115.907 243.799 115.927 243.806 115.946C243.814 115.966 243.821 115.986 243.825 116.006C243.83 116.026 243.831 116.048 243.831 116.069C243.831 116.153 243.798 116.236 243.738 116.296C243.723 116.311 243.707 116.324 243.689 116.336C243.672 116.347 243.653 116.357 243.633 116.365C243.614 116.372 243.594 116.379 243.573 116.383C243.554 116.388 243.533 116.39 243.511 116.39ZM245.382 116.39C245.361 116.39 245.34 116.388 245.319 116.384C245.299 116.379 245.279 116.373 245.259 116.365C245.24 116.357 245.221 116.346 245.204 116.336C245.186 116.325 245.17 116.311 245.154 116.296C245.139 116.281 245.126 116.264 245.114 116.247C245.104 116.229 245.093 116.211 245.085 116.192C245.077 116.172 245.071 116.152 245.067 116.131C245.062 116.111 245.059 116.089 245.059 116.069C245.059 116.048 245.062 116.026 245.067 116.006C245.071 115.986 245.077 115.966 245.085 115.946C245.093 115.927 245.103 115.907 245.114 115.891C245.126 115.874 245.14 115.856 245.154 115.842C245.17 115.827 245.186 115.814 245.204 115.802C245.221 115.791 245.239 115.78 245.259 115.773C245.279 115.766 245.298 115.758 245.319 115.754C245.423 115.733 245.534 115.768 245.608 115.843C245.668 115.903 245.702 115.986 245.702 116.07C245.702 116.154 245.668 116.237 245.608 116.296C245.593 116.312 245.577 116.325 245.559 116.337C245.542 116.348 245.523 116.358 245.504 116.366C245.484 116.373 245.464 116.38 245.443 116.384C245.425 116.388 245.403 116.39 245.382 116.39ZM247.253 116.39C247.232 116.39 247.211 116.388 247.191 116.384C247.17 116.379 247.15 116.373 247.13 116.365C247.111 116.357 247.092 116.347 247.075 116.336C247.057 116.325 247.041 116.311 247.026 116.296C247.011 116.281 246.997 116.264 246.986 116.247C246.975 116.229 246.964 116.211 246.957 116.192C246.949 116.172 246.943 116.152 246.939 116.131C246.934 116.111 246.931 116.089 246.931 116.069C246.931 115.984 246.966 115.902 247.026 115.842C247.1 115.768 247.211 115.732 247.315 115.753C247.335 115.757 247.355 115.764 247.375 115.772C247.394 115.779 247.413 115.79 247.43 115.801C247.448 115.812 247.464 115.826 247.479 115.841C247.539 115.901 247.574 115.984 247.574 116.068C247.574 116.088 247.572 116.11 247.567 116.13C247.563 116.15 247.557 116.171 247.549 116.191C247.541 116.21 247.531 116.229 247.52 116.246C247.508 116.263 247.495 116.281 247.48 116.295C247.466 116.31 247.449 116.323 247.431 116.335C247.414 116.346 247.396 116.356 247.376 116.364C247.356 116.371 247.336 116.378 247.315 116.383C247.294 116.388 247.273 116.39 247.253 116.39ZM249.123 116.39C249.038 116.39 248.955 116.355 248.896 116.296C248.836 116.236 248.802 116.153 248.802 116.069C248.802 116.048 248.803 116.027 248.809 116.006C248.813 115.986 248.82 115.966 248.828 115.946C248.835 115.927 248.845 115.907 248.857 115.891C248.869 115.874 248.882 115.856 248.896 115.841C248.911 115.827 248.927 115.813 248.945 115.802C248.962 115.791 248.98 115.78 249.001 115.773C249.021 115.766 249.04 115.758 249.061 115.754C249.165 115.733 249.275 115.768 249.35 115.842C249.364 115.857 249.378 115.874 249.389 115.891C249.4 115.908 249.411 115.928 249.418 115.947C249.426 115.966 249.433 115.987 249.437 116.007C249.442 116.028 249.444 116.049 249.444 116.07C249.444 116.091 249.442 116.112 249.437 116.133C249.433 116.153 249.426 116.173 249.418 116.192C249.411 116.212 249.4 116.23 249.389 116.248C249.378 116.265 249.364 116.283 249.35 116.296C249.335 116.312 249.318 116.325 249.301 116.337C249.284 116.348 249.265 116.358 249.245 116.366C249.226 116.373 249.206 116.38 249.185 116.384C249.165 116.388 249.143 116.39 249.123 116.39ZM241.641 118.266C241.621 118.266 241.6 118.264 241.579 118.259C241.559 118.254 241.539 118.249 241.519 118.241C241.5 118.232 241.481 118.223 241.464 118.211C241.447 118.2 241.43 118.186 241.415 118.171C241.4 118.157 241.387 118.14 241.375 118.123C241.365 118.105 241.354 118.086 241.346 118.067C241.339 118.048 241.332 118.028 241.328 118.006C241.324 117.986 241.321 117.964 241.321 117.944C241.321 117.86 241.356 117.777 241.415 117.717C241.49 117.642 241.6 117.608 241.704 117.629C241.725 117.634 241.744 117.639 241.765 117.647C241.784 117.655 241.802 117.665 241.82 117.676C241.838 117.688 241.855 117.701 241.869 117.717C241.929 117.776 241.963 117.86 241.963 117.944C241.963 117.964 241.961 117.986 241.956 118.006C241.952 118.026 241.946 118.046 241.938 118.066C241.93 118.086 241.92 118.104 241.909 118.122C241.897 118.139 241.883 118.157 241.869 118.17C241.855 118.186 241.838 118.199 241.82 118.211C241.803 118.222 241.784 118.232 241.765 118.24C241.745 118.247 241.725 118.253 241.704 118.258C241.684 118.262 241.662 118.266 241.641 118.266ZM243.511 118.266C243.491 118.266 243.469 118.264 243.449 118.258C243.429 118.254 243.409 118.248 243.389 118.241C243.369 118.232 243.351 118.223 243.333 118.211C243.315 118.2 243.299 118.186 243.284 118.171C243.27 118.157 243.256 118.14 243.244 118.123C243.233 118.105 243.223 118.086 243.215 118.067C243.208 118.048 243.201 118.028 243.197 118.006C243.192 117.986 243.191 117.964 243.191 117.944C243.191 117.86 243.225 117.777 243.285 117.717C243.3 117.702 243.316 117.689 243.334 117.677C243.351 117.666 243.369 117.655 243.389 117.648C243.409 117.641 243.429 117.634 243.45 117.63C243.491 117.622 243.534 117.622 243.575 117.63C243.596 117.634 243.615 117.64 243.635 117.648C243.654 117.655 243.673 117.666 243.69 117.677C243.708 117.689 243.724 117.702 243.74 117.717C243.799 117.777 243.833 117.86 243.833 117.944C243.833 117.964 243.831 117.986 243.826 118.006C243.822 118.027 243.816 118.047 243.808 118.067C243.801 118.086 243.79 118.105 243.779 118.123C243.768 118.14 243.754 118.157 243.74 118.171C243.725 118.186 243.708 118.199 243.69 118.211C243.674 118.223 243.654 118.232 243.635 118.241C243.616 118.248 243.596 118.254 243.575 118.258C243.554 118.262 243.533 118.266 243.511 118.266ZM247.253 118.266C247.232 118.266 247.211 118.264 247.191 118.259C247.17 118.254 247.15 118.249 247.13 118.241C247.111 118.232 247.092 118.223 247.075 118.211C247.057 118.2 247.041 118.186 247.026 118.171C246.966 118.111 246.931 118.028 246.931 117.944C246.931 117.923 246.934 117.902 246.939 117.881C246.943 117.861 246.949 117.841 246.957 117.822C246.964 117.802 246.975 117.784 246.986 117.766C246.997 117.749 247.011 117.732 247.026 117.717C247.1 117.642 247.211 117.608 247.315 117.629C247.335 117.633 247.355 117.639 247.375 117.647C247.394 117.655 247.413 117.665 247.43 117.676C247.448 117.688 247.464 117.701 247.479 117.717C247.494 117.731 247.508 117.748 247.519 117.765C247.531 117.782 247.541 117.801 247.549 117.821C247.556 117.84 247.562 117.86 247.566 117.881C247.571 117.902 247.573 117.922 247.573 117.944C247.573 118.028 247.538 118.111 247.479 118.17C247.464 118.186 247.447 118.199 247.43 118.211C247.413 118.222 247.394 118.232 247.374 118.24C247.355 118.247 247.335 118.253 247.314 118.258C247.294 118.262 247.273 118.266 247.253 118.266ZM249.123 118.266C249.038 118.266 248.955 118.231 248.896 118.171C248.882 118.157 248.868 118.14 248.857 118.123C248.845 118.105 248.835 118.086 248.828 118.067C248.82 118.048 248.813 118.028 248.809 118.007C248.804 117.986 248.802 117.965 248.802 117.944C248.802 117.923 248.803 117.902 248.809 117.881C248.813 117.861 248.82 117.841 248.828 117.822C248.835 117.802 248.845 117.784 248.857 117.766C248.869 117.749 248.882 117.732 248.896 117.717C248.911 117.702 248.927 117.689 248.945 117.677C248.962 117.666 248.98 117.655 249.001 117.648C249.021 117.641 249.04 117.634 249.061 117.63C249.165 117.609 249.275 117.643 249.35 117.718C249.364 117.733 249.378 117.75 249.389 117.767C249.4 117.784 249.411 117.803 249.418 117.822C249.426 117.842 249.433 117.862 249.437 117.882C249.442 117.903 249.444 117.924 249.444 117.945C249.444 117.966 249.442 117.987 249.437 118.008C249.433 118.028 249.426 118.048 249.418 118.068C249.411 118.087 249.4 118.106 249.389 118.123C249.378 118.14 249.364 118.158 249.35 118.172C249.335 118.187 249.318 118.2 249.301 118.212C249.284 118.224 249.265 118.233 249.245 118.241C249.226 118.249 249.206 118.255 249.185 118.26C249.165 118.262 249.143 118.266 249.123 118.266ZM240.609 113.741V119.432H250.155V113.741C250.155 111.102 248.013 108.955 245.381 108.955C242.75 108.955 240.609 111.102 240.609 113.741ZM245.702 117.944C245.702 118.029 245.668 118.111 245.608 118.171C245.593 118.186 245.577 118.199 245.559 118.211C245.542 118.223 245.523 118.232 245.504 118.241C245.484 118.248 245.464 118.254 245.443 118.259C245.423 118.263 245.401 118.266 245.381 118.266C245.36 118.266 245.339 118.264 245.318 118.259C245.298 118.254 245.278 118.249 245.257 118.241C245.238 118.232 245.22 118.223 245.202 118.211C245.184 118.2 245.168 118.186 245.153 118.171C245.138 118.157 245.125 118.14 245.113 118.123C245.102 118.105 245.092 118.086 245.084 118.067C245.076 118.048 245.069 118.028 245.065 118.007C245.06 117.986 245.058 117.965 245.058 117.944C245.058 117.86 245.092 117.777 245.152 117.717C245.167 117.702 245.183 117.689 245.201 117.677C245.219 117.666 245.237 117.655 245.257 117.648C245.277 117.641 245.296 117.634 245.317 117.63C245.358 117.622 245.401 117.622 245.442 117.63C245.463 117.634 245.482 117.64 245.502 117.648C245.521 117.655 245.54 117.666 245.558 117.677C245.575 117.689 245.591 117.702 245.607 117.717C245.621 117.732 245.635 117.748 245.646 117.766C245.658 117.783 245.668 117.802 245.675 117.822C245.683 117.841 245.69 117.861 245.694 117.881C245.7 117.902 245.702 117.923 245.702 117.944Z" fill="white"/>
</g>
<g filter="url(#filter2_dd_3112_6695)">
<rect x="268.744" y="86.8285" width="146.729" height="41.2325" rx="20.6162" fill="white"/>
<path d="M314.558 111.978V102.819H317.659C318.383 102.819 318.976 102.941 319.439 103.186C319.901 103.43 320.241 103.757 320.459 104.167C320.686 104.568 320.799 105.026 320.799 105.541C320.799 106.029 320.686 106.483 320.459 106.901C320.241 107.311 319.896 107.643 319.425 107.896C318.954 108.14 318.353 108.262 317.62 108.262H315.867V111.978H314.558ZM319.373 111.978L317.397 107.909H318.837L320.891 111.978H319.373ZM315.867 107.268H317.568C318.213 107.268 318.688 107.111 318.994 106.797C319.299 106.474 319.452 106.064 319.452 105.567C319.452 105.061 319.303 104.66 319.007 104.363C318.71 104.067 318.23 103.918 317.568 103.918H315.867V107.268ZM325.015 112.135C324.387 112.135 323.828 111.991 323.34 111.703C322.851 111.415 322.468 111.014 322.188 110.5C321.918 109.985 321.783 109.387 321.783 108.707C321.783 108.009 321.918 107.403 322.188 106.888C322.468 106.365 322.851 105.959 323.34 105.672C323.828 105.375 324.395 105.227 325.041 105.227C325.686 105.227 326.24 105.371 326.702 105.658C327.165 105.946 327.522 106.33 327.775 106.81C328.028 107.281 328.155 107.804 328.155 108.38C328.155 108.467 328.15 108.563 328.142 108.668C328.142 108.764 328.137 108.873 328.129 108.995H322.738V108.066H326.846C326.82 107.516 326.637 107.089 326.297 106.784C325.957 106.47 325.534 106.313 325.028 106.313C324.67 106.313 324.343 106.396 324.046 106.561C323.75 106.718 323.51 106.954 323.327 107.268C323.152 107.573 323.065 107.961 323.065 108.432V108.799C323.065 109.287 323.152 109.701 323.327 110.042C323.51 110.373 323.75 110.626 324.046 110.801C324.343 110.966 324.666 111.049 325.015 111.049C325.433 111.049 325.778 110.958 326.048 110.774C326.319 110.591 326.519 110.343 326.65 110.029H327.959C327.845 110.43 327.653 110.792 327.383 111.115C327.112 111.429 326.777 111.677 326.375 111.86C325.983 112.043 325.529 112.135 325.015 112.135ZM332.657 112.135C332.02 112.135 331.453 111.991 330.956 111.703C330.459 111.407 330.066 111.001 329.779 110.486C329.499 109.972 329.36 109.374 329.36 108.694C329.36 108.005 329.499 107.403 329.779 106.888C330.066 106.365 330.459 105.959 330.956 105.672C331.453 105.375 332.02 105.227 332.657 105.227C333.46 105.227 334.131 105.436 334.672 105.855C335.213 106.273 335.557 106.84 335.706 107.556H334.345C334.258 107.172 334.057 106.875 333.743 106.666C333.438 106.457 333.071 106.352 332.644 106.352C332.295 106.352 331.972 106.443 331.676 106.627C331.379 106.801 331.139 107.063 330.956 107.412C330.782 107.752 330.694 108.175 330.694 108.681C330.694 109.056 330.747 109.392 330.851 109.688C330.956 109.976 331.096 110.22 331.27 110.421C331.453 110.622 331.663 110.774 331.898 110.879C332.134 110.975 332.382 111.023 332.644 111.023C332.932 111.023 333.189 110.979 333.416 110.892C333.651 110.796 333.848 110.657 334.005 110.473C334.17 110.29 334.284 110.072 334.345 109.819H335.706C335.557 110.517 335.213 111.08 334.672 111.507C334.131 111.926 333.46 112.135 332.657 112.135ZM340.246 112.135C339.627 112.135 339.068 111.991 338.571 111.703C338.083 111.415 337.695 111.014 337.407 110.5C337.128 109.976 336.988 109.374 336.988 108.694C336.988 107.996 337.132 107.39 337.42 106.875C337.708 106.352 338.1 105.946 338.597 105.658C339.095 105.371 339.653 105.227 340.272 105.227C340.9 105.227 341.458 105.371 341.947 105.658C342.435 105.946 342.819 106.348 343.098 106.862C343.386 107.377 343.53 107.983 343.53 108.681C343.53 109.379 343.386 109.985 343.098 110.5C342.819 111.014 342.431 111.415 341.934 111.703C341.437 111.991 340.874 112.135 340.246 112.135ZM340.246 111.01C340.604 111.01 340.926 110.923 341.214 110.748C341.511 110.574 341.746 110.316 341.921 109.976C342.104 109.627 342.195 109.196 342.195 108.681C342.195 108.166 342.108 107.739 341.934 107.399C341.759 107.05 341.524 106.788 341.227 106.614C340.939 106.439 340.621 106.352 340.272 106.352C339.923 106.352 339.6 106.439 339.304 106.614C339.007 106.788 338.767 107.05 338.584 107.399C338.41 107.739 338.323 108.166 338.323 108.681C338.323 109.196 338.41 109.627 338.584 109.976C338.767 110.316 339.003 110.574 339.291 110.748C339.587 110.923 339.906 111.01 340.246 111.01ZM345.069 111.978V105.384H346.247L346.365 106.627C346.513 106.33 346.705 106.081 346.94 105.881C347.176 105.672 347.451 105.51 347.765 105.397C348.087 105.283 348.454 105.227 348.864 105.227V106.614H348.393C348.122 106.614 347.865 106.648 347.621 106.718C347.376 106.779 347.158 106.888 346.966 107.045C346.783 107.202 346.639 107.416 346.535 107.686C346.43 107.957 346.378 108.293 346.378 108.694V111.978H345.069ZM352.804 112.135C352.176 112.135 351.622 111.987 351.143 111.69C350.663 111.385 350.288 110.975 350.017 110.46C349.756 109.937 349.625 109.344 349.625 108.681C349.625 108.009 349.756 107.416 350.017 106.901C350.288 106.387 350.663 105.981 351.143 105.685C351.631 105.379 352.189 105.227 352.817 105.227C353.332 105.227 353.786 105.331 354.178 105.541C354.571 105.741 354.876 106.029 355.094 106.404V102.558H356.402V111.978H355.225L355.094 110.958C354.963 111.158 354.793 111.35 354.584 111.533C354.374 111.708 354.121 111.852 353.825 111.965C353.528 112.078 353.188 112.135 352.804 112.135ZM353.014 110.997C353.424 110.997 353.786 110.901 354.1 110.709C354.414 110.517 354.654 110.247 354.819 109.898C354.994 109.549 355.081 109.143 355.081 108.681C355.081 108.219 354.994 107.817 354.819 107.477C354.654 107.128 354.414 106.858 354.1 106.666C353.786 106.465 353.424 106.365 353.014 106.365C352.621 106.365 352.268 106.465 351.954 106.666C351.64 106.858 351.396 107.128 351.221 107.477C351.047 107.817 350.959 108.219 350.959 108.681C350.959 109.143 351.047 109.549 351.221 109.898C351.396 110.247 351.64 110.517 351.954 110.709C352.268 110.901 352.621 110.997 353.014 110.997Z" fill="#4B5563"/>
<ellipse cx="292.108" cy="107.389" rx="12.1495" ry="12.1509" fill="#3F7EF8"/>
<g clip-path="url(#clip1_3112_6695)">
<path d="M292.108 111.205V112.841" stroke="white" stroke-width="1.09034" stroke-linecap="round" stroke-linejoin="round"/>
<path d="M295.924 106.299V107.389C295.924 108.402 295.522 109.372 294.806 110.088C294.09 110.804 293.12 111.206 292.108 111.206C291.096 111.206 290.125 110.804 289.409 110.088C288.694 109.372 288.292 108.402 288.292 107.389V106.299" stroke="white" stroke-width="1.09034" stroke-linecap="round" stroke-linejoin="round"/>
<path d="M293.744 103.574C293.744 102.67 293.011 101.938 292.108 101.938C291.205 101.938 290.473 102.67 290.473 103.574V107.39C290.473 108.293 291.205 109.025 292.108 109.025C293.011 109.025 293.744 108.293 293.744 107.39V103.574Z" stroke="white" stroke-width="1.09034" stroke-linecap="round" stroke-linejoin="round"/>
</g>
</g>
<defs>
<filter id="filter0_dd_3112_6695" x="0.519384" y="170.25" width="176.636" height="71.139" filterUnits="userSpaceOnUse" color-interpolation-filters="sRGB">
<feFlood flood-opacity="0" result="BackgroundImageFix"/>
<feColorMatrix in="SourceAlpha" type="matrix" values="0 0 0 0 0 0 0 0 0 0 0 0 0 0 0 0 0 0 127 0" result="hardAlpha"/>
<feOffset dy="7.47664"/>
<feGaussianBlur stdDeviation="7.47664"/>
<feColorMatrix type="matrix" values="0 0 0 0 0.109804 0 0 0 0 0.0980392 0 0 0 0 0.0901961 0 0 0 0.02 0"/>
<feBlend mode="normal" in2="BackgroundImageFix" result="effect1_dropShadow_3112_6695"/>
<feColorMatrix in="SourceAlpha" type="matrix" values="0 0 0 0 0 0 0 0 0 0 0 0 0 0 0 0 0 0 127 0" result="hardAlpha"/>
<feOffset dy="3.73832"/>
<feGaussianBlur stdDeviation="3.73832"/>
<feColorMatrix type="matrix" values="0 0 0 0 0.109804 0 0 0 0 0.0980392 0 0 0 0 0.0901961 0 0 0 0.03 0"/>
<feBlend mode="normal" in2="effect1_dropShadow_3112_6695" result="effect2_dropShadow_3112_6695"/>
<feBlend mode="normal" in="SourceGraphic" in2="effect2_dropShadow_3112_6695" result="shape"/>
</filter>
<filter id="filter1_dd_3112_6695" x="183.697" y="239.597" width="176.636" height="71.139" filterUnits="userSpaceOnUse" color-interpolation-filters="sRGB">
<feFlood flood-opacity="0" result="BackgroundImageFix"/>
<feColorMatrix in="SourceAlpha" type="matrix" values="0 0 0 0 0 0 0 0 0 0 0 0 0 0 0 0 0 0 127 0" result="hardAlpha"/>
<feOffset dy="7.47664"/>
<feGaussianBlur stdDeviation="7.47664"/>
<feColorMatrix type="matrix" values="0 0 0 0 0.109804 0 0 0 0 0.0980392 0 0 0 0 0.0901961 0 0 0 0.02 0"/>
<feBlend mode="normal" in2="BackgroundImageFix" result="effect1_dropShadow_3112_6695"/>
<feColorMatrix in="SourceAlpha" type="matrix" values="0 0 0 0 0 0 0 0 0 0 0 0 0 0 0 0 0 0 127 0" result="hardAlpha"/>
<feOffset dy="3.73832"/>
<feGaussianBlur stdDeviation="3.73832"/>
<feColorMatrix type="matrix" values="0 0 0 0 0.109804 0 0 0 0 0.0980392 0 0 0 0 0.0901961 0 0 0 0.03 0"/>
<feBlend mode="normal" in2="effect1_dropShadow_3112_6695" result="effect2_dropShadow_3112_6695"/>
<feBlend mode="normal" in="SourceGraphic" in2="effect2_dropShadow_3112_6695" result="shape"/>
</filter>
<filter id="filter2_dd_3112_6695" x="253.79" y="79.3519" width="176.636" height="71.139" filterUnits="userSpaceOnUse" color-interpolation-filters="sRGB">
<feFlood flood-opacity="0" result="BackgroundImageFix"/>
<feColorMatrix in="SourceAlpha" type="matrix" values="0 0 0 0 0 0 0 0 0 0 0 0 0 0 0 0 0 0 127 0" result="hardAlpha"/>
<feOffset dy="7.47664"/>
<feGaussianBlur stdDeviation="7.47664"/>
<feColorMatrix type="matrix" values="0 0 0 0 0.109804 0 0 0 0 0.0980392 0 0 0 0 0.0901961 0 0 0 0.02 0"/>
<feBlend mode="normal" in2="BackgroundImageFix" result="effect1_dropShadow_3112_6695"/>
<feColorMatrix in="SourceAlpha" type="matrix" values="0 0 0 0 0 0 0 0 0 0 0 0 0 0 0 0 0 0 127 0" result="hardAlpha"/>
<feOffset dy="3.73832"/>
<feGaussianBlur stdDeviation="3.73832"/>
<feColorMatrix type="matrix" values="0 0 0 0 0.109804 0 0 0 0 0.0980392 0 0 0 0 0.0901961 0 0 0 0.03 0"/>
<feBlend mode="normal" in2="effect1_dropShadow_3112_6695" result="effect2_dropShadow_3112_6695"/>
<feBlend mode="normal" in="SourceGraphic" in2="effect2_dropShadow_3112_6695" result="shape"/>
</filter>
<linearGradient id="paint0_linear_3112_6695" x1="-57.037" y1="-408.802" x2="289.486" y2="186.166" gradientUnits="userSpaceOnUse">
<stop stop-color="white"/>
<stop offset="1" stop-color="white" stop-opacity="0"/>
</linearGradient>
<linearGradient id="paint1_linear_3112_6695" x1="324.602" y1="155.511" x2="368.629" y2="310.294" gradientUnits="userSpaceOnUse">
<stop stop-color="#BDD4FF" stop-opacity="0.1"/>
<stop offset="1" stop-color="#BDD4FF"/>
</linearGradient>
<clipPath id="clip0_3112_6695">
<rect width="201.869" height="163.993" fill="white" transform="translate(104.251 55.4501)"/>
</clipPath>
<clipPath id="clip1_3112_6695">
<rect width="13.0841" height="13.0841" fill="white" transform="translate(285.566 100.847)"/>
</clipPath>
</defs>
</svg>
