<svg width="259" height="46" viewBox="0 0 259 46" fill="none" xmlns="http://www.w3.org/2000/svg">
<path fill-rule="evenodd" clip-rule="evenodd" d="M1.62382 11.4351C1.10542 11.4351 0.686035 11.0157 0.686035 10.4975L0.686035 7.0763C0.686035 6.55781 1.10542 6.13846 1.62382 6.13846C2.14221 6.13846 2.56163 6.55781 2.56163 7.0763L2.56163 10.4975C2.56025 11.0145 2.14083 11.4351 1.62382 11.4351ZM3.86244 13.2708C3.34405 13.2708 2.92463 12.8514 2.92463 12.3333L2.92463 5.23907C2.92463 4.72088 3.34405 4.30122 3.86244 4.30122C4.38084 4.30122 4.80022 4.72088 4.80022 5.23907L4.80022 12.3333C4.80161 12.8502 4.38084 13.2708 3.86244 13.2708ZM11.1049 11.4351C10.5879 11.4351 10.1671 11.0145 10.1671 10.4975L10.1671 7.0763C10.1671 6.55931 10.5865 6.13846 11.1049 6.13846C11.6233 6.13846 12.0427 6.55781 12.0427 7.0763L12.0427 10.4975C12.0427 11.0145 11.622 11.4351 11.1049 11.4351ZM8.86494 13.2708C8.34654 13.2708 7.92712 12.8514 7.92712 12.3333L7.92712 5.23907C7.92712 4.72088 8.34654 4.30122 8.86494 4.30122C9.38333 4.30122 9.80272 4.72208 9.80272 5.23907L9.80272 12.3333C9.80272 12.8502 9.38195 13.2708 8.86494 13.2708ZM6.36506 16.3745C5.84666 16.3745 5.42727 15.9552 5.42727 15.4367L5.42727 2.13565C5.42727 1.61717 5.84666 1.19781 6.36506 1.19781C6.88345 1.19781 7.30149 1.61867 7.30149 2.13565L7.30149 15.4379C7.30149 15.9552 6.88207 16.3745 6.36506 16.3745ZM34.9403 11.4351C34.4221 11.4351 34.0024 11.0157 34.0024 10.4975V7.0763C34.0024 6.55781 34.4221 6.13846 34.9403 6.13846C35.4588 6.13846 35.8781 6.55781 35.8781 7.0763V10.4975C35.8781 11.0145 35.4573 11.4351 34.9403 11.4351ZM37.1803 13.2708C36.6619 13.2708 36.2425 12.8514 36.2425 12.3333V5.23907C36.2425 4.72208 36.6619 4.30122 37.1803 4.30122C37.6988 4.30122 38.1182 4.72208 38.1182 5.23907V12.3333C38.1182 12.8502 37.6973 13.2708 37.1803 13.2708ZM44.4214 11.4351C43.9045 11.4351 43.4836 11.0145 43.4836 10.4975V7.0763C43.4836 6.55781 43.903 6.13846 44.4214 6.13846C44.9399 6.13846 45.3593 6.55781 45.3593 7.0763V10.4975C45.3593 11.0145 44.9384 11.4351 44.4214 11.4351ZM42.1814 13.2708C41.6644 13.2708 41.2438 12.8502 41.2438 12.3333V5.23907C41.2438 4.72088 41.6644 4.30122 42.1814 4.30122C42.6999 4.30122 43.1192 4.72088 43.1192 5.23907V12.3333C43.1192 12.8514 42.6987 13.2708 42.1814 13.2708ZM39.6803 16.3745C39.1633 16.3745 38.7424 15.9537 38.7424 15.4367L38.7424 2.13565C38.7424 1.61717 39.1633 1.19781 39.6803 1.19781C40.1987 1.19781 40.6181 1.61717 40.6181 2.13565L40.6181 15.4379C40.6181 15.9552 40.1987 16.3745 39.6803 16.3745Z" fill="white"/>
<path fill-rule="evenodd" clip-rule="evenodd" d="M24.4633 36.4616V42.897H21.5042V36.4506C21.9965 36.5043 22.4901 36.5263 22.9852 36.5263H23.0236C23.5063 36.5263 23.9862 36.5125 24.4633 36.4616Z" fill="white"/>
<path fill-rule="evenodd" clip-rule="evenodd" d="M15.5201 44.1452H30.4466C30.9566 44.1452 31.3706 44.5591 31.3706 45.0692C31.3706 45.3153 31.2757 45.5491 31.1011 45.7237C30.9264 45.8984 30.694 45.9946 30.4479 45.9946H15.5201C15.01 45.9946 14.5947 45.5794 14.5947 45.0692C14.5947 44.5591 15.0114 44.1452 15.5201 44.1452Z" fill="white"/>
<path fill-rule="evenodd" clip-rule="evenodd" d="M24.5795 35.1888C24.0654 35.2631 23.5442 35.2769 23.0229 35.2769H22.9844C22.4483 35.2769 21.9093 35.2507 21.3769 35.1765C21.3688 35.1751 21.3591 35.1737 21.351 35.1737C18.9679 34.9262 16.7238 34.0173 14.8207 32.568C11.372 29.9416 9.36442 25.815 9.36304 21.4863V18.1283C9.36304 17.5922 9.80032 17.1548 10.3366 17.1548C10.8729 17.1548 11.3102 17.5922 11.3102 18.1283V21.6198C11.3102 24.7603 12.5395 27.7071 14.7671 29.9209C16.9768 32.1183 19.903 33.3311 23.019 33.3311H23.0916C29.5682 33.3311 34.7331 27.9216 34.7331 21.4932V18.1283C34.7331 17.5922 35.1703 17.1548 35.7066 17.1548C36.243 17.1548 36.6802 17.5922 36.6802 18.1283V21.6198C36.6802 25.2746 35.2487 28.7081 32.6608 31.2878C30.4896 33.4521 27.694 34.9152 24.6207 35.1861C24.6084 35.1847 24.5933 35.1875 24.5795 35.1888Z" fill="white"/>
<path fill-rule="evenodd" clip-rule="evenodd" d="M31.1782 21.3607H14.8672V21.6178C14.8672 26.1158 18.5249 29.7734 23.0213 29.7734C27.5191 29.7734 31.177 26.1158 31.177 21.6193L31.1782 21.3607Z" fill="white"/>
<path fill-rule="evenodd" clip-rule="evenodd" d="M31.178 18.9377H14.8669V20.2661H31.178V18.9377Z" fill="white"/>
<path fill-rule="evenodd" clip-rule="evenodd" d="M19.8257 3.07405C19.7913 3.07405 19.7542 3.07131 19.7198 3.06309C19.6854 3.05639 19.6511 3.04543 19.6167 3.03142C19.5837 3.01924 19.552 3.00128 19.5218 2.9821C19.4915 2.96292 19.464 2.93947 19.4379 2.91329C19.4132 2.88863 19.3898 2.8597 19.3692 2.82926C19.3513 2.80063 19.3334 2.76897 19.3197 2.73456C19.3073 2.70138 19.2963 2.66728 19.2894 2.63135C19.2812 2.59694 19.2784 2.5598 19.2784 2.52539C19.2784 2.38107 19.3375 2.24101 19.4393 2.1378C19.4654 2.11313 19.4929 2.08969 19.5232 2.07051C19.552 2.05102 19.5837 2.03336 19.6181 2.02088C19.6511 2.00718 19.6854 1.99622 19.7212 1.98921C19.7913 1.97551 19.8642 1.97551 19.9343 1.98921C19.9701 1.99622 20.0031 2.00718 20.0375 2.02088C20.0705 2.03336 20.1021 2.05102 20.1323 2.07051C20.1626 2.08969 20.1901 2.11313 20.2162 2.1378C20.318 2.24101 20.3757 2.38107 20.3757 2.52539C20.3757 2.5598 20.373 2.59694 20.3647 2.63135C20.3578 2.66575 20.3468 2.70016 20.3331 2.73456C20.3207 2.76745 20.3028 2.79911 20.2836 2.82926C20.2643 2.8597 20.241 2.88863 20.2162 2.91329C20.1915 2.93947 20.1626 2.9614 20.1323 2.9821C20.1034 3.00128 20.0705 3.01772 20.0375 3.03142C20.0045 3.04543 19.9701 3.05639 19.9343 3.06309C19.8986 3.07131 19.8628 3.07405 19.8257 3.07405ZM23.0227 3.07557C22.987 3.07557 22.9512 3.07283 22.9155 3.06461C22.8811 3.05761 22.8467 3.04665 22.8123 3.03416C22.7793 3.02046 22.7477 3.0028 22.7175 2.98484C22.6872 2.96566 22.6597 2.94221 22.6336 2.91603C22.5318 2.81434 22.4727 2.67276 22.4727 2.52965C22.4727 2.49403 22.4768 2.45688 22.4851 2.42248C22.4919 2.38807 22.503 2.35367 22.5167 2.31926C22.5304 2.28638 22.547 2.25471 22.5662 2.22427C22.5868 2.19413 22.6102 2.16672 22.6349 2.14054C22.6611 2.11588 22.6886 2.09243 22.7188 2.07325C22.7491 2.05376 22.7793 2.0361 22.8137 2.02362C22.8467 2.00992 22.8811 1.99896 22.9169 1.99196C22.987 1.97826 23.0599 1.97826 23.13 1.99196C23.1657 1.99896 23.1987 2.00992 23.2331 2.02362C23.2661 2.0361 23.2977 2.05376 23.328 2.07325C23.3582 2.09243 23.3857 2.11588 23.4119 2.14054C23.5136 2.24375 23.5727 2.38381 23.5727 2.52813C23.5727 2.56254 23.57 2.59968 23.5604 2.63409C23.5535 2.66849 23.5425 2.7029 23.5288 2.7373C23.5164 2.77019 23.4985 2.80185 23.4792 2.8323C23.46 2.86244 23.4366 2.89137 23.4119 2.91603C23.3857 2.94221 23.3582 2.96414 23.328 2.98484C23.2991 3.00402 23.2661 3.02046 23.2331 3.03416C23.2001 3.04665 23.1657 3.05761 23.13 3.06461C23.0956 3.07131 23.0585 3.07557 23.0227 3.07557ZM26.2184 3.07557C26.184 3.07557 26.1469 3.07283 26.1125 3.06461C26.0781 3.05761 26.0438 3.04665 26.0094 3.03294C25.9764 3.02046 25.9447 3.0028 25.9145 2.98332C25.8842 2.96414 25.8567 2.94069 25.8306 2.91603C25.8059 2.88984 25.7825 2.86244 25.7632 2.8323C25.744 2.80337 25.7261 2.77171 25.7137 2.7373C25.7 2.70442 25.689 2.67001 25.6821 2.63409C25.6738 2.59968 25.6697 2.56254 25.6697 2.52813C25.6697 2.49251 25.6738 2.45536 25.6821 2.42096C25.689 2.38655 25.7 2.35215 25.7137 2.31774C25.7261 2.28486 25.744 2.25319 25.7632 2.22305C25.7825 2.1926 25.8059 2.1652 25.8306 2.13902C25.8567 2.11435 25.8842 2.09091 25.9145 2.07173C25.9434 2.05255 25.975 2.03458 26.0094 2.0221C26.0424 2.0084 26.0768 1.99744 26.1125 1.99074C26.1826 1.97673 26.2555 1.97673 26.3256 1.99074C26.3614 1.99744 26.3944 2.0084 26.4288 2.0221C26.4618 2.03458 26.4934 2.05255 26.5237 2.07173C26.5539 2.09091 26.5814 2.11435 26.6075 2.13902C26.6323 2.1652 26.6557 2.1926 26.6749 2.22305C26.6955 2.25197 26.712 2.28486 26.7258 2.31774C26.7382 2.35093 26.7492 2.38533 26.756 2.42096C26.7643 2.45536 26.767 2.49251 26.767 2.52813C26.767 2.56254 26.7643 2.59968 26.756 2.63409C26.7492 2.66849 26.7382 2.7029 26.7258 2.7373C26.712 2.77019 26.6942 2.80185 26.6749 2.8323C26.6557 2.86244 26.6323 2.88984 26.6075 2.91603C26.5828 2.94069 26.5539 2.96414 26.5237 2.98332C26.4948 3.0028 26.4631 3.02046 26.4288 3.03294C26.3958 3.04665 26.3614 3.05761 26.3256 3.06461C26.2899 3.07131 26.2541 3.07557 26.2184 3.07557ZM16.6314 6.27131C16.597 6.27131 16.5599 6.26705 16.5255 6.25883C16.4912 6.25183 16.4568 6.24087 16.4224 6.22716C16.3894 6.21468 16.3578 6.19702 16.3275 6.17784C16.2986 6.15835 16.2698 6.13369 16.245 6.10903C16.2189 6.08285 16.1969 6.05544 16.1763 6.02499C16.1584 5.99607 16.1405 5.96441 16.1268 5.9303C16.1144 5.89712 16.1034 5.86271 16.0951 5.82709C16.0882 5.79268 16.0841 5.75554 16.0841 5.72113C16.0841 5.68551 16.0869 5.64836 16.0951 5.61396C16.1034 5.57955 16.113 5.54515 16.1268 5.51074C16.1405 5.47786 16.1584 5.44619 16.1763 5.41605C16.1969 5.3856 16.2189 5.35668 16.245 5.33202C16.2698 5.30735 16.2986 5.28391 16.3275 5.26473C16.3578 5.24554 16.3894 5.22758 16.4224 5.2151C16.4554 5.2014 16.4898 5.19044 16.5255 5.18343C16.5956 5.16973 16.6685 5.16973 16.7387 5.18343C16.7744 5.19044 16.8074 5.2014 16.8418 5.2151C16.8748 5.22758 16.9064 5.24554 16.9367 5.26473C16.9669 5.28391 16.9958 5.30735 17.0205 5.33202C17.0453 5.3582 17.0687 5.3856 17.0879 5.41605C17.1086 5.44467 17.1251 5.47786 17.1374 5.51074C17.1512 5.54393 17.1622 5.57803 17.1691 5.61396C17.1773 5.64836 17.1801 5.68551 17.1801 5.72113C17.1801 5.75554 17.1773 5.79268 17.1691 5.82709C17.1622 5.86149 17.1512 5.8959 17.1374 5.9303C17.1251 5.96319 17.1072 5.99485 17.0879 6.02499C17.0687 6.05544 17.0439 6.08285 17.0205 6.10903C16.9958 6.13369 16.9669 6.15714 16.9367 6.17784C16.9078 6.1955 16.8748 6.21346 16.8418 6.22716C16.8088 6.24087 16.7744 6.25183 16.7387 6.25883C16.7043 6.26705 16.6672 6.27131 16.6314 6.27131ZM19.8257 6.27131C19.7913 6.27131 19.7542 6.26705 19.7198 6.25883C19.6854 6.25183 19.6511 6.24087 19.6167 6.22716C19.5837 6.21468 19.552 6.19702 19.5218 6.17784C19.4915 6.15835 19.464 6.13521 19.4379 6.10903C19.4132 6.08406 19.3898 6.05544 19.3692 6.02499C19.3513 5.99607 19.3334 5.96441 19.3197 5.9303C19.3073 5.89712 19.2963 5.86271 19.2894 5.82709C19.2812 5.79268 19.2784 5.75554 19.2784 5.72113C19.2784 5.57681 19.3375 5.43645 19.4393 5.33354C19.4654 5.30857 19.4929 5.28513 19.5232 5.26595C19.552 5.24676 19.5837 5.2288 19.6181 5.21662C19.6511 5.20292 19.6854 5.19166 19.7212 5.18496C19.7913 5.17126 19.8642 5.17126 19.9343 5.18496C19.9701 5.19166 20.0031 5.20292 20.0375 5.21662C20.0705 5.2288 20.1021 5.24676 20.1323 5.26595C20.1626 5.28513 20.1901 5.30857 20.2162 5.33354C20.318 5.43645 20.3757 5.57681 20.3757 5.72113C20.3757 5.75554 20.373 5.79268 20.3647 5.82709C20.3578 5.86149 20.3468 5.8959 20.3331 5.9303C20.3207 5.96319 20.3028 5.99485 20.2836 6.02499C20.2643 6.05544 20.241 6.08406 20.2162 6.10903C20.1915 6.13521 20.1626 6.15714 20.1323 6.17784C20.1034 6.1955 20.0705 6.21346 20.0375 6.22716C20.0045 6.24087 19.9701 6.25183 19.9343 6.25883C19.8986 6.26705 19.8628 6.27131 19.8257 6.27131ZM23.0227 6.27131C22.987 6.27131 22.9512 6.26705 22.9155 6.25883C22.8811 6.25183 22.8467 6.24087 22.8123 6.22869C22.7793 6.21468 22.7477 6.19702 22.7175 6.17906C22.6872 6.15988 22.6597 6.13643 22.6336 6.11025C22.6074 6.08558 22.5855 6.05666 22.5648 6.02652C22.5469 5.99759 22.5291 5.96593 22.5153 5.93152C22.5016 5.89864 22.4906 5.86423 22.4837 5.82831C22.4755 5.7939 22.4713 5.75706 22.4713 5.72265C22.4713 5.68673 22.4755 5.64958 22.4837 5.61518C22.4906 5.58077 22.5016 5.54667 22.5153 5.51226C22.5291 5.47908 22.5456 5.44741 22.5648 5.41727C22.5855 5.38713 22.6088 5.3582 22.6336 5.33354C22.6597 5.30857 22.6872 5.28513 22.7175 5.26595C22.7477 5.24676 22.778 5.2288 22.8123 5.21662C22.8453 5.20292 22.8797 5.19166 22.9155 5.18496C22.9856 5.17126 23.0585 5.17126 23.1286 5.18496C23.1644 5.19166 23.1974 5.20292 23.2317 5.21662C23.2647 5.2288 23.2963 5.24676 23.3266 5.26595C23.3569 5.28513 23.3844 5.30857 23.4105 5.33354C23.4352 5.35942 23.4586 5.38713 23.4779 5.41727C23.4985 5.44619 23.515 5.47786 23.5274 5.51226C23.5411 5.54515 23.5521 5.57955 23.559 5.61518C23.5672 5.64958 23.5714 5.68673 23.5714 5.72265C23.5714 5.86545 23.5122 6.00734 23.4105 6.10903C23.3844 6.13521 23.3569 6.15714 23.3266 6.17784C23.2977 6.1955 23.2647 6.21346 23.2317 6.22716C23.1987 6.23965 23.1644 6.25061 23.1286 6.25731C23.0956 6.26705 23.0585 6.27131 23.0227 6.27131ZM26.2184 6.27131C26.184 6.27131 26.1469 6.26705 26.1125 6.25883C26.0781 6.25183 26.0438 6.24087 26.0094 6.22869C25.9764 6.21468 25.9447 6.19702 25.9145 6.17906C25.8842 6.15988 25.8567 6.13521 25.8306 6.11025C25.7289 6.00855 25.6697 5.86697 25.6697 5.72387C25.6697 5.68825 25.6738 5.6511 25.6821 5.6167C25.689 5.58229 25.7 5.54789 25.7137 5.51348C25.7261 5.4806 25.744 5.44893 25.7632 5.41879C25.7825 5.38834 25.8059 5.35942 25.8306 5.33475C25.8567 5.31009 25.8842 5.28665 25.9145 5.26747C25.9434 5.24829 25.975 5.23032 26.0094 5.21784C26.0424 5.20566 26.0768 5.19439 26.1125 5.18617C26.1826 5.17247 26.2555 5.17247 26.3256 5.18617C26.3614 5.19439 26.3944 5.20414 26.4288 5.21784C26.4618 5.23032 26.4934 5.24829 26.5237 5.26747C26.5539 5.28665 26.5814 5.31009 26.6075 5.33475C26.6323 5.36094 26.6557 5.38834 26.6749 5.41879C26.6955 5.44741 26.712 5.4806 26.7258 5.51348C26.7382 5.54667 26.7492 5.58077 26.756 5.6167C26.7643 5.6511 26.767 5.68825 26.767 5.72387C26.767 5.86697 26.7079 6.00855 26.6061 6.11025C26.5814 6.13521 26.5525 6.15835 26.5223 6.17906C26.4934 6.19702 26.4618 6.21468 26.4274 6.22869C26.3944 6.24087 26.36 6.25183 26.3243 6.25883C26.2899 6.26705 26.2541 6.27131 26.2184 6.27131ZM29.4139 6.27131C29.2696 6.27131 29.128 6.21194 29.0263 6.11025C28.9246 6.00855 28.8653 5.86697 28.8653 5.72387C28.8653 5.68825 28.868 5.6511 28.8777 5.6167C28.8848 5.58229 28.8957 5.54789 28.9094 5.51348C28.9219 5.4806 28.9396 5.44893 28.959 5.41879C28.9794 5.38834 29.0017 5.35942 29.0263 5.33475C29.0525 5.31009 29.0799 5.28665 29.1101 5.26747C29.139 5.24829 29.1707 5.23032 29.2051 5.21784C29.2379 5.20414 29.2723 5.19318 29.3083 5.18617C29.3783 5.17247 29.4511 5.17247 29.5214 5.18617C29.557 5.19318 29.5899 5.20414 29.6243 5.21784C29.6575 5.23032 29.6892 5.24829 29.7193 5.26747C29.7495 5.28665 29.7772 5.31009 29.803 5.33475C29.828 5.36094 29.8514 5.38834 29.8706 5.41879C29.8898 5.44741 29.9078 5.4806 29.92 5.51348C29.934 5.54667 29.9449 5.58077 29.9516 5.6167C29.9598 5.6511 29.9641 5.68825 29.9641 5.72387C29.9641 5.86697 29.905 6.00855 29.803 6.11025C29.7784 6.13643 29.7495 6.15835 29.7193 6.17906C29.6904 6.19702 29.6587 6.21468 29.6243 6.22869C29.5914 6.24239 29.557 6.25335 29.5214 6.26005C29.4855 6.26705 29.4483 6.27131 29.4139 6.27131ZM16.6314 9.46553C16.597 9.46553 16.5599 9.46279 16.5255 9.45305C16.4912 9.44635 16.4568 9.43508 16.4224 9.4229C16.3894 9.4092 16.3578 9.39124 16.3275 9.37328C16.2986 9.35409 16.2698 9.33065 16.245 9.30447C16.1433 9.20277 16.0841 9.06119 16.0841 8.91809C16.0841 8.88247 16.0869 8.84532 16.0951 8.81091C16.1034 8.77651 16.113 8.74211 16.1268 8.7077C16.1405 8.67482 16.1584 8.64315 16.1763 8.61301C16.1969 8.58256 16.2189 8.55516 16.245 8.52897C16.2698 8.50431 16.2986 8.48087 16.3275 8.46168C16.3578 8.4425 16.3894 8.42454 16.4224 8.41206C16.4554 8.39835 16.4898 8.38739 16.5255 8.3807C16.5956 8.36669 16.6685 8.36669 16.7387 8.3807C16.7744 8.38739 16.8074 8.39835 16.8418 8.41206C16.8748 8.42454 16.9064 8.4425 16.9367 8.46168C16.9669 8.48087 16.9958 8.50431 17.0205 8.52897C17.0453 8.55516 17.0687 8.58256 17.0879 8.61301C17.1086 8.64193 17.1251 8.67482 17.1374 8.7077C17.1512 8.74089 17.1622 8.77651 17.1691 8.81091C17.1773 8.84532 17.1801 8.88247 17.1801 8.91809C17.1801 8.95249 17.1773 8.98964 17.1691 9.02404C17.1622 9.05845 17.1512 9.09286 17.1374 9.12726C17.1251 9.16015 17.1072 9.19181 17.0879 9.22195C17.0687 9.25088 17.0439 9.2798 17.0205 9.30447C16.9958 9.33065 16.9669 9.35288 16.9367 9.37328C16.9078 9.39246 16.8748 9.4092 16.8418 9.4229C16.8088 9.43508 16.7744 9.44635 16.7387 9.45305C16.7043 9.46279 16.6672 9.46553 16.6314 9.46553ZM19.8257 9.46553C19.7913 9.46553 19.7542 9.46279 19.7198 9.45305C19.6854 9.44635 19.6511 9.43508 19.6167 9.4229C19.5837 9.4092 19.552 9.39124 19.5218 9.37328C19.4915 9.35409 19.464 9.33065 19.4379 9.30447C19.3362 9.20277 19.277 9.06119 19.277 8.91809C19.277 8.88247 19.2798 8.84532 19.288 8.81091C19.2963 8.77651 19.3059 8.74211 19.3183 8.7077C19.332 8.67482 19.3499 8.64315 19.3678 8.61301C19.387 8.58256 19.4118 8.55516 19.4366 8.52897C19.4627 8.50431 19.4902 8.48087 19.5204 8.46168C19.5493 8.4425 19.5809 8.42454 19.6153 8.41206C19.6483 8.39835 19.6827 8.38739 19.7184 8.3807C19.8944 8.34477 20.0842 8.40384 20.2121 8.5305C20.2368 8.55668 20.2602 8.58408 20.2795 8.61423C20.2987 8.64315 20.3166 8.67634 20.329 8.70922C20.3427 8.74211 20.3537 8.77651 20.3606 8.81244C20.3688 8.84684 20.3716 8.88368 20.3716 8.91961C20.3716 9.06271 20.3138 9.20429 20.2121 9.30599C20.1117 9.40768 19.9715 9.46553 19.8257 9.46553ZM23.0227 9.46553C22.987 9.46553 22.9512 9.46279 22.9155 9.45305C22.8811 9.44635 22.8467 9.43508 22.8123 9.4229C22.7793 9.4092 22.7477 9.39124 22.7175 9.37328C22.6872 9.35409 22.6597 9.33065 22.6336 9.30447C22.5318 9.20277 22.4727 9.06119 22.4727 8.91809C22.4727 8.88247 22.4768 8.84532 22.4851 8.81091C22.4919 8.77651 22.503 8.74211 22.5167 8.7077C22.5304 8.67482 22.547 8.64315 22.5662 8.61301C22.5868 8.58256 22.6102 8.55516 22.6349 8.52897C22.6611 8.50431 22.6886 8.48087 22.7188 8.46168C22.7491 8.4425 22.7793 8.42454 22.8137 8.41206C22.8467 8.39835 22.8811 8.38739 22.9169 8.3807C22.987 8.36669 23.0599 8.36669 23.13 8.3807C23.1657 8.38739 23.1987 8.39835 23.2331 8.41206C23.2661 8.42454 23.2977 8.4425 23.328 8.46168C23.3582 8.48087 23.3857 8.50431 23.4119 8.52897C23.5136 8.63219 23.5727 8.77255 23.5727 8.91687C23.5727 8.95128 23.57 8.98842 23.5604 9.02283C23.5535 9.05723 23.5425 9.09134 23.5288 9.12574C23.5164 9.15893 23.4985 9.19059 23.4792 9.22074C23.46 9.24966 23.4366 9.27858 23.4119 9.30325C23.3857 9.32943 23.3582 9.35135 23.328 9.37206C23.2991 9.39124 23.2661 9.40768 23.2331 9.42138C23.2001 9.43386 23.1657 9.44483 23.13 9.45183C23.0956 9.46279 23.0585 9.46553 23.0227 9.46553ZM26.2184 9.46553C26.184 9.46553 26.1469 9.46279 26.1125 9.45305C26.0781 9.44635 26.0438 9.43508 26.0094 9.4229C25.9764 9.4092 25.9447 9.39124 25.9145 9.37328C25.8842 9.35409 25.8567 9.33065 25.8306 9.30447C25.8059 9.27859 25.7825 9.25088 25.7632 9.22074C25.744 9.19181 25.7261 9.16015 25.7137 9.12574C25.7 9.09286 25.689 9.05845 25.6821 9.02283C25.6738 8.98842 25.6697 8.95128 25.6697 8.91687C25.6697 8.88094 25.6738 8.8438 25.6821 8.8097C25.689 8.77529 25.7 8.74089 25.7137 8.70648C25.7261 8.67329 25.744 8.64193 25.7632 8.61149C25.7825 8.58134 25.8059 8.55394 25.8306 8.52776C25.8567 8.50279 25.8842 8.47965 25.9145 8.46016C25.9434 8.44098 25.975 8.42332 26.0094 8.41084C26.0424 8.39836 26.0768 8.38739 26.1125 8.37917C26.1826 8.36547 26.2555 8.36547 26.3256 8.37917C26.3614 8.38739 26.3944 8.39714 26.4288 8.41084C26.4631 8.42454 26.4934 8.44098 26.5237 8.46016C26.5539 8.47965 26.5814 8.50279 26.6075 8.52776C26.6323 8.55394 26.6557 8.58134 26.6749 8.61149C26.6955 8.64041 26.712 8.67329 26.7258 8.70648C26.7382 8.73936 26.7492 8.77377 26.756 8.8097C26.7643 8.8438 26.767 8.88094 26.767 8.91687C26.767 8.95128 26.7643 8.98842 26.756 9.02283C26.7492 9.05723 26.7382 9.09134 26.7258 9.12574C26.712 9.15893 26.6942 9.19059 26.6749 9.22074C26.6557 9.25088 26.6323 9.27859 26.6075 9.30447C26.5828 9.33065 26.5539 9.35288 26.5237 9.37328C26.4948 9.39246 26.4631 9.4092 26.4288 9.4229C26.3958 9.43508 26.3614 9.44635 26.3256 9.45305C26.2899 9.46279 26.2541 9.46553 26.2184 9.46553ZM29.4139 9.46553C29.3783 9.46553 29.3412 9.46279 29.3067 9.45457C29.2723 9.44635 29.2379 9.43661 29.2035 9.4229C29.1707 9.4092 29.139 9.39124 29.1088 9.37328C29.0784 9.35409 29.0498 9.33065 29.0248 9.30447C29.0001 9.27859 28.9767 9.25088 28.9575 9.22074C28.9383 9.19181 28.9204 9.16015 28.9079 9.12574C28.8942 9.09286 28.8832 9.05845 28.8765 9.02283C28.868 8.98842 28.864 8.95128 28.864 8.91687C28.864 8.88094 28.8668 8.8438 28.8765 8.8097C28.8832 8.77529 28.8942 8.74089 28.9079 8.70648C28.9204 8.67329 28.9383 8.64193 28.9575 8.61149C28.9782 8.58134 29.0001 8.55394 29.0248 8.52776C29.051 8.50279 29.0784 8.47965 29.1088 8.46016C29.1378 8.44098 29.1691 8.42332 29.2035 8.41084C29.2379 8.39836 29.2711 8.38739 29.3067 8.37917C29.4843 8.34355 29.6724 8.40262 29.8003 8.52897C29.9023 8.63219 29.9614 8.77255 29.9614 8.91687C29.9614 8.95128 29.9571 8.98842 29.9489 9.02283C29.9422 9.05723 29.9309 9.09134 29.9172 9.12574C29.905 9.15893 29.8871 9.19059 29.8679 9.22074C29.8487 9.25088 29.8253 9.27859 29.8003 9.30447C29.7756 9.33065 29.7467 9.35288 29.7166 9.37328C29.6876 9.39246 29.656 9.4092 29.6216 9.4229C29.5887 9.43508 29.5543 9.44635 29.5187 9.45457C29.4855 9.46279 29.4483 9.46553 29.4139 9.46553ZM16.6314 12.6625C16.487 12.6625 16.3468 12.6034 16.245 12.5017C16.2189 12.4768 16.1969 12.4481 16.1763 12.4192C16.1584 12.3888 16.1405 12.3571 16.1268 12.3242C16.1144 12.2913 16.1034 12.2569 16.0951 12.221C16.0882 12.1866 16.0841 12.1498 16.0841 12.1154C16.0841 11.9707 16.1433 11.8307 16.245 11.7275C16.3729 11.6011 16.5613 11.5417 16.7387 11.5777C16.7744 11.5844 16.8074 11.5953 16.8418 11.6093C16.8748 11.6215 16.9064 11.6395 16.9367 11.6586C16.9669 11.6778 16.9958 11.7013 17.0205 11.7262C17.1223 11.8291 17.1801 11.9695 17.1801 12.1138C17.1801 12.1482 17.1773 12.1854 17.1691 12.2198C17.1622 12.2542 17.1512 12.2886 17.1374 12.323C17.1251 12.3559 17.1072 12.3876 17.0879 12.4177C17.0687 12.4466 17.0439 12.4768 17.0205 12.5002C16.9958 12.5264 16.9669 12.5483 16.9367 12.569C16.9064 12.5897 16.8748 12.6046 16.8418 12.6186C16.8088 12.6308 16.773 12.6418 16.7387 12.65C16.7043 12.6585 16.6672 12.6625 16.6314 12.6625ZM19.8257 12.6625C19.7913 12.6625 19.7542 12.6585 19.7198 12.65C19.6854 12.6433 19.6511 12.6323 19.6167 12.6199C19.5837 12.6062 19.552 12.5897 19.5218 12.5702C19.4915 12.5511 19.464 12.5276 19.4379 12.5017C19.3362 12.3997 19.277 12.2581 19.277 12.1154C19.277 12.0794 19.2798 12.0423 19.288 12.0079C19.2963 11.9735 19.3059 11.9394 19.3183 11.9062C19.332 11.8733 19.3499 11.8401 19.3678 11.8115C19.387 11.781 19.4118 11.7521 19.4366 11.7275C19.4627 11.7028 19.4902 11.6793 19.5204 11.6602C19.5493 11.641 19.5809 11.623 19.6153 11.6105C19.6483 11.5984 19.6827 11.5871 19.7184 11.5789C19.7886 11.5652 19.8614 11.5652 19.9316 11.5789C19.9673 11.5871 20.0003 11.5968 20.0347 11.6105C20.0677 11.623 20.0993 11.641 20.1296 11.6602C20.1598 11.6793 20.1873 11.7028 20.2134 11.7275C20.2382 11.7536 20.2616 11.781 20.2808 11.8115C20.3001 11.8401 20.318 11.8733 20.3303 11.9062C20.3441 11.9394 20.3551 11.9735 20.362 12.0079C20.3702 12.0423 20.373 12.0794 20.373 12.1154C20.373 12.2581 20.3152 12.3997 20.2134 12.5017C20.1887 12.5276 20.1598 12.5498 20.1296 12.5702C20.1007 12.5897 20.0677 12.6062 20.0347 12.6199C20.0017 12.6323 19.9673 12.6433 19.9316 12.65C19.8986 12.6585 19.8628 12.6625 19.8257 12.6625ZM23.0227 12.6625C22.987 12.6625 22.9512 12.6585 22.9155 12.6515C22.8811 12.6433 22.8467 12.6336 22.8123 12.6199C22.7793 12.6062 22.7477 12.5882 22.7175 12.5702C22.6872 12.5511 22.6597 12.5276 22.6336 12.5017C22.6074 12.4768 22.5855 12.4481 22.5648 12.4192C22.5469 12.3888 22.5291 12.3571 22.5153 12.3242C22.5016 12.2913 22.4906 12.2569 22.4837 12.221C22.4755 12.1866 22.4713 12.1498 22.4713 12.1154C22.4713 12.0794 22.4755 12.0423 22.4837 12.0079C22.4906 11.9735 22.5016 11.9394 22.5153 11.9062C22.5291 11.8733 22.5456 11.8401 22.5648 11.8115C22.5855 11.7826 22.6088 11.7521 22.6336 11.729C22.6597 11.7028 22.6872 11.6806 22.7175 11.6602C22.7477 11.641 22.778 11.623 22.8123 11.6105C22.8467 11.5984 22.8797 11.5859 22.9155 11.5789C23.0928 11.5433 23.2826 11.6023 23.4091 11.7302C23.5109 11.8319 23.57 11.9735 23.57 12.1166C23.57 12.2597 23.5109 12.4013 23.4091 12.5029C23.383 12.5291 23.3555 12.5511 23.3252 12.5718C23.2963 12.5909 23.2634 12.6074 23.2304 12.6214C23.1974 12.6336 23.163 12.6445 23.1272 12.6527C23.0956 12.6585 23.0585 12.6625 23.0227 12.6625ZM26.2184 12.6625C26.184 12.6625 26.1469 12.6585 26.1125 12.6515C26.0781 12.6433 26.0438 12.6336 26.0094 12.6199C25.9764 12.6062 25.9447 12.5897 25.9145 12.5702C25.8842 12.5511 25.8567 12.5276 25.8306 12.5017C25.8059 12.4768 25.7825 12.4481 25.7632 12.4192C25.744 12.3888 25.7261 12.3571 25.7137 12.3242C25.7 12.2913 25.689 12.2569 25.6821 12.221C25.6738 12.1866 25.6697 12.1498 25.6697 12.1154C25.6697 11.9707 25.7289 11.8307 25.8306 11.729C25.9585 11.6023 26.1469 11.5417 26.3243 11.5777C26.36 11.5844 26.393 11.5953 26.4274 11.6093C26.4604 11.6215 26.492 11.6395 26.5223 11.6586C26.5525 11.6778 26.58 11.7013 26.6061 11.7275C26.7079 11.8291 26.767 11.9707 26.767 12.1138C26.767 12.1482 26.7643 12.1854 26.756 12.2198C26.7492 12.2542 26.7382 12.2886 26.7258 12.323C26.712 12.3559 26.6942 12.3876 26.6749 12.4177C26.6557 12.4466 26.6323 12.4768 26.6075 12.5002C26.5828 12.5264 26.5539 12.5483 26.5237 12.569C26.4948 12.5882 26.4631 12.6046 26.4288 12.6186C26.3958 12.6308 26.3614 12.6418 26.3256 12.65C26.2899 12.6585 26.2541 12.6625 26.2184 12.6625ZM29.4139 12.6625C29.2696 12.6625 29.128 12.6034 29.0263 12.5017C28.9246 12.3997 28.8653 12.2581 28.8653 12.1154C28.8653 12.0794 28.868 12.0438 28.8777 12.0079C28.8848 11.9735 28.8957 11.9394 28.9094 11.9062C28.9219 11.8733 28.9396 11.8401 28.959 11.8115C28.9794 11.7826 29.0017 11.7521 29.0263 11.7275C29.0525 11.7028 29.0799 11.6793 29.1101 11.6602C29.139 11.641 29.1707 11.623 29.2051 11.6105C29.2395 11.5984 29.2723 11.5859 29.3083 11.5789C29.4855 11.5433 29.6739 11.6023 29.8018 11.729C29.8265 11.7549 29.8499 11.7826 29.8691 11.8127C29.8883 11.8416 29.9063 11.8745 29.9187 11.9077C29.9324 11.9406 29.9434 11.975 29.9504 12.0094C29.9586 12.045 29.9626 12.0809 29.9626 12.1166C29.9626 12.1525 29.9586 12.1881 29.9504 12.2237C29.9434 12.2582 29.9324 12.2926 29.9187 12.3257C29.9063 12.3586 29.8883 12.3903 29.8691 12.4204C29.8499 12.4494 29.8265 12.4795 29.8018 12.5029C29.7772 12.5291 29.7482 12.5511 29.7178 12.5718C29.6892 12.5909 29.6575 12.6074 29.6231 12.6214C29.5899 12.6336 29.5558 12.6445 29.5199 12.6527C29.4855 12.6585 29.4483 12.6625 29.4139 12.6625ZM16.6314 15.8582C16.597 15.8582 16.5599 15.8555 16.5255 15.8473C16.4912 15.839 16.4568 15.8293 16.4224 15.8156C16.3894 15.8019 16.3578 15.7852 16.3275 15.766C16.2986 15.7468 16.2698 15.7233 16.245 15.6972C16.2189 15.6725 16.1969 15.6436 16.1763 15.6147C16.1584 15.5845 16.1405 15.5528 16.1268 15.52C16.1144 15.4868 16.1034 15.4527 16.0951 15.4167C16.0882 15.3823 16.0841 15.3452 16.0841 15.3108C16.0841 15.1665 16.1433 15.0261 16.245 14.9244C16.3729 14.7965 16.5613 14.7375 16.7387 14.7734C16.7744 14.7816 16.8074 14.7911 16.8418 14.8048C16.8748 14.8188 16.9064 14.8352 16.9367 14.8544C16.9669 14.8736 16.9958 14.897 17.0205 14.9232C17.1223 15.0249 17.1801 15.1665 17.1801 15.3096C17.1801 15.344 17.1773 15.3811 17.1691 15.4155C17.1622 15.4496 17.1512 15.484 17.1374 15.5184C17.1251 15.5516 17.1072 15.5833 17.0879 15.6134C17.0687 15.6424 17.0439 15.6725 17.0205 15.6959C16.9958 15.7221 16.9669 15.7441 16.9367 15.7648C16.9078 15.7839 16.8748 15.8004 16.8418 15.8141C16.8088 15.8266 16.7744 15.8375 16.7387 15.8457C16.7043 15.8527 16.6672 15.8582 16.6314 15.8582ZM19.8257 15.8582C19.7913 15.8582 19.7542 15.8555 19.7198 15.8457C19.6854 15.839 19.6511 15.8278 19.6167 15.8156C19.5837 15.8019 19.552 15.7852 19.5218 15.766C19.4915 15.7468 19.464 15.7233 19.4379 15.6972C19.4132 15.6725 19.3898 15.6436 19.3692 15.6147C19.3513 15.5845 19.3334 15.5528 19.3197 15.52C19.3073 15.4868 19.2963 15.4527 19.2894 15.4167C19.2812 15.3823 19.2784 15.3452 19.2784 15.3108C19.2784 15.1665 19.3375 15.0261 19.4393 14.9244C19.4654 14.8982 19.4929 14.8763 19.5232 14.8556C19.552 14.8364 19.5837 14.8188 19.6181 14.8063C19.6511 14.7938 19.6854 14.7828 19.7212 14.7746C19.7913 14.7609 19.8642 14.7609 19.9343 14.7746C19.9701 14.7828 20.0031 14.7926 20.0375 14.8063C20.0705 14.8188 20.1021 14.8364 20.1323 14.8556C20.1626 14.8751 20.1901 14.8982 20.2162 14.9244C20.318 15.0261 20.3757 15.168 20.3757 15.3108C20.3757 15.3452 20.373 15.3823 20.3647 15.4167C20.3578 15.4512 20.3468 15.4856 20.3331 15.52C20.3207 15.5528 20.3028 15.5845 20.2836 15.6147C20.2643 15.6436 20.241 15.674 20.2162 15.6972C20.1915 15.7233 20.1626 15.7453 20.1323 15.766C20.1034 15.7852 20.0705 15.8019 20.0375 15.8156C20.0045 15.8278 19.9701 15.839 19.9343 15.8457C19.8986 15.8527 19.8628 15.8582 19.8257 15.8582ZM26.2184 15.8582C26.184 15.8582 26.1469 15.8555 26.1125 15.8473C26.0781 15.839 26.0438 15.8293 26.0094 15.8156C25.9764 15.8019 25.9447 15.7852 25.9145 15.766C25.8842 15.7468 25.8567 15.7233 25.8306 15.6972C25.7289 15.5955 25.6697 15.4539 25.6697 15.3108C25.6697 15.2752 25.6738 15.2395 25.6821 15.2036C25.689 15.1692 25.7 15.1348 25.7137 15.1019C25.7261 15.0687 25.744 15.0374 25.7632 15.0069C25.7825 14.978 25.8059 14.9494 25.8306 14.9244C25.9585 14.7965 26.1469 14.7375 26.3243 14.7734C26.36 14.7801 26.393 14.7911 26.4274 14.8048C26.4604 14.8172 26.492 14.8352 26.5223 14.8544C26.5525 14.8736 26.58 14.897 26.6061 14.9232C26.6309 14.9479 26.6543 14.9768 26.6735 15.0057C26.6942 15.0346 26.7107 15.0675 26.7244 15.1004C26.7368 15.1336 26.7478 15.168 26.7547 15.2024C26.7629 15.238 26.7657 15.2736 26.7657 15.3096C26.7657 15.4539 26.7065 15.5943 26.6048 15.6959C26.58 15.7221 26.5512 15.7441 26.5209 15.7648C26.492 15.7839 26.4604 15.8004 26.426 15.8141C26.393 15.8266 26.3586 15.8375 26.3229 15.8457C26.2899 15.8527 26.2541 15.8582 26.2184 15.8582ZM29.4139 15.8582C29.2696 15.8582 29.128 15.7992 29.0263 15.6972C29.0017 15.6725 28.9782 15.6436 28.959 15.6147C28.9396 15.5845 28.9219 15.5528 28.9094 15.52C28.8957 15.4868 28.8848 15.4527 28.8777 15.4183C28.8695 15.3823 28.8653 15.3467 28.8653 15.3108C28.8653 15.2752 28.868 15.2395 28.8777 15.2036C28.8848 15.1692 28.8957 15.1348 28.9094 15.1019C28.9219 15.0687 28.9396 15.0374 28.959 15.0069C28.9794 14.978 29.0017 14.9494 29.0263 14.9244C29.0525 14.8982 29.0799 14.8763 29.1101 14.8556C29.139 14.8364 29.1707 14.8188 29.2051 14.8063C29.2395 14.7938 29.2723 14.7828 29.3083 14.7746C29.4855 14.739 29.6739 14.7981 29.8018 14.9259C29.8265 14.9506 29.8499 14.9795 29.8691 15.0084C29.8883 15.0374 29.9063 15.0703 29.9187 15.1031C29.9324 15.1363 29.9434 15.1707 29.9504 15.2051C29.9586 15.2408 29.9626 15.2764 29.9626 15.3123C29.9626 15.3479 29.9586 15.3839 29.9504 15.4195C29.9434 15.4539 29.9324 15.4883 29.9187 15.5212C29.9063 15.5544 29.8883 15.586 29.8691 15.6162C29.8499 15.6451 29.8265 15.6752 29.8018 15.6987C29.7772 15.7249 29.7482 15.7468 29.7178 15.7675C29.6892 15.7867 29.6575 15.8031 29.6231 15.8168C29.5899 15.8293 29.5558 15.8403 29.5199 15.8485C29.4855 15.8527 29.4483 15.8582 29.4139 15.8582ZM14.8672 8.14808L14.8672 17.8452H31.1768L31.1768 8.14808C31.1768 3.65163 27.5177 -0.00599098 23.0213 -0.00599098C18.5262 -0.00599098 14.8672 3.65163 14.8672 8.14808ZM23.57 15.3108C23.57 15.4554 23.5109 15.5955 23.4091 15.6972C23.383 15.7233 23.3555 15.7453 23.3252 15.766C23.2963 15.7852 23.2634 15.8019 23.2304 15.8156C23.1974 15.8278 23.163 15.839 23.1272 15.8473C23.0928 15.854 23.0557 15.8582 23.02 15.8582C22.9842 15.8582 22.9485 15.8555 22.9127 15.8473C22.8783 15.839 22.844 15.8293 22.8096 15.8156C22.7766 15.8019 22.7449 15.7852 22.7147 15.766C22.6845 15.7468 22.657 15.7233 22.6308 15.6972C22.6047 15.6725 22.5827 15.6436 22.5621 15.6147C22.5442 15.5845 22.5263 15.5528 22.5126 15.52C22.4988 15.4868 22.4878 15.4527 22.4809 15.4183C22.4727 15.3823 22.4686 15.3467 22.4686 15.3108C22.4686 15.1665 22.5277 15.0261 22.6295 14.9232C22.6556 14.8982 22.6831 14.8751 22.7133 14.8556C22.7436 14.8364 22.7738 14.8188 22.8082 14.8063C22.8426 14.7938 22.8756 14.7828 22.9113 14.7746C22.9815 14.7609 23.0544 14.7609 23.1245 14.7746C23.1602 14.7828 23.1932 14.7926 23.2276 14.8063C23.2606 14.8188 23.2922 14.8364 23.3225 14.8556C23.3527 14.8751 23.3802 14.8982 23.4064 14.9232C23.4311 14.9494 23.4545 14.9768 23.4737 15.0069C23.4944 15.0358 23.5109 15.0687 23.5232 15.1019C23.537 15.1348 23.548 15.1692 23.5549 15.2036C23.5659 15.2395 23.57 15.2752 23.57 15.3108Z" fill="white"/>
<path d="M68.5159 16.3096C68.3769 15.0755 67.8033 14.1195 66.7951 13.4416C65.787 12.755 64.5181 12.4117 62.9885 12.4117C61.8934 12.4117 60.9461 12.5855 60.1465 12.9331C59.3469 13.2721 58.7255 13.7414 58.2823 14.3411C57.8478 14.9321 57.6305 15.6056 57.6305 16.3617C57.6305 16.9962 57.7782 17.5437 58.0737 18.0043C58.3779 18.4649 58.7733 18.8517 59.26 19.1646C59.7554 19.4687 60.2856 19.7251 60.8505 19.9337C61.4154 20.1336 61.9586 20.2987 62.48 20.4291L65.0873 21.107C65.9391 21.3156 66.8125 21.598 67.7077 21.9544C68.6028 22.3107 69.4328 22.78 70.1976 23.3623C70.9624 23.9446 71.5795 24.6659 72.0488 25.5264C72.5268 26.3868 72.7658 27.4166 72.7658 28.616C72.7658 30.1282 72.3747 31.471 71.5925 32.6443C70.819 33.8175 69.6936 34.7431 68.2161 35.421C66.7473 36.0989 64.97 36.4379 62.8842 36.4379C60.8852 36.4379 59.1557 36.1206 57.6957 35.4862C56.2356 34.8518 55.0927 33.9523 54.2671 32.7877C53.4414 31.6144 52.9852 30.2238 52.8982 28.616H56.9395C57.0178 29.5807 57.3306 30.3846 57.8782 31.0277C58.4344 31.6622 59.1427 32.1358 60.0031 32.4487C60.8722 32.7529 61.8239 32.905 62.8581 32.905C63.9966 32.905 65.0091 32.7268 65.8956 32.3705C66.7908 32.0055 67.4947 31.5014 68.0075 30.8583C68.5203 30.2064 68.7767 29.446 68.7767 28.5769C68.7767 27.786 68.5507 27.1385 68.0988 26.6345C67.6555 26.1304 67.0515 25.7132 66.2867 25.383C65.5306 25.0527 64.6745 24.7615 63.7185 24.5095L60.5637 23.6491C58.4257 23.0668 56.731 22.2107 55.4795 21.0809C54.2367 19.9511 53.6153 18.4562 53.6153 16.5964C53.6153 15.0581 54.0324 13.7153 54.8668 12.5681C55.7011 11.4209 56.8309 10.5301 58.2562 9.89564C59.6816 9.25251 61.2894 8.93094 63.0797 8.93094C64.8874 8.93094 66.4822 9.24816 67.8641 9.8826C69.2547 10.517 70.3497 11.3905 71.1493 12.5029C71.9489 13.6067 72.366 14.8756 72.4008 16.3096H68.5159ZM88.4827 27.6904V15.9706H92.3936V35.9946H88.5609V32.5269H88.3523C87.8917 33.5959 87.153 34.4867 86.1361 35.1994C85.128 35.9034 83.8721 36.2554 82.3686 36.2554C81.0823 36.2554 79.9438 35.9729 78.953 35.408C77.971 34.8344 77.1975 33.987 76.6326 32.8659C76.0763 31.7447 75.7982 30.3585 75.7982 28.7072V15.9706H79.6961V28.2379C79.6961 29.6024 80.0742 30.6888 80.8303 31.4971C81.5864 32.3053 82.5685 32.7094 83.7765 32.7094C84.5066 32.7094 85.2323 32.5269 85.9536 32.1619C86.6837 31.7969 87.2877 31.245 87.7657 30.5063C88.2524 29.7675 88.4914 28.8289 88.4827 27.6904ZM96.1626 35.9946V15.9706H99.9041V19.2297H100.152C100.569 18.126 101.251 17.2656 102.198 16.6485C103.146 16.0228 104.28 15.7099 105.601 15.7099C106.939 15.7099 108.061 16.0228 108.964 16.6485C109.877 17.2743 110.551 18.1347 110.985 19.2297H111.194C111.672 18.1608 112.432 17.309 113.475 16.6746C114.518 16.0315 115.761 15.7099 117.203 15.7099C119.02 15.7099 120.502 16.2792 121.649 17.4177C122.805 18.5562 123.383 20.2727 123.383 22.5671V35.9946H119.485V22.9321C119.485 21.5763 119.115 20.5942 118.377 19.9859C117.638 19.3775 116.756 19.0733 115.73 19.0733C114.461 19.0733 113.475 19.4644 112.771 20.2466C112.067 21.0201 111.715 22.0152 111.715 23.2319V35.9946H107.83V22.6844C107.83 21.598 107.491 20.7246 106.813 20.0641C106.135 19.4036 105.253 19.0733 104.167 19.0733C103.428 19.0733 102.746 19.2689 102.12 19.6599C101.503 20.0423 101.003 20.5768 100.621 21.2634C100.247 21.95 100.061 22.7452 100.061 23.6491V35.9946H96.1626ZM127.139 35.9946V15.9706H130.88V19.2297H131.128C131.545 18.126 132.227 17.2656 133.175 16.6485C134.122 16.0228 135.256 15.7099 136.577 15.7099C137.915 15.7099 139.037 16.0228 139.94 16.6485C140.853 17.2743 141.527 18.1347 141.961 19.2297H142.17C142.648 18.1608 143.408 17.309 144.451 16.6746C145.494 16.0315 146.737 15.7099 148.18 15.7099C149.996 15.7099 151.478 16.2792 152.625 17.4177C153.781 18.5562 154.359 20.2727 154.359 22.5671V35.9946H150.461V22.9321C150.461 21.5763 150.092 20.5942 149.353 19.9859C148.614 19.3775 147.732 19.0733 146.706 19.0733C145.438 19.0733 144.451 19.4644 143.747 20.2466C143.043 21.0201 142.691 22.0152 142.691 23.2319V35.9946H138.806V22.6844C138.806 21.598 138.467 20.7246 137.789 20.0641C137.112 19.4036 136.229 19.0733 135.143 19.0733C134.404 19.0733 133.722 19.2689 133.096 19.6599C132.479 20.0423 131.98 20.5768 131.597 21.2634C131.223 21.95 131.037 22.7452 131.037 23.6491V35.9946H127.139ZM163.942 36.4379C162.673 36.4379 161.526 36.2032 160.5 35.7339C159.475 35.2559 158.662 34.565 158.063 33.6611C157.472 32.7572 157.176 31.6491 157.176 30.3368C157.176 29.207 157.393 28.277 157.828 27.547C158.262 26.817 158.849 26.239 159.588 25.8132C160.327 25.3873 161.152 25.0657 162.065 24.8485C162.977 24.6312 163.907 24.4661 164.855 24.3531C166.054 24.214 167.027 24.101 167.775 24.0141C168.522 23.9185 169.065 23.7664 169.404 23.5578C169.743 23.3493 169.913 23.0103 169.913 22.541V22.4497C169.913 21.3112 169.591 20.4291 168.948 19.8033C168.314 19.1776 167.366 18.8647 166.106 18.8647C164.794 18.8647 163.76 19.1559 163.003 19.7382C162.256 20.3118 161.739 20.9506 161.452 21.6545L157.789 20.8202C158.223 19.6035 158.858 18.6214 159.692 17.874C160.535 17.1178 161.504 16.5703 162.599 16.2314C163.694 15.8837 164.846 15.7099 166.054 15.7099C166.853 15.7099 167.701 15.8055 168.596 15.9967C169.5 16.1792 170.343 16.5182 171.125 17.0135C171.916 17.5089 172.563 18.2172 173.068 19.1385C173.572 20.051 173.824 21.2374 173.824 22.6974V35.9946H170.017V33.257H169.861C169.609 33.761 169.23 34.2564 168.726 34.7431C168.222 35.2298 167.575 35.634 166.784 35.9555C165.993 36.2771 165.046 36.4379 163.942 36.4379ZM164.789 33.3091C165.867 33.3091 166.788 33.0962 167.553 32.6703C168.327 32.2445 168.913 31.6883 169.313 31.0017C169.722 30.3064 169.926 29.5633 169.926 28.7724V26.1912C169.787 26.3303 169.517 26.4606 169.117 26.5823C168.726 26.6953 168.279 26.7952 167.775 26.8821C167.271 26.9604 166.78 27.0342 166.302 27.1038C165.824 27.1646 165.424 27.2167 165.102 27.2602C164.346 27.3558 163.655 27.5166 163.029 27.7426C162.412 27.9685 161.917 28.2944 161.543 28.7203C161.178 29.1375 160.996 29.6937 160.996 30.389C160.996 31.3536 161.352 32.0837 162.065 32.5791C162.777 33.0658 163.686 33.3091 164.789 33.3091ZM177.547 35.9946V15.9706H181.315V19.1515H181.523C181.888 18.0738 182.531 17.2265 183.453 16.6094C184.382 15.9837 185.434 15.6708 186.607 15.6708C186.851 15.6708 187.137 15.6795 187.468 15.6969C187.807 15.7142 188.072 15.736 188.263 15.762V19.4905C188.107 19.447 187.828 19.3992 187.429 19.3471C187.029 19.2862 186.629 19.2558 186.229 19.2558C185.308 19.2558 184.487 19.4514 183.765 19.8425C183.053 20.2249 182.488 20.7594 182.071 21.4459C181.653 22.1238 181.445 22.8973 181.445 23.7664V35.9946H177.547ZM190.168 35.9946V15.9706H194.066V35.9946H190.168ZM192.136 12.881C191.458 12.881 190.876 12.655 190.389 12.2031C189.911 11.7425 189.672 11.1949 189.672 10.5605C189.672 9.91737 189.911 9.36983 190.389 8.9179C190.876 8.45728 191.458 8.22697 192.136 8.22697C192.814 8.22697 193.392 8.45728 193.87 8.9179C194.357 9.36983 194.6 9.91737 194.6 10.5605C194.6 11.1949 194.357 11.7425 193.87 12.2031C193.392 12.655 192.814 12.881 192.136 12.881ZM197.424 35.9946V33.3222L208.27 19.5426V19.3601H197.776V15.9706H213.133V18.8126L202.704 32.4226V32.6051H213.498V35.9946H197.424ZM224.685 36.3988C222.712 36.3988 221.013 35.9772 219.587 35.1342C218.171 34.2825 217.076 33.0875 216.302 31.5492C215.537 30.0022 215.155 28.1901 215.155 26.113C215.155 24.0619 215.537 22.2542 216.302 20.6898C217.076 19.1255 218.153 17.9044 219.535 17.0266C220.926 16.1488 222.551 15.7099 224.411 15.7099C225.541 15.7099 226.636 15.8968 227.696 16.2705C228.756 16.6442 229.708 17.2308 230.551 18.0304C231.394 18.83 232.059 19.8685 232.546 21.1461C233.032 22.415 233.276 23.9576 233.276 25.774V27.1559H217.358V24.2357H229.456C229.456 23.2102 229.247 22.302 228.83 21.5111C228.413 20.7116 227.826 20.0815 227.07 19.6208C226.323 19.1602 225.445 18.9299 224.437 18.9299C223.342 18.9299 222.386 19.1993 221.569 19.7382C220.761 20.2683 220.135 20.9636 219.692 21.824C219.257 22.6757 219.04 23.6013 219.04 24.6008V26.8821C219.04 28.2206 219.274 29.3591 219.744 30.2977C220.222 31.2363 220.887 31.9533 221.738 32.4487C222.59 32.9354 223.585 33.1788 224.724 33.1788C225.462 33.1788 226.136 33.0745 226.744 32.8659C227.353 32.6486 227.879 32.327 228.322 31.9012C228.765 31.4753 229.104 30.9495 229.339 30.3238L233.028 30.9886C232.732 32.075 232.202 33.0267 231.437 33.8436C230.681 34.6519 229.73 35.282 228.583 35.7339C227.444 36.1771 226.145 36.3988 224.685 36.3988ZM239.248 9.29596L245.636 19.7382H245.844L252.232 9.29596H256.899L248.582 22.6453L256.951 35.9946H252.258L245.844 25.6958H245.636L239.222 35.9946H234.529L243.041 22.6453L234.581 9.29596H239.248Z" fill="white"/>
</svg>
