<svg width="27" height="32" viewBox="0 0 27 32" fill="none" xmlns="http://www.w3.org/2000/svg">
<path d="M22.0648 17.0131C22.0966 14.5434 23.4229 12.2064 25.5271 10.9128C24.1997 9.01707 21.9763 7.8151 19.6632 7.74273C17.196 7.48377 14.8042 9.21905 13.5469 9.21905C12.2654 9.21905 10.3297 7.76844 8.24525 7.81133C5.52829 7.89911 2.9954 9.44382 1.67354 11.8192C-1.16793 16.7387 0.95155 23.9689 3.67344 27.9455C5.03527 29.8927 6.62685 32.0678 8.70939 31.9907C10.7473 31.9061 11.5084 30.6912 13.9683 30.6912C16.4054 30.6912 17.1195 31.9907 19.2443 31.9416C21.4311 31.9061 22.8088 29.9857 24.1229 28.0201C25.1013 26.6326 25.8543 25.0991 26.3538 23.4765C23.7839 22.3896 22.0678 19.8034 22.0648 17.0131Z" fill="white"/>
<path d="M18.0513 5.12752C19.2436 3.69619 19.831 1.85646 19.6888 -0.000976562C17.8672 0.190346 16.1846 1.06095 14.9762 2.43736C13.7945 3.78218 13.1795 5.58954 13.2958 7.37598C15.118 7.39475 16.9095 6.54775 18.0513 5.12752Z" fill="white"/>
</svg>
