       <svg width="34" height="34" viewBox="0 0 34 34" fill="none" xmlns="http://www.w3.org/2000/svg">
<rect y="0.00585938" width="34" height="34" rx="17" fill="white" fill-opacity="0.13"/>
<rect x="0.482954" y="0.488814" width="33.0341" height="33.0341" rx="16.517" stroke="#3F7EF8" stroke-opacity="0.25" stroke-width="0.965909"/>
<path d="M15.2617 17.0043C15.2617 17.9628 16.0418 18.7429 17.0004 18.7429C17.9589 18.7429 18.739 17.9628 18.739 17.0043C18.739 16.0457 17.9589 15.2656 17.0004 15.2656C16.0418 15.2656 15.2617 16.0457 15.2617 17.0043Z" fill="#1F2937"/>
<path d="M15.2617 22.8002C15.2617 23.7587 16.0418 24.5388 17.0004 24.5388C17.9589 24.5388 18.739 23.7587 18.739 22.8002C18.739 21.8416 17.9589 21.0615 17.0004 21.0615C16.0418 21.0615 15.2617 21.8416 15.2617 22.8002Z" fill="#1F2937"/>
<path d="M15.2617 11.2079C15.2617 12.1664 16.0418 12.9465 17.0004 12.9465C17.9589 12.9465 18.739 12.1664 18.739 11.2079C18.739 10.2493 17.9589 9.46924 17.0004 9.46924C16.0418 9.46924 15.2617 10.2493 15.2617 11.2079Z" fill="#1F2937"/>
</svg>