<svg width="24" height="24" viewBox="0 0 24 24" fill="none" xmlns="http://www.w3.org/2000/svg">
<path d="M19.5088 14.4082C19.9914 16.8131 21.7476 18.6916 23.9951 19.208C21.7477 19.7244 19.9914 21.603 19.5088 24.0078C19.0261 21.603 17.2708 19.7244 15.0234 19.208C17.2709 18.6916 19.0262 16.813 19.5088 14.4082ZM9.49805 0.248047C10.5202 5.34157 14.2389 9.32029 18.999 10.4141C14.239 11.5078 10.5203 15.4867 9.49805 20.5801C8.47579 15.4867 4.75715 11.5078 -0.00292969 10.4141C4.75721 9.32028 8.47587 5.34158 9.49805 0.248047ZM20.6328 0.0078125C20.9948 1.81143 22.3115 3.22011 23.9971 3.60742C22.3115 3.99474 20.9948 5.40434 20.6328 7.20801C20.2709 5.40449 18.954 3.99487 17.2686 3.60742C18.9539 3.21993 20.2709 1.81129 20.6328 0.0078125Z" fill="#3F7EF8"/>
</svg>
