<svg width="16" height="10" viewBox="0 0 16 10" fill="none" xmlns="http://www.w3.org/2000/svg">
<path d="M14.4362 0.771605C14.5006 0.702789 14.577 0.648202 14.6611 0.610958C14.7451 0.573715 14.8353 0.554544 14.9263 0.554544C15.0173 0.554544 15.1074 0.573715 15.1915 0.610958C15.2756 0.648202 15.352 0.702789 15.4163 0.771605C15.4807 0.840422 15.5317 0.92212 15.5665 1.01203C15.6014 1.10195 15.6193 1.19832 15.6193 1.29564C15.6193 1.39296 15.6014 1.48933 15.5665 1.57924C15.5317 1.66916 15.4807 1.75085 15.4163 1.81967L8.49003 9.22648C8.42571 9.29534 8.34932 9.34997 8.26523 9.38725C8.18115 9.42452 8.09102 9.44371 8 9.44371C7.90898 9.44371 7.81885 9.42452 7.73476 9.38725C7.65068 9.34997 7.57429 9.29534 7.50996 9.22648L0.583694 1.81967C0.45373 1.68069 0.380715 1.49219 0.380715 1.29564C0.380715 1.09909 0.45373 0.910587 0.583694 0.771605C0.713659 0.632624 0.889931 0.554544 1.07373 0.554544C1.25753 0.554544 1.4338 0.632624 1.56376 0.771605L8 7.65531L14.4362 0.771605Z" fill="#4B5563" fill-opacity="0.46"/>
<path d="M1.07373 0.554544C0.936047 0.554544 0.802439 0.598149 0.689505 0.678556L0.583694 0.771605C0.45373 0.910587 0.380715 1.09909 0.380715 1.29564C0.380715 1.49219 0.45373 1.68069 0.583694 1.81967L7.50996 9.22648L7.61556 9.31846C7.65303 9.34522 7.69295 9.36868 7.73476 9.38725L7.86483 9.43007C7.90919 9.4395 7.95455 9.44371 8 9.44371L8.13517 9.43007C8.17965 9.42061 8.22314 9.40591 8.26523 9.38725C8.34932 9.34997 8.42571 9.29534 8.49003 9.22648L15.4163 1.81967C15.4807 1.75085 15.5317 1.66916 15.5665 1.57924C15.6014 1.48933 15.6193 1.39296 15.6193 1.29564C15.6193 1.19832 15.6014 1.10195 15.5665 1.01203C15.5492 0.967284 15.5277 0.924519 15.5027 0.884416L15.4163 0.771605C15.3843 0.737427 15.3491 0.706565 15.3117 0.679796L15.1915 0.610958C15.1074 0.573715 15.0173 0.554544 14.9263 0.554544C14.8808 0.554559 14.8352 0.558744 14.7909 0.568186L14.6611 0.610958C14.6191 0.629559 14.5792 0.652937 14.5416 0.679796L14.4362 0.771605L8 7.65531L1.56376 0.771605C1.46621 0.66729 1.34244 0.597856 1.20911 0.569426L1.07373 0.554544ZM1.07394 0.173828C1.36709 0.173889 1.64252 0.298463 1.84157 0.51114L8 7.09865L14.1584 0.51114C14.2568 0.406043 14.375 0.321548 14.5069 0.263117C14.639 0.204613 14.7814 0.173858 14.9261 0.173828C15.0707 0.173828 15.2132 0.204665 15.3452 0.263117C15.4773 0.321616 15.5965 0.405857 15.6949 0.51114C15.7933 0.61636 15.8699 0.740274 15.9219 0.874495C15.9738 1.00868 16 1.15223 16 1.29613C15.9999 1.4398 15.9737 1.58256 15.9219 1.71653C15.8699 1.8507 15.7933 1.9747 15.6949 2.07989L8.76887 9.48711C8.67046 9.59244 8.55122 9.67659 8.41916 9.73514C8.28705 9.79366 8.14469 9.82442 8 9.82442C7.85532 9.82442 7.71295 9.79366 7.58084 9.73514C7.44878 9.67659 7.32954 9.59244 7.23113 9.48711L0.305069 2.07989C0.106962 1.86795 0.00012207 1.58553 0 1.29613C0 1.00651 0.10677 0.72322 0.305069 0.51114C0.504202 0.298191 0.780544 0.173828 1.07394 0.173828Z" fill="#4B5563" fill-opacity="0.46"/>
</svg>
