<svg width="29" height="29" viewBox="0 0 29 29" fill="none" xmlns="http://www.w3.org/2000/svg">
<g clip-path="url(#clip0_1166_7338)">
<path d="M19.934 1.72969C19.8902 1.74063 19.666 1.77891 19.4418 1.81172C17.1832 2.17813 15.1926 3.86797 14.3941 6.10469C14.1426 6.82109 14.0605 7.34609 14.0605 8.26484C14.0605 9.47891 14.2355 10.2336 14.7824 11.2891C15.6684 13.0227 17.3199 14.275 19.2777 14.6961C19.923 14.8383 21.2574 14.8383 21.9027 14.6961C24.5332 14.1273 26.5238 12.0984 27.0488 9.44063C27.1637 8.87734 27.1473 7.53203 27.0215 6.95234C26.4746 4.40391 24.5387 2.43516 22.0121 1.86094C21.5855 1.7625 20.1637 1.66953 19.934 1.72969ZM24.5551 4.28359C24.6371 4.34922 24.741 4.48047 24.7793 4.57891C24.9379 4.95078 24.8941 5.01094 23.3465 6.56953C21.9629 7.96406 21.9027 8.02969 21.9027 8.23203C21.9027 8.60938 21.7879 8.87734 21.4926 9.16719C20.9402 9.725 20.2402 9.725 19.6879 9.16719C19.3926 8.87734 19.2777 8.60938 19.2777 8.23203C19.2777 8.02969 19.2395 7.975 18.6434 7.38984C18.2934 7.04531 17.9379 6.6625 17.8504 6.54766C17.4895 6.06641 17.7848 5.47578 18.3809 5.47578C18.5723 5.47578 18.6434 5.53594 19.3543 6.23047L20.1254 6.99062L20.6066 6.97969L21.0824 6.97422L22.4934 5.56875L23.9043 4.16328H24.1559C24.3254 4.16328 24.4512 4.20156 24.5551 4.28359Z" fill="#3F7EF8"/>
<path d="M6.37129 2.43047C6.10332 2.51797 5.64395 2.98828 5.56191 3.26719C5.46895 3.57891 5.46895 6.38984 5.56191 6.70156C5.7041 7.17188 6.30566 7.60938 6.80879 7.60938C7.31191 7.60938 7.91348 7.17188 8.05566 6.70156C8.14863 6.38984 8.14863 3.57891 8.05566 3.26719C7.96816 2.96641 7.51426 2.5125 7.21348 2.425C6.94551 2.34844 6.63379 2.34844 6.37129 2.43047Z" fill="#3F7EF8"/>
<path d="M2.88666 5.06627C1.95698 5.31783 1.22416 6.05611 0.983538 6.98033C0.912444 7.2647 0.901507 8.38033 0.901507 16.1405C0.901507 25.771 0.885101 25.2514 1.20776 25.8858C1.39369 26.2522 1.94604 26.8045 2.31244 26.9905C2.95229 27.3131 2.24682 27.2967 13.9773 27.2967C20.9062 27.2967 24.8328 27.2749 25.0242 27.242C26.0195 27.0561 26.9054 26.1702 27.0968 25.1694C27.1296 24.978 27.1515 22.6866 27.1515 18.7491V12.6241L26.8726 13.0014C26.4624 13.5483 25.5984 14.3686 25.0242 14.746L24.532 15.0741L24.5265 19.8702V24.6717H14.0265H3.52651V18.1092V11.5467H8.48119C13.1789 11.5467 13.4359 11.5413 13.3976 11.4483C13.2281 11.0655 12.9656 10.2397 12.8671 9.78033C12.6976 8.98189 12.6976 7.54908 12.8671 6.75064C12.9656 6.29127 13.2281 5.46548 13.3976 5.0772C13.4359 4.9897 13.321 4.98424 11.4343 4.98424H9.43276V5.74439C9.43276 6.16002 9.40541 6.63033 9.37807 6.79439C9.19213 7.76236 8.4101 8.58267 7.43666 8.8397C6.06401 9.19517 4.63119 8.32564 4.26479 6.92564C4.2101 6.70689 4.18276 6.34048 4.18276 5.79361V4.98424L3.67963 4.9897C3.40073 4.9897 3.03979 5.02798 2.88666 5.06627Z" fill="#3F7EF8"/>
<rect x="4.87695" y="12.7188" width="2.54297" height="2.54297" fill="#3F7EF8"/>
<rect x="4.87695" y="16.5742" width="2.54297" height="2.54297" fill="#3F7EF8"/>
<rect x="4.87695" y="20.4297" width="2.54297" height="2.54297" fill="#3F7EF8"/>
<rect x="8.81445" y="12.7188" width="2.54297" height="2.54297" fill="#3F7EF8"/>
<rect x="8.81445" y="16.5742" width="2.54297" height="2.54297" fill="#3F7EF8"/>
<rect x="16.6895" y="16.5742" width="2.54297" height="2.54297" fill="#3F7EF8"/>
<rect x="8.81445" y="20.4297" width="2.54297" height="2.54297" fill="#3F7EF8"/>
<rect x="16.6895" y="20.4297" width="2.54297" height="2.54297" fill="#3F7EF8"/>
<rect x="12.752" y="12.7188" width="2.54297" height="2.54297" fill="#3F7EF8"/>
<rect x="12.752" y="16.5742" width="2.54297" height="2.54297" fill="#3F7EF8"/>
<rect x="20.627" y="16.5742" width="2.54297" height="2.54297" fill="#3F7EF8"/>
<rect x="12.752" y="20.4297" width="2.54297" height="2.54297" fill="#3F7EF8"/>
<rect x="20.627" y="20.4297" width="2.54297" height="2.54297" fill="#3F7EF8"/>
</g>
<defs>
<clipPath id="clip0_1166_7338">
<rect width="28" height="28" fill="white" transform="translate(0.0263672 0.501953)"/>
</clipPath>
</defs>
</svg>
