<svg width="22" height="20" viewBox="0 0 22 20" fill="none" xmlns="http://www.w3.org/2000/svg">
<path d="M7.84494 2.89675C5.47797 3.31858 3.8453 5.36528 4.00153 7.71663C4.20464 10.6851 7.13407 12.6849 9.95413 11.771C13.1335 10.7476 14.1725 6.75578 11.8993 4.31068C11.3524 3.7248 10.79 3.35764 10.0166 3.09204C9.4073 2.88112 8.43083 2.79519 7.84494 2.89675Z" fill="#3F7EF8"/>
<path d="M6.71292 12.8258C4.07253 13.1305 1.68212 14.1929 0.682208 15.5131C0.229123 16.1068 0.0572637 16.6302 0.0103929 17.5754C-0.036478 18.5675 0.0728873 19.0987 0.38536 19.4502C0.830633 19.9346 0.77595 19.9268 5.03338 19.9268H8.90023V19.6065C8.90023 19.4268 9.00959 18.9268 9.1424 18.4972C9.35331 17.8176 9.36894 17.7004 9.26738 17.6301C9.20489 17.5832 8.92366 17.3801 8.63463 17.177C8.3534 16.9739 8.01749 16.6614 7.89251 16.4817C7.19725 15.5209 7.54097 14.1148 8.61119 13.5679C9.01741 13.357 9.15802 13.3336 9.95482 13.3023C10.7594 13.2711 10.8532 13.2477 10.9001 13.1149C10.9235 13.0289 10.9313 12.9508 10.9157 12.9274C10.7438 12.7633 7.89251 12.693 6.71292 12.8258Z" fill="#3F7EF8"/>
<path d="M10.9463 12.8131C13.5866 13.1178 15.9771 14.1802 16.977 15.5004C17.4301 16.0941 17.6019 16.6175 17.6488 17.5627C17.6957 18.5548 17.5863 19.086 17.2738 19.4375C16.8285 19.9219 16.8832 19.9141 12.6258 19.9141H8.75895V19.5938C8.75895 19.4141 8.64959 18.9141 8.51678 18.4845C8.30587 17.8049 8.29024 17.6877 8.3918 17.6174C8.45429 17.5705 5.55162 14.8281 5.84066 14.625C6.12188 14.4219 8.16008 14.5491 8.28507 14.3694C8.98032 13.4085 7.26236 15.747 6.19214 15.2002C5.78593 14.9892 8.50116 13.3209 7.70436 13.2896C6.89974 13.2584 6.806 13.235 6.75913 13.1022C6.73569 13.0162 6.72788 12.9381 6.7435 12.9147C6.91536 12.7506 9.76667 12.6803 10.9463 12.8131Z" fill="#3F7EF8"/>
<path d="M11.1094 0.0736713C11.0219 0.10549 10.8628 0.232766 10.7515 0.352088C10.5685 0.550957 10.5526 0.630505 10.5287 1.52939L10.5049 2.49988L11.006 2.72261C12.0799 3.18399 13.0186 4.19424 13.4322 5.32382C13.6311 5.85679 13.655 6.02384 13.655 6.93068V7.94094L14.53 7.9648L15.405 7.98867L15.4289 8.93528C15.4527 9.85804 15.5084 10.0967 15.7232 10.0967C15.7789 10.0967 16.5107 9.61144 17.346 9.02279L18.8653 7.94889H19.7006H20.5358L20.8381 7.67843L21.1325 7.40797L21.1563 4.13856C21.1802 0.519138 21.1722 0.4555 20.679 0.153218C20.4245 0.00207806 20.2972 -0.00587654 15.8425 0.00207806C13.3288 0.00207806 11.1969 0.0338974 11.1094 0.0736713Z" fill="#3F7EF8"/>
</svg>
