<svg width="21" height="19" viewBox="0 0 21 19" fill="none" xmlns="http://www.w3.org/2000/svg">
<path d="M7.7 11.9167H1.83333C1.3471 11.9167 0.880789 11.7235 0.536972 11.3797C0.193155 11.0359 9.75605e-07 10.5696 9.75605e-07 10.0833V8.15467C-0.000246176 7.91509 0.0464677 7.67778 0.137501 7.45617L2.9755 0.568333C3.04451 0.400357 3.16185 0.256662 3.31265 0.155478C3.46345 0.0542934 3.6409 0.000179181 3.8225 0H19.25C19.4931 0 19.7263 0.0965771 19.8982 0.268485C20.0701 0.440394 20.1667 0.673552 20.1667 0.916667V10.0833C20.1667 10.3264 20.0701 10.5596 19.8982 10.7315C19.7263 10.9034 19.4931 11 19.25 11H16.0582C15.9114 11 15.7668 11.0352 15.6365 11.1026C15.5061 11.1701 15.3939 11.2679 15.3093 11.3878L10.3107 18.4699C10.2475 18.5595 10.1543 18.6234 10.048 18.6501C9.94172 18.6769 9.82938 18.6647 9.73133 18.6157L8.0685 17.7833C7.60054 17.5494 7.2267 17.1625 7.00908 16.6867C6.79147 16.211 6.74318 15.6751 6.87225 15.1681L7.7 11.9167ZM14.6667 9.54433V1.83333H4.43667L1.83333 8.15467V10.0833H7.7C7.97922 10.0834 8.25474 10.1472 8.50554 10.2699C8.75634 10.3926 8.9758 10.571 9.14717 10.7915C9.31853 11.0119 9.43729 11.2686 9.49436 11.5419C9.55144 11.8152 9.54533 12.098 9.4765 12.3686L8.64875 15.6209C8.62284 15.7224 8.63245 15.8296 8.67598 15.9249C8.71951 16.0201 8.79433 16.0975 8.888 16.1443L9.49392 16.4468L13.8114 10.3308C14.0406 10.0063 14.3339 9.7405 14.6667 9.54433ZM16.5 9.16667H18.3333V1.83333H16.5V9.16667Z" fill="#4B5563"/>
</svg>
