  <svg
        width="100"
        height="100"
        viewBox="0 0 130 130"
        fill="none"
        xmlns="http://www.w3.org/2000/svg"
      >
        <path
          d="M79.1783 63.0084H41.2332C20.3834 63.0084 0.472656 80.7018 0.472656 101.58V104.738C0.472656 109.944 4.42675 114.211 9.63265 114.211H76.1361C75.0275 111.11 74.4293 107.755 74.4293 104.256C74.4293 87.7867 87.8259 74.3876 104.298 74.3876C105.378 74.3876 106.431 74.4456 107.456 74.5288C99.8572 67.4723 89.6466 63.0084 79.1783 63.0084ZM60.205 0.428711C44.5034 0.428711 31.7607 13.1714 31.7607 28.8729C31.7607 44.5745 44.5034 57.3175 60.205 57.3175C75.9069 57.3175 88.6495 44.5745 88.6495 28.8729C88.6495 13.1714 75.9066 0.428711 60.205 0.428711ZM104.295 80.0737C90.9416 80.0737 80.1176 90.8973 80.1176 104.251C80.1176 117.605 90.9435 128.429 104.295 128.429C117.647 128.429 128.473 117.605 128.473 104.254C128.473 90.8995 117.649 80.0737 104.295 80.0737ZM117.988 99.5405L102.486 115.043C101.379 116.149 99.5696 116.149 98.4632 115.043L90.6606 107.24C89.5542 106.134 89.5542 104.324 90.6606 103.218L92.6721 101.206C93.7785 100.1 95.5881 100.1 96.6946 101.206L100.472 104.984L111.952 93.5044C113.059 92.3979 114.868 92.3979 115.975 93.5044L117.986 95.5158C119.094 96.6222 119.094 98.4341 117.988 99.5405Z"
          fill="#4B5563"
        />
        <path
          d="M104.528 80.2852C118.015 80.2852 128.949 91.2189 128.949 104.707C128.949 118.195 118.015 129.13 104.528 129.13C91.0404 129.13 80.1069 118.195 80.1069 104.707C80.1071 91.2189 91.0405 80.2852 104.528 80.2852Z"
          fill="#E11D48"
          stroke="#FF5278"
          stroke-width="1.1575"
        />
        <g clip-path="url(#clip0_1166_9932)">
          <path
            d="M95.0474 111.478L97.7558 114.187L104.527 107.416L111.298 114.187L114.007 111.478L107.236 104.707L114.007 97.936L111.298 95.2275L104.527 101.999L97.7558 95.2275L95.0474 97.936L101.819 104.707L95.0474 111.478Z"
            fill="white"
          />
        </g>
        <defs>
          <clipPath id="clip0_1166_9932">
            <rect
              width="21.6679"
              height="21.6679"
              fill="white"
              transform="translate(93.6938 93.874)"
            />
          </clipPath>
        </defs>
      </svg>