


<svg width="32" height="32" viewBox="0 0 32 32" fill="none" xmlns="http://www.w3.org/2000/svg">
<rect x="0.5" y="0.505859" width="31" height="31" rx="15.5" fill="#BDD4FF" fill-opacity="0.2"/>
<rect x="0.5" y="0.505859" width="31" height="31" rx="15.5" stroke="#BDD4FF"/>
<g clip-path="url(#clip0_1166_7740)">
<path d="M13.4935 13.4562L15.8646 9.46924L18.4022 13.3696L23.4007 14.53L20.0981 17.7433L20.3659 23.255L15.9392 20.9473L11.3432 23.1211L11.809 18.3077L8.53027 14.2376L13.4935 13.4562Z" fill="#F4CD1E"/>
<path d="M23.5157 13.3652L18.9407 12.6999L16.896 8.56242C16.7157 8.19245 16.3563 8.0058 15.9719 8.00586C15.6438 8.00586 15.2844 8.1902 15.1032 8.56211L13.0563 12.6996L8.48346 13.3652C7.66253 13.484 7.33378 14.4934 7.92878 15.0715L11.2382 18.2621L10.4563 22.8371C10.3438 23.484 10.8625 24.0059 11.4438 24.0059C11.5979 24.0059 11.7566 23.9692 11.9088 23.8887L16 21.7434L20.0907 23.8902C20.2427 23.97 20.4008 24.0063 20.5547 24.0063C21.1363 24.0063 21.655 23.4872 21.5438 22.8372L20.761 18.2903L24.0703 15.0997C24.6657 14.4934 24.3375 13.484 23.5157 13.3652ZM19.1938 18.0246L19.8938 22.0902L16.2313 20.169C16.0858 20.0927 15.9122 20.0927 15.7666 20.169L12.1063 22.0902L12.8063 18.0246C12.8344 17.8621 12.7532 17.6965 12.6625 17.5809L9.70315 14.703L13.7938 14.108C13.9563 14.084 14.0969 13.9809 14.1688 13.834L16 10.1305L17.831 13.8337C17.9038 13.9811 18.0445 14.0832 18.2072 14.1069L22.2978 14.7019L19.3385 17.5797C19.2188 17.6965 19.1657 17.8621 19.1938 18.0246Z" fill="#F6AB27"/>
</g>
<defs>
<clipPath id="clip0_1166_7740">
<rect width="18" height="16" fill="white" transform="translate(7 8.00586)"/>
</clipPath>
</defs>
</svg>
