<svg width="44" height="44" viewBox="0 0 44 44" fill="none" xmlns="http://www.w3.org/2000/svg">
<rect width="44" height="44" rx="22" fill="white" fill-opacity="0.13"/>
<rect x="0.482954" y="0.482954" width="43.0341" height="43.0341" rx="21.517" stroke="#3F7EF8" stroke-opacity="0.25" stroke-width="0.965909"/>
<path d="M30.2981 16.248L24.1766 11.9651C22.508 10.7961 19.9468 10.8598 18.342 12.1033L13.0176 16.2587C11.9548 17.0876 11.1152 18.788 11.1152 20.1271V27.4602C11.1152 30.1702 13.3151 32.3807 16.0252 32.3807H27.4817C30.1918 32.3807 32.3917 30.1808 32.3917 27.4708V20.2653C32.3917 18.8305 31.4671 17.0664 30.2981 16.248ZM22.5505 28.1297C22.5505 28.5654 22.1892 28.9268 21.7535 28.9268C21.3177 28.9268 20.9564 28.5654 20.9564 28.1297V24.9414C20.9564 24.5057 21.3177 24.1443 21.7535 24.1443C22.1892 24.1443 22.5505 24.5057 22.5505 24.9414V28.1297Z" fill="#3F7EF8"/>
</svg>
