<svg width="23" height="24" viewBox="0 0 23 24" fill="none" xmlns="http://www.w3.org/2000/svg">
<path d="M5.95152 8.56752C5.95152 9.82238 6.23328 11.0087 6.71363 12.0835L0.0107422 18.8532C0.0107422 18.8532 0.0107422 20.0052 0.0107422 21.4247C0.0107422 22.8441 1.53158 23.9961 3.40547 23.9961H6.8002V20.5675H10.1949V17.139C10.1949 17.139 14.1481 17.139 14.4383 17.139C19.1265 17.139 22.9252 13.3024 22.9252 8.56752C22.9252 3.83266 19.1265 -0.00390625 14.4383 -0.00390625C9.75022 -0.00390625 5.95152 3.83266 5.95152 8.56752ZM14.4383 11.9961C12.5644 11.9961 11.0436 10.4601 11.0436 8.56752C11.0436 6.67324 12.5644 5.13552 14.4383 5.13552C16.3139 5.13552 17.8331 6.67152 17.8331 8.56752C17.8331 10.4601 16.3139 11.9961 14.4383 11.9961Z" fill="#3F7EF8"/>
</svg>
