<svg width="20" height="20" viewBox="0 0 20 20" fill="none" xmlns="http://www.w3.org/2000/svg">
<path fill-rule="evenodd" clip-rule="evenodd" d="M4.16602 1.66602C3.50297 1.66602 2.86709 1.92941 2.39825 2.39825C1.92941 2.86709 1.66602 3.50297 1.66602 4.16602V15.8327C1.66602 16.4957 1.92941 17.1316 2.39825 17.6004C2.86709 18.0693 3.50297 18.3327 4.16602 18.3327H11.666V14.166C11.666 13.503 11.9294 12.8671 12.3982 12.3982C12.8671 11.9294 13.503 11.666 14.166 11.666H18.3327V4.16602C18.3327 3.50297 18.0693 2.86709 17.6004 2.39825C17.1316 1.92941 16.4957 1.66602 15.8327 1.66602H4.16602ZM14.4102 17.6002C14.1106 17.8997 13.7398 18.1182 13.3327 18.2352V14.166C13.3327 13.945 13.4205 13.733 13.5768 13.5768C13.733 13.4205 13.945 13.3327 14.166 13.3327H18.2352C18.1182 13.7398 17.8997 14.1106 17.6002 14.4102L14.4102 17.6002ZM5.83268 4.99935C5.61167 4.99935 5.39971 5.08715 5.24343 5.24343C5.08715 5.39971 4.99935 5.61167 4.99935 5.83268C4.99935 6.0537 5.08715 6.26566 5.24343 6.42194C5.39971 6.57822 5.61167 6.66602 5.83268 6.66602H14.166C14.387 6.66602 14.599 6.57822 14.7553 6.42194C14.9116 6.26566 14.9993 6.0537 14.9993 5.83268C14.9993 5.61167 14.9116 5.39971 14.7553 5.24343C14.599 5.08715 14.387 4.99935 14.166 4.99935H5.83268ZM5.83268 8.33268C5.61167 8.33268 5.39971 8.42048 5.24343 8.57676C5.08715 8.73304 4.99935 8.945 4.99935 9.16602C4.99935 9.38703 5.08715 9.59899 5.24343 9.75527C5.39971 9.91155 5.61167 9.99935 5.83268 9.99935H14.166C14.387 9.99935 14.599 9.91155 14.7553 9.75527C14.9116 9.59899 14.9993 9.38703 14.9993 9.16602C14.9993 8.945 14.9116 8.73304 14.7553 8.57676C14.599 8.42048 14.387 8.33268 14.166 8.33268H5.83268ZM5.83268 11.666C5.61167 11.666 5.39971 11.7538 5.24343 11.9101C5.08715 12.0664 4.99935 12.2783 4.99935 12.4993C4.99935 12.7204 5.08715 12.9323 5.24343 13.0886C5.39971 13.2449 5.61167 13.3327 5.83268 13.3327H9.16602C9.38703 13.3327 9.59899 13.2449 9.75527 13.0886C9.91155 12.9323 9.99935 12.7204 9.99935 12.4993C9.99935 12.2783 9.91155 12.0664 9.75527 11.9101C9.59899 11.7538 9.38703 11.666 9.16602 11.666H5.83268Z" fill="#3F7EF8"/>
</svg>
