<svg width="21" height="19" viewBox="0 0 21 19" fill="none" xmlns="http://www.w3.org/2000/svg">
<path d="M12.4667 6.74824H18.3333C18.8196 6.74824 19.2859 6.9414 19.6297 7.28521C19.9735 7.62903 20.1667 8.09535 20.1667 8.58158V10.5102C20.1669 10.7498 20.1202 10.9871 20.0292 11.2087L17.1921 18.0975C17.1229 18.2654 17.0053 18.409 16.8544 18.5101C16.7034 18.6111 16.5258 18.665 16.3442 18.6649H0.916667C0.673551 18.6649 0.440394 18.5683 0.268485 18.3964C0.0965771 18.2245 0 17.9914 0 17.7482V8.58158C0 8.33846 0.0965771 8.1053 0.268485 7.9334C0.440394 7.76149 0.673551 7.66491 0.916667 7.66491H4.1085C4.25525 7.66495 4.39987 7.62975 4.5302 7.56227C4.66052 7.4948 4.77274 7.39702 4.85742 7.27716L9.856 0.194077C9.91919 0.10453 10.0124 0.0405906 10.1187 0.0138512C10.2249 -0.0128882 10.3373 -0.000657106 10.4353 0.0483268L12.0982 0.879744C12.5661 1.11364 12.94 1.50061 13.1576 1.97637C13.3752 2.45212 13.4235 2.98801 13.2944 3.49499L12.4667 6.74824ZM5.5 9.12058V16.8316H15.73L18.3333 10.5102V8.58158H12.4667C12.1874 8.58154 11.9119 8.51772 11.6611 8.395C11.4103 8.27227 11.1909 8.09388 11.0195 7.87344C10.8481 7.653 10.7294 7.39632 10.6723 7.123C10.6152 6.84968 10.6213 6.56693 10.6902 6.29633L11.5179 3.04399C11.5438 2.94254 11.5342 2.83528 11.4907 2.74005C11.4472 2.64482 11.3723 2.56737 11.2787 2.52058L10.6727 2.21808L6.35525 8.33408C6.12608 8.65858 5.83275 8.92441 5.5 9.12058ZM3.66667 9.49824H1.83333V16.8316H3.66667V9.49824Z" fill="#4B5563"/>
</svg>
