<svg width="1092" height="195" viewBox="0 0 1092 195" fill="none" xmlns="http://www.w3.org/2000/svg">
<path fill-rule="evenodd" clip-rule="evenodd" d="M3.97524 48.5028C1.77777 48.5028 0 46.7252 0 44.5286L0 30.026C0 27.8282 1.77777 26.0505 3.97524 26.0505C6.17272 26.0505 7.95062 27.8282 7.95062 30.026L7.95062 44.5286C7.94476 46.7201 6.16686 48.5028 3.97524 48.5028ZM13.4647 56.2845C11.2673 56.2845 9.48938 54.5068 9.48938 52.3102L9.48938 22.238C9.48938 20.0414 11.2673 18.2625 13.4647 18.2625C15.6622 18.2625 17.44 20.0414 17.44 22.238L17.44 52.3102C17.4459 54.5017 15.6622 56.2845 13.4647 56.2845ZM44.1655 48.5028C41.9739 48.5028 40.1902 46.7201 40.1902 44.5286L40.1902 30.026C40.1902 27.8345 41.968 26.0505 44.1655 26.0505C46.363 26.0505 48.1409 27.8282 48.1409 30.026L48.1409 44.5286C48.1409 46.7201 46.3572 48.5028 44.1655 48.5028ZM34.6703 56.2845C32.4728 56.2845 30.6949 54.5068 30.6949 52.3102L30.6949 22.238C30.6949 20.0414 32.4728 18.2625 34.6703 18.2625C36.8677 18.2625 38.6455 20.0465 38.6455 22.238L38.6455 52.3102C38.6455 54.5017 36.8619 56.2845 34.6703 56.2845ZM24.0733 69.441C21.8758 69.441 20.0981 67.6634 20.0981 65.4655L20.0981 9.0827C20.0981 6.88483 21.8758 5.1072 24.0733 5.1072C26.2708 5.1072 28.0428 6.8912 28.0428 9.0827L28.0428 65.4706C28.0428 67.6634 26.2649 69.441 24.0733 69.441ZM145.203 48.5028C143.007 48.5028 141.228 46.7252 141.228 44.5286V30.026C141.228 27.8282 143.007 26.0505 145.203 26.0505C147.401 26.0505 149.179 27.8282 149.179 30.026V44.5286C149.179 46.7201 147.395 48.5028 145.203 48.5028ZM154.699 56.2845C152.501 56.2845 150.723 54.5068 150.723 52.3102V22.238C150.723 20.0465 152.501 18.2625 154.699 18.2625C156.897 18.2625 158.674 20.0465 158.674 22.238V52.3102C158.674 54.5017 156.89 56.2845 154.699 56.2845ZM185.394 48.5028C183.202 48.5028 181.418 46.7201 181.418 44.5286V30.026C181.418 27.8282 183.196 26.0505 185.394 26.0505C187.592 26.0505 189.369 27.8282 189.369 30.026V44.5286C189.369 46.7201 187.585 48.5028 185.394 48.5028ZM175.898 56.2845C173.707 56.2845 171.924 54.5017 171.924 52.3102V22.238C171.924 20.0414 173.707 18.2625 175.898 18.2625C178.096 18.2625 179.874 20.0414 179.874 22.238V52.3102C179.874 54.5068 178.091 56.2845 175.898 56.2845ZM165.296 69.441C163.105 69.441 161.321 67.657 161.321 65.4655L161.321 9.0827C161.321 6.88483 163.105 5.1072 165.296 5.1072C167.494 5.1072 169.272 6.88483 169.272 9.0827L169.272 65.4706C169.272 67.6634 167.494 69.441 165.296 69.441Z" fill="url(#paint0_linear_347_5085)"/>
<path fill-rule="evenodd" clip-rule="evenodd" d="M100.789 154.589V181.869H88.2449V154.543C90.3318 154.77 92.4245 154.863 94.5231 154.863H94.6858C96.7318 154.863 98.7662 154.805 100.789 154.589Z" fill="url(#paint1_linear_347_5085)"/>
<path fill-rule="evenodd" clip-rule="evenodd" d="M62.8817 187.161H126.155C128.317 187.161 130.071 188.915 130.071 191.078C130.071 192.121 129.669 193.112 128.929 193.852C128.189 194.592 127.203 195 126.16 195H62.8817C60.7192 195 58.9589 193.24 58.9589 191.078C58.9589 188.915 60.725 187.161 62.8817 187.161Z" fill="url(#paint2_linear_347_5085)"/>
<path fill-rule="evenodd" clip-rule="evenodd" d="M101.282 149.197C99.103 149.512 96.8935 149.57 94.684 149.57H94.5206C92.2482 149.57 89.9632 149.459 87.7065 149.145C87.672 149.139 87.6311 149.133 87.5965 149.133C77.4949 148.084 67.9821 144.231 59.9149 138.087C45.296 126.954 36.7858 109.462 36.7799 91.1122V76.8776C36.7799 74.6052 38.6335 72.7508 40.9069 72.7508C43.1801 72.7508 45.0337 74.6052 45.0337 76.8776V91.6779C45.0337 104.991 50.2447 117.482 59.6875 126.867C69.0546 136.181 81.4585 141.322 94.6672 141.322H94.9753C122.429 141.322 144.323 118.391 144.323 91.1415V76.8776C144.323 74.6052 146.177 72.7508 148.45 72.7508C150.724 72.7508 152.577 74.6052 152.577 76.8776V91.6779C152.577 107.171 146.509 121.725 135.539 132.661C126.335 141.835 114.485 148.037 101.457 149.185C101.405 149.18 101.341 149.191 101.282 149.197Z" fill="url(#paint3_linear_347_5085)"/>
<path fill-rule="evenodd" clip-rule="evenodd" d="M129.255 90.5749H60.1125V91.6649C60.1125 110.732 75.6174 126.237 94.6779 126.237C113.744 126.237 129.249 110.732 129.249 91.6713L129.255 90.5749Z" fill="url(#paint4_linear_347_5085)"/>
<path fill-rule="evenodd" clip-rule="evenodd" d="M129.255 80.3103H60.1124V85.9414H129.255V80.3103Z" fill="url(#paint5_linear_347_5085)"/>
<path fill-rule="evenodd" clip-rule="evenodd" d="M81.1315 13.0562C80.9858 13.0562 80.8283 13.0446 80.6826 13.0098C80.5369 12.9814 80.3912 12.9349 80.2455 12.8755C80.1056 12.8239 79.9715 12.7478 79.8433 12.6665C79.715 12.5852 79.5985 12.4858 79.4877 12.3748C79.3828 12.2702 79.2837 12.1476 79.1963 12.0186C79.1205 11.8972 79.0448 11.763 78.9864 11.6172C78.9339 11.4765 78.8873 11.3319 78.8581 11.1796C78.8232 11.0338 78.8116 10.8763 78.8116 10.7305C78.8116 10.1187 79.0622 9.52501 79.4935 9.08748C79.6043 8.98293 79.7208 8.88356 79.8491 8.80225C79.9715 8.71964 80.1056 8.64479 80.2513 8.59187C80.3912 8.53379 80.5369 8.48732 80.6884 8.45764C80.9858 8.39956 81.2946 8.39956 81.5919 8.45764C81.7435 8.48732 81.8834 8.53379 82.0292 8.59187C82.1691 8.64479 82.303 8.71964 82.4313 8.80225C82.5595 8.88356 82.6762 8.98293 82.7869 9.08748C83.2182 9.52501 83.4631 10.1187 83.4631 10.7305C83.4631 10.8763 83.4513 11.0338 83.4163 11.1796C83.3872 11.3255 83.3406 11.4713 83.2824 11.6172C83.2298 11.7565 83.1541 11.8908 83.0725 12.0186C82.9908 12.1476 82.8918 12.2702 82.7869 12.3748C82.682 12.4858 82.5595 12.5787 82.4313 12.6665C82.3088 12.7478 82.1691 12.8175 82.0292 12.8755C81.8892 12.9349 81.7435 12.9814 81.5919 13.0098C81.4404 13.0446 81.2888 13.0562 81.1315 13.0562ZM94.6836 13.0627C94.5321 13.0627 94.3806 13.0511 94.2289 13.0162C94.0832 12.9865 93.9375 12.9401 93.7918 12.8872C93.6519 12.8291 93.5179 12.7542 93.3896 12.6781C93.2614 12.5968 93.1448 12.4974 93.034 12.3864C92.6027 11.9553 92.3521 11.3552 92.3521 10.7486C92.3521 10.5975 92.3696 10.4401 92.4046 10.2942C92.4336 10.1484 92.4804 10.0026 92.5386 9.85671C92.5969 9.71732 92.6668 9.58309 92.7484 9.45403C92.8359 9.32625 92.9349 9.21009 93.0398 9.0991C93.1506 8.99455 93.2673 8.89518 93.3954 8.81387C93.5237 8.73126 93.6519 8.65639 93.7976 8.60348C93.9375 8.5454 94.0832 8.49895 94.2349 8.46926C94.5321 8.41118 94.8411 8.41118 95.1383 8.46926C95.2898 8.49895 95.4298 8.5454 95.5755 8.60348C95.7154 8.65639 95.8495 8.73126 95.9776 8.81387C96.1059 8.89518 96.2225 8.99455 96.3332 9.0991C96.7645 9.53663 97.0152 10.1303 97.0152 10.7421C97.0152 10.8879 97.0036 11.0454 96.9628 11.1912C96.9336 11.3371 96.887 11.4829 96.8287 11.6288C96.7762 11.7682 96.7004 11.9024 96.6188 12.0315C96.5373 12.1592 96.4381 12.2818 96.3332 12.3864C96.2225 12.4974 96.1059 12.5903 95.9776 12.6781C95.8553 12.7594 95.7154 12.8291 95.5755 12.8872C95.4356 12.9401 95.2898 12.9865 95.1383 13.0162C94.9926 13.0446 94.8352 13.0627 94.6836 13.0627ZM108.23 13.0627C108.084 13.0627 107.927 13.0511 107.781 13.0162C107.635 12.9865 107.49 12.9401 107.344 12.882C107.204 12.8291 107.07 12.7542 106.942 12.6716C106.814 12.5903 106.697 12.4909 106.586 12.3864C106.481 12.2754 106.382 12.1592 106.301 12.0315C106.219 11.9089 106.143 11.7746 106.091 11.6288C106.032 11.4894 105.986 11.3435 105.957 11.1912C105.922 11.0454 105.904 10.8879 105.904 10.7421C105.904 10.5911 105.922 10.4336 105.957 10.2878C105.986 10.1419 106.032 9.9961 106.091 9.85026C106.143 9.71087 106.219 9.57663 106.301 9.44886C106.382 9.31979 106.481 9.20364 106.586 9.09264C106.697 8.9881 106.814 8.88873 106.942 8.80741C107.064 8.7261 107.198 8.64994 107.344 8.59702C107.484 8.53895 107.63 8.49249 107.781 8.46409C108.078 8.40472 108.387 8.40472 108.685 8.46409C108.836 8.49249 108.976 8.53895 109.122 8.59702C109.262 8.64994 109.396 8.7261 109.524 8.80741C109.652 8.88873 109.769 8.9881 109.88 9.09264C109.984 9.20364 110.084 9.31979 110.165 9.44886C110.253 9.57147 110.323 9.71087 110.381 9.85026C110.433 9.99094 110.48 10.1368 110.509 10.2878C110.544 10.4336 110.556 10.5911 110.556 10.7421C110.556 10.8879 110.544 11.0454 110.509 11.1912C110.48 11.3371 110.433 11.4829 110.381 11.6288C110.323 11.7682 110.247 11.9024 110.165 12.0315C110.084 12.1592 109.984 12.2754 109.88 12.3864C109.775 12.4909 109.652 12.5903 109.524 12.6716C109.402 12.7542 109.268 12.8291 109.122 12.882C108.982 12.9401 108.836 12.9865 108.685 13.0162C108.533 13.0446 108.382 13.0627 108.23 13.0627ZM67.5909 26.6094C67.4451 26.6094 67.2878 26.5913 67.1421 26.5565C66.9964 26.5268 66.8507 26.4803 66.705 26.4223C66.5651 26.3693 66.431 26.2945 66.3028 26.2132C66.1803 26.1306 66.058 26.026 65.953 25.9215C65.8423 25.8105 65.749 25.6943 65.6616 25.5653C65.5858 25.4426 65.5101 25.3084 65.4517 25.1639C65.3992 25.0232 65.3526 24.8773 65.3176 24.7263C65.2885 24.5805 65.271 24.423 65.271 24.2772C65.271 24.1262 65.2827 23.9687 65.3176 23.8229C65.3526 23.677 65.3934 23.5312 65.4517 23.3853C65.5101 23.246 65.5858 23.1117 65.6616 22.9839C65.749 22.8549 65.8423 22.7323 65.953 22.6277C66.058 22.5232 66.1803 22.4238 66.3028 22.3425C66.431 22.2612 66.5651 22.185 66.705 22.1321C66.8449 22.074 66.9906 22.0276 67.1421 21.9979C67.4393 21.9398 67.7483 21.9398 68.0456 21.9979C68.1971 22.0276 68.337 22.074 68.4827 22.1321C68.6226 22.185 68.7567 22.2612 68.885 22.3425C69.0132 22.4238 69.1356 22.5232 69.2404 22.6277C69.3454 22.7387 69.4445 22.8549 69.5261 22.9839C69.6136 23.1053 69.6835 23.246 69.7359 23.3853C69.7943 23.526 69.8409 23.6706 69.87 23.8229C69.905 23.9687 69.9166 24.1262 69.9166 24.2772C69.9166 24.423 69.905 24.5805 69.87 24.7263C69.8409 24.8722 69.7943 25.018 69.7359 25.1639C69.6835 25.3033 69.6078 25.4375 69.5261 25.5653C69.4445 25.6943 69.3396 25.8105 69.2404 25.9215C69.1356 26.026 69.0132 26.1254 68.885 26.2132C68.7625 26.288 68.6226 26.3642 68.4827 26.4223C68.3428 26.4803 68.1971 26.5268 68.0456 26.5565C67.8998 26.5913 67.7425 26.6094 67.5909 26.6094ZM81.1315 26.6094C80.9858 26.6094 80.8283 26.5913 80.6826 26.5565C80.5369 26.5268 80.3912 26.4803 80.2455 26.4223C80.1056 26.3693 79.9715 26.2945 79.8433 26.2132C79.715 26.1306 79.5985 26.0325 79.4877 25.9215C79.3828 25.8157 79.2837 25.6943 79.1963 25.5653C79.1205 25.4426 79.0448 25.3084 78.9864 25.1639C78.9339 25.0232 78.8873 24.8773 78.8581 24.7263C78.8232 24.5805 78.8116 24.423 78.8116 24.2772C78.8116 23.6654 79.0622 23.0704 79.4935 22.6342C79.6043 22.5284 79.7208 22.429 79.8491 22.3477C79.9715 22.2663 80.1056 22.1902 80.2513 22.1386C80.3912 22.0805 80.5369 22.0327 80.6884 22.0043C80.9858 21.9463 81.2946 21.9463 81.5919 22.0043C81.7435 22.0327 81.8834 22.0805 82.0292 22.1386C82.1691 22.1902 82.303 22.2663 82.4313 22.3477C82.5595 22.429 82.6762 22.5284 82.7869 22.6342C83.2182 23.0704 83.4631 23.6654 83.4631 24.2772C83.4631 24.423 83.4513 24.5805 83.4163 24.7263C83.3872 24.8722 83.3406 25.018 83.2824 25.1639C83.2298 25.3033 83.1541 25.4375 83.0725 25.5653C82.9908 25.6943 82.8918 25.8157 82.7869 25.9215C82.682 26.0325 82.5595 26.1254 82.4313 26.2132C82.3088 26.288 82.1691 26.3642 82.0292 26.4223C81.8892 26.4803 81.7435 26.5268 81.5919 26.5565C81.4404 26.5913 81.2888 26.6094 81.1315 26.6094ZM94.6836 26.6094C94.5321 26.6094 94.3806 26.5913 94.2289 26.5565C94.0832 26.5268 93.9375 26.4803 93.7918 26.4287C93.6519 26.3693 93.5179 26.2945 93.3896 26.2183C93.2614 26.137 93.1448 26.0376 93.034 25.9266C92.9233 25.8221 92.8301 25.6995 92.7426 25.5717C92.6668 25.4491 92.5911 25.3149 92.5327 25.169C92.4745 25.0296 92.4278 24.8838 92.3987 24.7315C92.3638 24.5857 92.3462 24.4295 92.3462 24.2836C92.3462 24.1313 92.3638 23.9739 92.3987 23.828C92.4278 23.6822 92.4745 23.5376 92.5327 23.3918C92.5911 23.2511 92.661 23.1169 92.7426 22.9891C92.8301 22.8613 92.9291 22.7387 93.034 22.6342C93.1448 22.5284 93.2614 22.429 93.3896 22.3477C93.5179 22.2663 93.6461 22.1902 93.7918 22.1386C93.9317 22.0805 94.0774 22.0327 94.2289 22.0043C94.5263 21.9463 94.8351 21.9463 95.1325 22.0043C95.284 22.0327 95.4239 22.0805 95.5697 22.1386C95.7096 22.1902 95.8435 22.2663 95.9718 22.3477C96.1001 22.429 96.2167 22.5284 96.3274 22.6342C96.4323 22.7439 96.5314 22.8613 96.613 22.9891C96.7004 23.1117 96.7704 23.246 96.8229 23.3918C96.8811 23.5312 96.9278 23.677 96.9569 23.828C96.9918 23.9739 97.0094 24.1313 97.0094 24.2836C97.0094 24.889 96.7587 25.4904 96.3274 25.9215C96.2167 26.0325 96.1001 26.1254 95.9718 26.2132C95.8495 26.288 95.7096 26.3642 95.5697 26.4223C95.4297 26.4752 95.284 26.5216 95.1325 26.55C94.9926 26.5913 94.8352 26.6094 94.6836 26.6094ZM108.23 26.6094C108.084 26.6094 107.927 26.5913 107.781 26.5565C107.635 26.5268 107.49 26.4803 107.344 26.4287C107.204 26.3693 107.07 26.2945 106.942 26.2183C106.814 26.137 106.697 26.0325 106.586 25.9266C106.155 25.4956 105.904 24.8954 105.904 24.2888C105.904 24.1378 105.922 23.9803 105.957 23.8345C105.986 23.6886 106.032 23.5428 106.091 23.397C106.143 23.2576 106.219 23.1233 106.301 22.9956C106.382 22.8665 106.481 22.7439 106.586 22.6393C106.697 22.5348 106.814 22.4354 106.942 22.3541C107.064 22.2728 107.198 22.1967 107.344 22.1437C107.484 22.0921 107.63 22.0443 107.781 22.0095C108.078 21.9514 108.387 21.9514 108.685 22.0095C108.836 22.0443 108.976 22.0857 109.122 22.1437C109.262 22.1967 109.396 22.2728 109.524 22.3541C109.652 22.4354 109.769 22.5348 109.88 22.6393C109.984 22.7503 110.084 22.8665 110.165 22.9956C110.253 23.1169 110.323 23.2576 110.381 23.397C110.433 23.5376 110.48 23.6822 110.509 23.8345C110.544 23.9803 110.556 24.1378 110.556 24.2888C110.556 24.8954 110.305 25.4956 109.874 25.9266C109.769 26.0325 109.646 26.1306 109.518 26.2183C109.396 26.2945 109.262 26.3693 109.116 26.4287C108.976 26.4803 108.83 26.5268 108.679 26.5565C108.533 26.5913 108.382 26.6094 108.23 26.6094ZM121.776 26.6094C121.164 26.6094 120.564 26.3577 120.133 25.9266C119.702 25.4956 119.45 24.8954 119.45 24.2888C119.45 24.1378 119.462 23.9803 119.503 23.8345C119.533 23.6886 119.579 23.5428 119.637 23.397C119.69 23.2576 119.765 23.1233 119.848 22.9956C119.934 22.8665 120.028 22.7439 120.133 22.6393C120.244 22.5348 120.36 22.4354 120.488 22.3541C120.61 22.2728 120.745 22.1967 120.89 22.1437C121.03 22.0857 121.176 22.0392 121.328 22.0095C121.625 21.9514 121.933 21.9514 122.231 22.0095C122.382 22.0392 122.522 22.0857 122.668 22.1437C122.808 22.1967 122.943 22.2728 123.07 22.3541C123.198 22.4354 123.316 22.5348 123.425 22.6393C123.531 22.7503 123.631 22.8665 123.712 22.9956C123.793 23.1169 123.869 23.2576 123.921 23.397C123.98 23.5376 124.027 23.6822 124.055 23.8345C124.09 23.9803 124.108 24.1378 124.108 24.2888C124.108 24.8954 123.858 25.4956 123.425 25.9266C123.321 26.0376 123.198 26.1306 123.07 26.2183C122.948 26.2945 122.814 26.3693 122.668 26.4287C122.528 26.4868 122.382 26.5332 122.231 26.5616C122.079 26.5913 121.922 26.6094 121.776 26.6094ZM67.5909 40.1496C67.4451 40.1496 67.2878 40.138 67.1421 40.0967C66.9964 40.0683 66.8507 40.0206 66.705 39.969C66.5651 39.9109 66.431 39.8347 66.3028 39.7586C66.1803 39.6773 66.058 39.5779 65.953 39.4669C65.5217 39.0358 65.271 38.4357 65.271 37.8291C65.271 37.678 65.2827 37.5206 65.3176 37.3747C65.3526 37.2289 65.3934 37.0831 65.4517 36.9372C65.5101 36.7978 65.5858 36.6636 65.6616 36.5358C65.749 36.4067 65.8423 36.2906 65.953 36.1796C66.058 36.0751 66.1803 35.9757 66.3028 35.8944C66.431 35.813 66.5651 35.7369 66.705 35.684C66.8449 35.6259 66.9906 35.5794 67.1421 35.551C67.4393 35.4917 67.7483 35.4917 68.0456 35.551C68.1971 35.5794 68.337 35.6259 68.4827 35.684C68.6226 35.7369 68.7567 35.813 68.885 35.8944C69.0132 35.9757 69.1356 36.0751 69.2404 36.1796C69.3454 36.2906 69.4445 36.4067 69.5261 36.5358C69.6136 36.6584 69.6835 36.7978 69.7359 36.9372C69.7943 37.0779 69.8409 37.2289 69.87 37.3747C69.905 37.5206 69.9166 37.678 69.9166 37.8291C69.9166 37.9749 69.905 38.1324 69.87 38.2782C69.8409 38.424 69.7943 38.5699 69.7359 38.7157C69.6835 38.8551 69.6078 38.9893 69.5261 39.1171C69.4445 39.2397 69.3396 39.3624 69.2404 39.4669C69.1356 39.5779 69.0132 39.6721 68.885 39.7586C68.7625 39.8399 68.6226 39.9109 68.4827 39.969C68.3428 40.0206 68.1971 40.0683 68.0456 40.0967C67.8998 40.138 67.7425 40.1496 67.5909 40.1496ZM81.1315 40.1496C80.9858 40.1496 80.8283 40.138 80.6826 40.0967C80.5369 40.0683 80.3912 40.0206 80.2455 39.969C80.1056 39.9109 79.9715 39.8347 79.8433 39.7586C79.715 39.6773 79.5985 39.5779 79.4877 39.4669C79.0564 39.0358 78.8057 38.4357 78.8057 37.8291C78.8057 37.678 78.8174 37.5206 78.8523 37.3747C78.8873 37.2289 78.9281 37.0831 78.9806 36.9372C79.0388 36.7978 79.1146 36.6636 79.1905 36.5358C79.2721 36.4067 79.377 36.2906 79.4819 36.1796C79.5927 36.0751 79.7092 35.9757 79.8375 35.8944C79.9598 35.813 80.0939 35.7369 80.2397 35.684C80.3796 35.6259 80.5253 35.5794 80.6768 35.551C81.4229 35.3988 82.2273 35.6491 82.7693 36.1861C82.8743 36.297 82.9734 36.4132 83.055 36.541C83.1367 36.6636 83.2124 36.8043 83.2648 36.9437C83.3232 37.0831 83.3698 37.2289 83.3989 37.3812C83.4339 37.527 83.4455 37.6832 83.4455 37.8355C83.4455 38.4421 83.2007 39.0423 82.7693 39.4733C82.3438 39.9044 81.7493 40.1496 81.1315 40.1496ZM94.6836 40.1496C94.5321 40.1496 94.3806 40.138 94.2289 40.0967C94.0832 40.0683 93.9375 40.0206 93.7918 39.969C93.6519 39.9109 93.5179 39.8347 93.3896 39.7586C93.2614 39.6773 93.1448 39.5779 93.034 39.4669C92.6027 39.0358 92.3521 38.4357 92.3521 37.8291C92.3521 37.678 92.3696 37.5206 92.4046 37.3747C92.4336 37.2289 92.4804 37.0831 92.5386 36.9372C92.5969 36.7978 92.6668 36.6636 92.7484 36.5358C92.8359 36.4067 92.9349 36.2906 93.0398 36.1796C93.1506 36.0751 93.2673 35.9757 93.3954 35.8944C93.5237 35.813 93.6519 35.7369 93.7976 35.684C93.9375 35.6259 94.0832 35.5794 94.2349 35.551C94.5321 35.4917 94.8411 35.4917 95.1383 35.551C95.2898 35.5794 95.4298 35.6259 95.5755 35.684C95.7154 35.7369 95.8495 35.813 95.9776 35.8944C96.1059 35.9757 96.2225 36.0751 96.3332 36.1796C96.7645 36.6171 97.0152 37.2121 97.0152 37.8239C97.0152 37.9697 97.0036 38.1272 96.9628 38.273C96.9336 38.4189 96.887 38.5634 96.8287 38.7093C96.7762 38.85 96.7004 38.9842 96.6188 39.112C96.5373 39.2346 96.4381 39.3572 96.3332 39.4617C96.2225 39.5727 96.1059 39.6656 95.9776 39.7534C95.8553 39.8347 95.7154 39.9044 95.5755 39.9625C95.4356 40.0154 95.2898 40.0619 95.1383 40.0916C94.9926 40.138 94.8352 40.1496 94.6836 40.1496ZM108.23 40.1496C108.084 40.1496 107.927 40.138 107.781 40.0967C107.635 40.0683 107.49 40.0206 107.344 39.969C107.204 39.9109 107.07 39.8347 106.942 39.7586C106.814 39.6773 106.697 39.5779 106.586 39.4669C106.481 39.3572 106.382 39.2397 106.301 39.112C106.219 38.9894 106.143 38.8551 106.091 38.7093C106.032 38.5699 105.986 38.424 105.957 38.273C105.922 38.1272 105.904 37.9697 105.904 37.8239C105.904 37.6716 105.922 37.5141 105.957 37.3696C105.986 37.2237 106.032 37.0779 106.091 36.932C106.143 36.7914 106.219 36.6584 106.301 36.5294C106.382 36.4016 106.481 36.2854 106.586 36.1744C106.697 36.0686 106.814 35.9705 106.942 35.8879C107.064 35.8066 107.198 35.7317 107.344 35.6788C107.484 35.6259 107.63 35.5794 107.781 35.5446C108.078 35.4865 108.387 35.4865 108.685 35.5446C108.836 35.5794 108.976 35.6207 109.122 35.6788C109.268 35.7369 109.396 35.8066 109.524 35.8879C109.652 35.9705 109.769 36.0686 109.88 36.1744C109.984 36.2854 110.084 36.4016 110.165 36.5294C110.253 36.652 110.323 36.7914 110.381 36.932C110.433 37.0714 110.48 37.2173 110.509 37.3696C110.544 37.5141 110.556 37.6716 110.556 37.8239C110.556 37.9697 110.544 38.1272 110.509 38.273C110.48 38.4189 110.433 38.5634 110.381 38.7093C110.323 38.85 110.247 38.9842 110.165 39.112C110.084 39.2397 109.984 39.3572 109.88 39.4669C109.775 39.5779 109.652 39.6721 109.524 39.7586C109.402 39.8399 109.268 39.9109 109.122 39.969C108.982 40.0206 108.836 40.0683 108.685 40.0967C108.533 40.138 108.382 40.1496 108.23 40.1496ZM121.776 40.1496C121.625 40.1496 121.467 40.138 121.322 40.1032C121.176 40.0683 121.03 40.027 120.884 39.969C120.745 39.9109 120.61 39.8347 120.483 39.7586C120.354 39.6773 120.232 39.5779 120.126 39.4669C120.022 39.3572 119.922 39.2397 119.841 39.112C119.76 38.9894 119.684 38.8551 119.631 38.7093C119.573 38.5699 119.526 38.424 119.498 38.273C119.462 38.1272 119.445 37.9697 119.445 37.8239C119.445 37.6716 119.457 37.5141 119.498 37.3696C119.526 37.2237 119.573 37.0779 119.631 36.932C119.684 36.7914 119.76 36.6584 119.841 36.5294C119.929 36.4016 120.022 36.2854 120.126 36.1744C120.237 36.0686 120.354 35.9705 120.483 35.8879C120.605 35.8066 120.738 35.7317 120.884 35.6788C121.03 35.6259 121.171 35.5794 121.322 35.5446C122.074 35.3936 122.872 35.644 123.414 36.1796C123.846 36.6171 124.096 37.2121 124.096 37.8239C124.096 37.9697 124.078 38.1272 124.044 38.273C124.015 38.4189 123.967 38.5634 123.909 38.7093C123.858 38.85 123.782 38.9842 123.7 39.112C123.619 39.2397 123.52 39.3572 123.414 39.4669C123.309 39.5779 123.187 39.6721 123.059 39.7586C122.936 39.8399 122.802 39.9109 122.656 39.969C122.517 40.0206 122.371 40.0683 122.22 40.1032C122.079 40.138 121.922 40.1496 121.776 40.1496ZM67.5909 53.7015C66.9788 53.7015 66.3844 53.4511 65.953 53.02C65.8423 52.9142 65.749 52.7929 65.6616 52.6703C65.5858 52.5412 65.5101 52.407 65.4517 52.2676C65.3992 52.1282 65.3526 51.9824 65.3176 51.8301C65.2885 51.6842 65.271 51.528 65.271 51.3822C65.271 50.7691 65.5217 50.1754 65.953 49.7379C66.4951 49.2023 67.2936 48.9506 68.0456 49.1029C68.1971 49.1313 68.337 49.1778 68.4827 49.2371C68.6226 49.2888 68.7567 49.3649 68.885 49.4462C69.0132 49.5275 69.1356 49.6269 69.2404 49.7327C69.6718 50.169 69.9166 50.764 69.9166 51.3757C69.9166 51.5216 69.905 51.6791 69.87 51.8249C69.8409 51.9707 69.7943 52.1166 69.7359 52.2624C69.6835 52.4018 69.6078 52.5361 69.5261 52.6638C69.4445 52.7864 69.3396 52.9142 69.2404 53.0136C69.1356 53.1246 69.0132 53.2175 68.885 53.3053C68.7567 53.393 68.6226 53.4563 68.4827 53.5157C68.3428 53.5673 68.1913 53.6137 68.0456 53.6486C67.8998 53.6847 67.7425 53.7015 67.5909 53.7015ZM81.1315 53.7015C80.9858 53.7015 80.8283 53.6847 80.6826 53.6486C80.5369 53.6202 80.3912 53.5737 80.2455 53.5208C80.1056 53.4627 79.9715 53.393 79.8433 53.3104C79.715 53.2291 79.5985 53.1298 79.4877 53.02C79.0564 52.5877 78.8057 51.9875 78.8057 51.3822C78.8057 51.2299 78.8174 51.0724 78.8523 50.9266C78.8873 50.7808 78.9281 50.6362 78.9806 50.4955C79.0388 50.3561 79.1146 50.2155 79.1905 50.0941C79.2721 49.9651 79.377 49.8425 79.4819 49.7379C79.5927 49.6334 79.7092 49.534 79.8375 49.4527C79.9598 49.3714 80.0939 49.2952 80.2397 49.2423C80.3796 49.1907 80.5253 49.1429 80.6768 49.1081C80.974 49.05 81.283 49.05 81.5803 49.1081C81.7318 49.1429 81.8717 49.1842 82.0174 49.2423C82.1573 49.2952 82.2914 49.3714 82.4197 49.4527C82.5479 49.534 82.6644 49.6334 82.7751 49.7379C82.8801 49.8489 82.9792 49.9651 83.0608 50.0941C83.1425 50.2155 83.2182 50.3561 83.2706 50.4955C83.329 50.6362 83.3756 50.7808 83.4047 50.9266C83.4397 51.0724 83.4513 51.2299 83.4513 51.3822C83.4513 51.9875 83.2065 52.5877 82.7751 53.02C82.6703 53.1298 82.5479 53.224 82.4197 53.3104C82.2972 53.393 82.1573 53.4627 82.0174 53.5208C81.8775 53.5737 81.7318 53.6202 81.5803 53.6486C81.4404 53.6847 81.2888 53.7015 81.1315 53.7015ZM94.6836 53.7015C94.5321 53.7015 94.3806 53.6847 94.2289 53.6551C94.0832 53.6202 93.9375 53.5789 93.7918 53.5208C93.6519 53.4627 93.5179 53.3866 93.3896 53.3104C93.2614 53.2291 93.1448 53.1298 93.034 53.02C92.9233 52.9142 92.8301 52.7929 92.7426 52.6703C92.6668 52.5412 92.5911 52.407 92.5327 52.2676C92.4745 52.1282 92.4278 51.9824 92.3987 51.8301C92.3638 51.6842 92.3462 51.528 92.3462 51.3822C92.3462 51.2299 92.3638 51.0724 92.3987 50.9266C92.4278 50.7808 92.4745 50.6362 92.5327 50.4955C92.5911 50.3561 92.661 50.2155 92.7426 50.0941C92.8301 49.9715 92.9291 49.8425 93.034 49.7444C93.1448 49.6334 93.2614 49.5391 93.3896 49.4527C93.5179 49.3714 93.6461 49.2952 93.7918 49.2423C93.9375 49.1907 94.0774 49.1378 94.2289 49.1081C94.9809 48.9571 95.7853 49.2074 96.3216 49.7495C96.7529 50.1806 97.0036 50.7808 97.0036 51.3874C97.0036 51.994 96.7529 52.5941 96.3216 53.0252C96.2108 53.1362 96.0942 53.2291 95.966 53.3169C95.8435 53.3982 95.7038 53.4679 95.5638 53.5273C95.4239 53.5789 95.2782 53.6254 95.1266 53.6602C94.9926 53.6847 94.8352 53.7015 94.6836 53.7015ZM108.23 53.7015C108.084 53.7015 107.927 53.6847 107.781 53.6551C107.635 53.6202 107.49 53.5789 107.344 53.5208C107.204 53.4627 107.07 53.393 106.942 53.3104C106.814 53.2291 106.697 53.1298 106.586 53.02C106.481 52.9142 106.382 52.7929 106.301 52.6703C106.219 52.5412 106.143 52.407 106.091 52.2676C106.032 52.1282 105.986 51.9824 105.957 51.8301C105.922 51.6842 105.904 51.528 105.904 51.3822C105.904 50.7691 106.155 50.1754 106.586 49.7444C107.128 49.2075 107.927 48.9506 108.679 49.1029C108.83 49.1313 108.97 49.1778 109.116 49.2371C109.256 49.2888 109.39 49.3649 109.518 49.4462C109.646 49.5275 109.763 49.6269 109.874 49.7379C110.305 50.169 110.556 50.7691 110.556 51.3757C110.556 51.5216 110.544 51.6791 110.509 51.8249C110.48 51.9707 110.433 52.1166 110.381 52.2624C110.323 52.4018 110.247 52.5361 110.165 52.6638C110.084 52.7864 109.984 52.9142 109.88 53.0136C109.775 53.1246 109.652 53.2175 109.524 53.3053C109.402 53.3866 109.268 53.4563 109.122 53.5157C108.982 53.5673 108.836 53.6137 108.685 53.6486C108.533 53.6847 108.382 53.7015 108.23 53.7015ZM121.776 53.7015C121.164 53.7015 120.564 53.4511 120.133 53.02C119.702 52.5877 119.45 51.9875 119.45 51.3822C119.45 51.2299 119.462 51.0789 119.503 50.9266C119.533 50.7808 119.579 50.6362 119.637 50.4955C119.69 50.3561 119.765 50.2155 119.848 50.0941C119.934 49.9715 120.028 49.8425 120.133 49.7379C120.244 49.6334 120.36 49.534 120.488 49.4527C120.61 49.3714 120.745 49.2952 120.89 49.2423C121.036 49.1907 121.176 49.1378 121.328 49.1081C122.079 48.9571 122.878 49.2075 123.42 49.7444C123.525 49.8541 123.624 49.9715 123.705 50.0993C123.787 50.2219 123.863 50.3613 123.916 50.502C123.974 50.6414 124.02 50.7872 124.05 50.9331C124.085 51.0841 124.102 51.2364 124.102 51.3874C124.102 51.5397 124.085 51.6907 124.05 51.8417C124.02 51.9875 123.974 52.1334 123.916 52.274C123.863 52.4134 123.787 52.5477 123.705 52.6754C123.624 52.798 123.525 52.9258 123.42 53.0252C123.316 53.1362 123.193 53.2291 123.064 53.3169C122.943 53.3982 122.808 53.4679 122.663 53.5273C122.522 53.5789 122.377 53.6254 122.225 53.6602C122.079 53.6847 121.922 53.7015 121.776 53.7015ZM67.5909 67.2482C67.4451 67.2482 67.2878 67.2366 67.1421 67.2017C66.9964 67.1669 66.8507 67.1256 66.705 67.0675C66.5651 67.0094 66.431 66.9385 66.3028 66.8571C66.1803 66.7758 66.058 66.6765 65.953 66.5655C65.8423 66.4609 65.749 66.3383 65.6616 66.2157C65.5858 66.0879 65.5101 65.9537 65.4517 65.8143C65.3992 65.6736 65.3526 65.5291 65.3176 65.3768C65.2885 65.2309 65.271 65.0735 65.271 64.9276C65.271 64.3158 65.5217 63.7209 65.953 63.2898C66.4951 62.7477 67.2936 62.4973 68.0456 62.6496C68.1971 62.6845 68.337 62.7245 68.4827 62.7826C68.6226 62.8419 68.7567 62.9116 68.885 62.9929C69.0132 63.0742 69.1356 63.1736 69.2404 63.2846C69.6718 63.7157 69.9166 64.3159 69.9166 64.9225C69.9166 65.0683 69.905 65.2258 69.87 65.3716C69.8409 65.5162 69.7943 65.662 69.7359 65.8078C69.6835 65.9485 69.6078 66.0828 69.5261 66.2105C69.4445 66.3331 69.3396 66.4609 69.2404 66.5603C69.1356 66.6713 69.0132 66.7642 68.885 66.852C68.7625 66.9333 68.6226 67.003 68.4827 67.0611C68.3428 67.114 68.1971 67.1604 68.0456 67.1953C67.8998 67.225 67.7425 67.2482 67.5909 67.2482ZM81.1315 67.2482C80.9858 67.2482 80.8283 67.2366 80.6826 67.1953C80.5369 67.1669 80.3912 67.1192 80.2455 67.0675C80.1056 67.0094 79.9715 66.9385 79.8433 66.8571C79.715 66.7758 79.5985 66.6765 79.4877 66.5655C79.3828 66.4609 79.2837 66.3383 79.1963 66.2157C79.1205 66.0879 79.0448 65.9537 78.9864 65.8143C78.9339 65.6736 78.8873 65.5291 78.8581 65.3768C78.8232 65.2309 78.8116 65.0735 78.8116 64.9276C78.8116 64.3158 79.0622 63.7209 79.4935 63.2898C79.6043 63.1788 79.7208 63.0858 79.8491 62.9981C79.9715 62.9168 80.1056 62.8419 80.2513 62.789C80.3912 62.7361 80.5369 62.6896 80.6884 62.6548C80.9858 62.5967 81.2946 62.5967 81.5919 62.6548C81.7435 62.6896 81.8834 62.7309 82.0292 62.789C82.1691 62.8419 82.303 62.9168 82.4313 62.9981C82.5595 63.0807 82.6762 63.1788 82.7869 63.2898C83.2182 63.7209 83.4631 64.3223 83.4631 64.9276C83.4631 65.0735 83.4513 65.2309 83.4163 65.3768C83.3872 65.5226 83.3406 65.6685 83.2824 65.8143C83.2298 65.9537 83.1541 66.0879 83.0725 66.2157C82.9908 66.3383 82.8918 66.4674 82.7869 66.5655C82.682 66.6765 82.5595 66.7694 82.4313 66.8571C82.3088 66.9385 82.1691 67.0094 82.0292 67.0675C81.8892 67.1192 81.7435 67.1669 81.5919 67.1953C81.4404 67.225 81.2888 67.2482 81.1315 67.2482ZM108.23 67.2482C108.084 67.2482 107.927 67.2366 107.781 67.2017C107.635 67.1669 107.49 67.1256 107.344 67.0675C107.204 67.0094 107.07 66.9385 106.942 66.8571C106.814 66.7758 106.697 66.6765 106.586 66.5655C106.155 66.1344 105.904 65.5342 105.904 64.9276C105.904 64.7766 105.922 64.6256 105.957 64.4733C105.986 64.3275 106.032 64.1816 106.091 64.0422C106.143 63.9015 106.219 63.7686 106.301 63.6395C106.382 63.5169 106.481 63.3956 106.586 63.2898C107.128 62.7477 107.927 62.4973 108.679 62.6496C108.83 62.678 108.97 62.7245 109.116 62.7826C109.256 62.8355 109.39 62.9116 109.518 62.9929C109.646 63.0742 109.763 63.1736 109.874 63.2846C109.979 63.3892 110.078 63.5118 110.159 63.6344C110.247 63.757 110.317 63.8964 110.375 64.0358C110.428 64.1765 110.474 64.3223 110.503 64.4681C110.538 64.6192 110.55 64.7702 110.55 64.9225C110.55 65.5342 110.299 66.1292 109.868 66.5603C109.763 66.6713 109.641 66.7642 109.512 66.852C109.39 66.9333 109.256 67.003 109.11 67.0611C108.97 67.114 108.825 67.1604 108.673 67.1953C108.533 67.225 108.382 67.2482 108.23 67.2482ZM121.776 67.2482C121.164 67.2482 120.564 66.9978 120.133 66.5655C120.028 66.4609 119.929 66.3383 119.848 66.2157C119.765 66.0879 119.69 65.9537 119.637 65.8143C119.579 65.6736 119.533 65.5291 119.503 65.3832C119.468 65.2309 119.45 65.0799 119.45 64.9276C119.45 64.7766 119.462 64.6256 119.503 64.4733C119.533 64.3275 119.579 64.1816 119.637 64.0422C119.69 63.9015 119.765 63.7686 119.848 63.6395C119.934 63.5169 120.028 63.3956 120.133 63.2898C120.244 63.1788 120.36 63.0858 120.488 62.9981C120.61 62.9168 120.745 62.8419 120.89 62.789C121.036 62.7361 121.176 62.6896 121.328 62.6548C122.079 62.5038 122.878 62.7542 123.42 63.2962C123.525 63.4008 123.624 63.5234 123.705 63.646C123.787 63.7686 123.863 63.908 123.916 64.0474C123.974 64.1881 124.02 64.3339 124.05 64.4798C124.085 64.6308 124.102 64.7818 124.102 64.9341C124.102 65.0851 124.085 65.2374 124.05 65.3884C124.02 65.5342 123.974 65.6801 123.916 65.8195C123.863 65.9601 123.787 66.0944 123.705 66.2221C123.624 66.3448 123.525 66.4725 123.42 66.5719C123.316 66.6829 123.193 66.7758 123.064 66.8636C122.943 66.9449 122.808 67.0146 122.663 67.0727C122.522 67.1256 122.377 67.1721 122.225 67.2069C122.079 67.225 121.922 67.2482 121.776 67.2482ZM60.1124 34.565L60.1124 75.671H129.249V34.565C129.249 15.5046 113.738 -1.52588e-05 94.6778 -1.52588e-05C75.6231 -1.52588e-05 60.1124 15.5046 60.1124 34.565ZM97.0036 64.9276C97.0036 65.5407 96.7529 66.1344 96.3216 66.5655C96.2108 66.6765 96.0942 66.7694 95.966 66.8571C95.8435 66.9385 95.7038 67.0094 95.5638 67.0675C95.4239 67.1192 95.2782 67.1669 95.1266 67.2017C94.9809 67.2301 94.8235 67.2482 94.672 67.2482C94.5205 67.2482 94.3688 67.2366 94.2173 67.2017C94.0716 67.1669 93.9259 67.1256 93.7802 67.0675C93.6403 67.0094 93.5062 66.9385 93.378 66.8571C93.2497 66.7758 93.1332 66.6765 93.0224 66.5655C92.9117 66.4609 92.8184 66.3383 92.731 66.2157C92.6552 66.0879 92.5795 65.9537 92.5211 65.8143C92.4628 65.6736 92.4162 65.5291 92.387 65.3832C92.3521 65.2309 92.3346 65.0799 92.3346 64.9276C92.3346 64.3158 92.5853 63.7209 93.0166 63.2846C93.1274 63.1788 93.2439 63.0807 93.3722 62.9981C93.5004 62.9168 93.6286 62.8419 93.7744 62.789C93.9201 62.7361 94.06 62.6896 94.2115 62.6548C94.5087 62.5967 94.8177 62.5967 95.115 62.6548C95.2665 62.6896 95.4064 62.7309 95.5521 62.789C95.692 62.8419 95.8261 62.9168 95.9544 62.9981C96.0826 63.0807 96.1991 63.1788 96.3099 63.2846C96.4148 63.3956 96.5139 63.5118 96.5955 63.6395C96.683 63.7622 96.7529 63.9015 96.8053 64.0422C96.8637 64.1816 96.9103 64.3275 96.9394 64.4733C96.986 64.6256 97.0036 64.7766 97.0036 64.9276Z" fill="url(#paint6_linear_347_5085)"/>
<path d="M287.53 71.0555C286.941 65.8241 284.509 61.7716 280.236 58.898C275.962 55.9876 270.583 54.5324 264.099 54.5324C259.458 54.5324 255.442 55.2692 252.052 56.7428C248.663 58.1796 246.029 60.1691 244.15 62.7111C242.308 65.2163 241.387 68.0714 241.387 71.2766C241.387 73.966 242.013 76.287 243.266 78.2395C244.555 80.1921 246.232 81.8315 248.295 83.1578C250.395 84.4472 252.642 85.534 255.037 86.4182C257.431 87.2656 259.734 87.9655 261.944 88.5182L272.997 91.3917C276.607 92.2759 280.309 93.4733 284.104 94.9837C287.899 96.4942 291.417 98.4836 294.659 100.952C297.901 103.42 300.517 106.478 302.506 110.125C304.532 113.773 305.545 118.138 305.545 123.222C305.545 129.633 303.888 135.325 300.572 140.298C297.293 145.272 292.522 149.195 286.259 152.069C280.033 154.942 272.499 156.379 263.657 156.379C255.184 156.379 247.853 155.034 241.663 152.345C235.474 149.656 230.629 145.843 227.13 140.906C223.63 135.932 221.696 130.038 221.327 123.222H238.458C238.79 127.312 240.116 130.719 242.437 133.446C244.795 136.135 247.797 138.143 251.445 139.469C255.129 140.759 259.163 141.403 263.547 141.403C268.373 141.403 272.665 140.648 276.423 139.138C280.217 137.59 283.201 135.453 285.375 132.727C287.549 129.964 288.636 126.741 288.636 123.057C288.636 119.704 287.678 116.959 285.762 114.823C283.883 112.686 281.323 110.917 278.081 109.517C274.875 108.118 271.247 106.883 267.194 105.815L253.821 102.168C244.758 99.6994 237.574 96.0705 232.269 91.2812C227.001 86.4919 224.367 80.1553 224.367 72.2713C224.367 65.7505 226.135 60.0585 229.672 55.1955C233.208 50.3325 237.998 46.5563 244.04 43.867C250.081 41.1407 256.897 39.7776 264.486 39.7776C272.149 39.7776 278.91 41.1223 284.767 43.8117C290.662 46.5011 295.304 50.2036 298.693 54.9192C302.082 59.598 303.851 64.9768 303.998 71.0555H287.53ZM372.169 119.299V69.6188H388.748V154.5H372.501V139.801H371.617C369.664 144.332 366.533 148.108 362.222 151.129C357.949 154.113 352.625 155.605 346.252 155.605C340.799 155.605 335.973 154.408 331.773 152.013C327.61 149.582 324.331 145.99 321.937 141.238C319.579 136.485 318.4 130.609 318.4 123.609V69.6188H334.923V121.62C334.923 127.404 336.526 132.009 339.731 135.435C342.936 138.861 347.099 140.574 352.22 140.574C355.314 140.574 358.391 139.801 361.448 138.253C364.543 136.706 367.104 134.367 369.13 131.235C371.193 128.104 372.206 124.125 372.169 119.299ZM404.724 154.5V69.6188H420.584V83.4341H421.634C423.403 78.7553 426.295 75.1081 430.31 72.4924C434.326 69.8398 439.134 68.5135 444.733 68.5135C450.407 68.5135 455.159 69.8398 458.991 72.4924C462.859 75.1449 465.714 78.7921 467.556 83.4341H468.441C470.467 78.9027 473.69 75.2923 478.111 72.6029C482.532 69.8766 487.8 68.5135 493.916 68.5135C501.616 68.5135 507.897 70.9266 512.76 75.7528C517.66 80.5789 520.11 87.855 520.11 97.581V154.5H503.587V99.1283C503.587 93.3812 502.021 89.2181 498.89 86.6393C495.758 84.0604 492.019 82.771 487.672 82.771C482.293 82.771 478.111 84.4288 475.127 87.7445C472.143 91.0233 470.651 95.2416 470.651 100.399V154.5H454.183V98.0784C454.183 93.4733 452.746 89.7707 449.873 86.9708C446.999 84.1709 443.26 82.771 438.655 82.771C435.523 82.771 432.631 83.5999 429.979 85.2577C427.363 86.8787 425.245 89.1444 423.624 92.0549C422.039 94.9653 421.247 98.3363 421.247 102.168V154.5H404.724ZM536.031 154.5V69.6188H551.891V83.4341H552.941C554.71 78.7553 557.602 75.1081 561.617 72.4924C565.633 69.8398 570.441 68.5135 576.041 68.5135C581.714 68.5135 586.467 69.8398 590.298 72.4924C594.166 75.1449 597.021 78.7921 598.864 83.4341H599.748C601.774 78.9027 604.998 75.2923 609.418 72.6029C613.839 69.8766 619.108 68.5135 625.223 68.5135C632.923 68.5135 639.204 70.9266 644.067 75.7528C648.967 80.5789 651.417 87.855 651.417 97.581V154.5H634.894V99.1283C634.894 93.3812 633.328 89.2181 630.197 86.6393C627.065 84.0604 623.326 82.771 618.979 82.771C613.6 82.771 609.418 84.4288 606.434 87.7445C603.45 91.0233 601.958 95.2416 601.958 100.399V154.5H585.49V98.0784C585.49 93.4733 584.053 89.7707 581.18 86.9708C578.306 84.1709 574.567 82.771 569.962 82.771C566.83 82.771 563.938 83.5999 561.286 85.2577C558.67 86.8787 556.552 89.1444 554.931 92.0549C553.347 94.9653 552.554 98.3363 552.554 102.168V154.5H536.031ZM692.04 156.379C686.662 156.379 681.799 155.384 677.451 153.395C673.104 151.369 669.659 148.44 667.117 144.608C664.612 140.777 663.36 136.08 663.36 130.517C663.36 125.727 664.281 121.786 666.123 118.691C667.965 115.596 670.452 113.146 673.583 111.341C676.714 109.536 680.214 108.173 684.083 107.252C687.951 106.331 691.893 105.631 695.909 105.152C700.993 104.562 705.119 104.083 708.287 103.715C711.455 103.31 713.758 102.665 715.195 101.781C716.632 100.897 717.35 99.4599 717.35 97.4705V97.0837C717.35 92.2575 715.987 88.5181 713.261 85.8656C710.571 83.2131 706.556 81.8868 701.214 81.8868C695.651 81.8868 691.267 83.121 688.061 85.5893C684.893 88.0208 682.701 90.7286 681.485 93.7127L665.957 90.176C667.799 85.0183 670.488 80.8552 674.025 77.6869C677.599 74.4818 681.706 72.1608 686.348 70.724C690.99 69.2503 695.872 68.5135 700.993 68.5135C704.382 68.5135 707.974 68.9188 711.769 69.7293C715.6 70.5029 719.174 71.9397 722.489 74.0397C725.842 76.1396 728.586 79.1421 730.723 83.0473C732.86 86.9156 733.928 91.9444 733.928 98.1336V154.5H717.792V142.895H717.129C716.061 145.032 714.458 147.132 712.321 149.195C710.184 151.258 707.44 152.971 704.087 154.334C700.735 155.698 696.719 156.379 692.04 156.379ZM695.632 143.116C700.201 143.116 704.106 142.214 707.348 140.409C710.627 138.603 713.113 136.246 714.808 133.335C716.54 130.388 717.405 127.238 717.405 123.885V112.944C716.816 113.533 715.674 114.086 713.979 114.602C712.321 115.08 710.424 115.504 708.287 115.873C706.15 116.204 704.069 116.517 702.043 116.812C700.016 117.07 698.322 117.291 696.959 117.475C693.753 117.88 690.825 118.562 688.172 119.52C685.556 120.478 683.456 121.859 681.872 123.664C680.325 125.433 679.551 127.791 679.551 130.738C679.551 134.827 681.062 137.922 684.083 140.022C687.104 142.085 690.953 143.116 695.632 143.116ZM749.712 154.5V69.6188H765.682V83.1025H766.566C768.114 78.5343 770.84 74.9423 774.745 72.3266C778.687 69.674 783.145 68.3477 788.118 68.3477C789.15 68.3477 790.366 68.3846 791.766 68.4583C793.202 68.5319 794.326 68.624 795.137 68.7346V84.5393C794.473 84.3551 793.294 84.1525 791.6 83.9315C789.905 83.6736 788.21 83.5446 786.516 83.5446C782.611 83.5446 779.129 84.3735 776.071 86.0314C773.05 87.6524 770.656 89.9181 768.887 92.8285C767.119 95.7021 766.235 98.981 766.235 102.665V154.5H749.712ZM803.211 154.5V69.6188H819.734V154.5H803.211ZM811.555 56.5218C808.682 56.5218 806.213 55.5639 804.15 53.6482C802.124 51.6956 801.111 49.3747 801.111 46.6853C801.111 43.9591 802.124 41.6381 804.15 39.7223C806.213 37.7698 808.682 36.7935 811.555 36.7935C814.429 36.7935 816.879 37.7698 818.905 39.7223C820.968 41.6381 822 43.9591 822 46.6853C822 49.3747 820.968 51.6956 818.905 53.6482C816.879 55.5639 814.429 56.5218 811.555 56.5218ZM833.97 154.5V143.172L879.947 84.7604V83.9867H835.462V69.6188H900.56V81.6657L856.351 139.359V140.132H902.107V154.5H833.97ZM949.527 156.213C941.165 156.213 933.962 154.427 927.92 150.853C921.915 147.243 917.273 142.177 913.994 135.656C910.752 129.098 909.131 121.417 909.131 112.612C909.131 103.918 910.752 96.2547 913.994 89.6234C917.273 82.992 921.841 77.8159 927.699 74.0949C933.594 70.374 940.483 68.5135 948.367 68.5135C953.156 68.5135 957.798 69.3056 962.293 70.8898C966.787 72.4739 970.821 74.9607 974.395 78.3501C977.969 81.7394 980.787 86.1419 982.85 91.5575C984.913 96.9363 985.945 103.476 985.945 111.175V117.033H918.471V104.654H969.753C969.753 100.307 968.869 96.4574 967.101 93.1048C965.332 89.7155 962.845 87.0445 959.64 85.0919C956.472 83.1394 952.751 82.1631 948.477 82.1631C943.836 82.1631 939.783 83.3052 936.32 85.5893C932.894 87.8366 930.241 90.7839 928.362 94.4311C926.52 98.0415 925.599 101.965 925.599 106.202V115.873C925.599 121.546 926.594 126.372 928.583 130.351C930.61 134.33 933.428 137.369 937.038 139.469C940.649 141.532 944.867 142.564 949.693 142.564C952.825 142.564 955.68 142.122 958.259 141.238C960.838 140.316 963.066 138.953 964.945 137.148C966.824 135.343 968.261 133.114 969.256 130.462L984.895 133.28C983.642 137.885 981.395 141.919 978.153 145.382C974.948 148.808 970.914 151.479 966.051 153.395C961.224 155.274 955.717 156.213 949.527 156.213ZM1011.26 41.3249L1038.34 85.5893H1039.22L1066.3 41.3249H1086.08L1050.83 97.9126L1086.31 154.5H1066.41L1039.22 110.844H1038.34L1011.15 154.5H991.256L1027.34 97.9126L991.477 41.3249H1011.26Z" fill="url(#paint7_linear_347_5085)"/>
<defs>
<linearGradient id="paint0_linear_347_5085" x1="94.6847" y1="69.441" x2="94.6847" y2="5.1072" gradientUnits="userSpaceOnUse">
<stop stop-color="#3F7EF8"/>
<stop offset="1" stop-color="#5B9AFF"/>
</linearGradient>
<linearGradient id="paint1_linear_347_5085" x1="94.5169" y1="181.869" x2="94.5169" y2="154.543" gradientUnits="userSpaceOnUse">
<stop stop-color="#3F7EF8"/>
<stop offset="1" stop-color="#5B9AFF"/>
</linearGradient>
<linearGradient id="paint2_linear_347_5085" x1="94.5152" y1="195" x2="94.5152" y2="187.161" gradientUnits="userSpaceOnUse">
<stop stop-color="#3F7EF8"/>
<stop offset="1" stop-color="#5B9AFF"/>
</linearGradient>
<linearGradient id="paint3_linear_347_5085" x1="94.6784" y1="149.57" x2="94.6784" y2="72.7508" gradientUnits="userSpaceOnUse">
<stop stop-color="#3F7EF8"/>
<stop offset="1" stop-color="#5B9AFF"/>
</linearGradient>
<linearGradient id="paint4_linear_347_5085" x1="94.6837" y1="126.237" x2="94.6837" y2="90.5749" gradientUnits="userSpaceOnUse">
<stop stop-color="#3F7EF8"/>
<stop offset="1" stop-color="#5B9AFF"/>
</linearGradient>
<linearGradient id="paint5_linear_347_5085" x1="94.6836" y1="85.9414" x2="94.6836" y2="80.3103" gradientUnits="userSpaceOnUse">
<stop stop-color="#3F7EF8"/>
<stop offset="1" stop-color="#5B9AFF"/>
</linearGradient>
<linearGradient id="paint6_linear_347_5085" x1="94.6806" y1="75.671" x2="94.6806" y2="-1.52588e-05" gradientUnits="userSpaceOnUse">
<stop stop-color="#3F7EF8"/>
<stop offset="1" stop-color="#5B9AFF"/>
</linearGradient>
<linearGradient id="paint7_linear_347_5085" x1="652.37" y1="3.50024" x2="652.37" y2="191.5" gradientUnits="userSpaceOnUse">
<stop stop-color="#3F7EF8"/>
<stop offset="1" stop-color="#5B9AFF"/>
</linearGradient>
</defs>
</svg>
