<svg width="22" height="22" viewBox="0 0 22 22" fill="none" xmlns="http://www.w3.org/2000/svg">
<path d="M9.75315 1.20292C7.14925 1.66698 5.35315 3.91854 5.52503 6.50526C5.74847 9.77088 8.97112 11.9709 12.0735 10.9654C15.5711 9.83963 16.7141 5.44823 14.2133 2.75838C13.6117 2.11385 12.993 1.70995 12.1422 1.41776C11.4719 1.18573 10.3977 1.0912 9.75315 1.20292Z" fill="#3F7EF8"/>
<path d="M14.8929 10.9138C14.5492 11.1201 14.3601 11.4896 13.9992 12.6583L13.7242 13.5779H12.5554C11.1461 13.5779 10.7765 13.7068 10.4929 14.2997C10.089 15.1247 10.2781 15.5029 11.55 16.4482L12.5383 17.1786L12.1945 18.1927C11.825 19.2927 11.782 19.7138 11.9968 20.1607C12.2289 20.6505 12.925 20.9599 13.4578 20.8052C13.6039 20.7622 14.1281 20.4357 14.6265 20.0747C15.1336 19.7138 15.5633 19.4216 15.589 19.4216C15.6148 19.4216 16.0617 19.7224 16.5773 20.1005C17.0929 20.4701 17.6343 20.7966 17.789 20.831C18.5539 20.9771 19.3359 20.324 19.3359 19.5419C19.3359 19.4216 19.1812 18.8372 18.9836 18.2443C18.7859 17.6427 18.6656 17.1443 18.7086 17.1099C19.482 16.5943 20.539 15.7521 20.6422 15.5716C20.8914 15.1505 20.9086 14.7724 20.6937 14.3599C20.3414 13.681 20.1953 13.6208 18.7258 13.5951L17.4453 13.5693L17.1359 12.5638C16.7836 11.4208 16.6203 11.1029 16.2593 10.888C15.907 10.6904 15.2453 10.699 14.8929 10.9138Z" fill="#3F7EF8"/>
<path d="M8.50792 12.1258C5.60323 12.4609 2.97354 13.6297 1.87354 15.082C1.37511 15.7351 1.18604 16.3109 1.13448 17.3508C1.08292 18.4422 1.20323 19.0266 1.54698 19.4133C2.03682 19.9461 1.97667 19.9375 6.66026 19.9375H10.9142V19.5851C10.9142 19.3875 11.0345 18.8375 11.1806 18.3648C11.4126 17.6172 11.4298 17.4883 11.3181 17.4109C11.2493 17.3594 10.9399 17.1359 10.622 16.9125C10.3126 16.6891 9.94307 16.3453 9.80557 16.1476C9.04073 15.0906 9.41885 13.5437 10.5962 12.9422C11.0431 12.7101 11.1978 12.6844 12.0743 12.65C12.9595 12.6156 13.0626 12.5898 13.1142 12.4437C13.1399 12.3492 13.1485 12.2633 13.1314 12.2375C12.9423 12.057 9.80557 11.9797 8.50792 12.1258Z" fill="#3F7EF8"/>
</svg>
