<svg width="104" height="103" viewBox="0 0 104 103" fill="none" xmlns="http://www.w3.org/2000/svg">
<path d="M52.1029 0.269043C23.8179 0.269043 0.888184 23.1985 0.888184 51.4831C0.888184 79.7676 23.8179 102.697 52.1029 102.697C80.3879 102.697 103.318 79.7676 103.318 51.4831C103.318 23.1985 80.3879 0.269043 52.1029 0.269043Z" fill="white"/>
<path d="M52.6851 7.64502C28.0312 7.64502 8.04736 27.6315 8.04736 52.2821C8.04736 76.9357 28.0341 96.9192 52.6851 96.9192C77.339 96.9192 97.3228 76.9357 97.3228 52.2821C97.3228 27.6285 77.339 7.64502 52.6851 7.64502Z" fill="#3F7EF8"/>
<path d="M50.6862 27.8348C49.6568 27.947 48.3665 28.3666 47.5353 28.8545C46.5881 29.4156 45.641 30.289 45.0224 31.1673C44.5005 31.9041 43.9544 33.1239 43.7997 33.885L43.7659 34.046H45.4042H47.0376L47.2164 34.168C47.4193 34.3046 47.5933 34.6364 47.5933 34.8804C47.5933 35.1585 47.4097 35.4659 47.1632 35.5928C46.9506 35.705 46.9264 35.705 45.2785 35.705H43.6064V36.4271V37.1444L45.9116 37.1688C48.1539 37.1932 48.2167 37.198 48.352 37.2956C48.8401 37.6616 48.8015 38.4422 48.2747 38.7155L48.0621 38.8277H45.8343H43.6064L43.6209 39.5352L43.6354 40.2427H45.2205C46.0952 40.2427 46.8781 40.2573 46.9651 40.2768C47.0569 40.2915 47.2164 40.3939 47.3275 40.5062C47.4967 40.6672 47.545 40.7501 47.5691 40.9404C47.6175 41.2527 47.4967 41.565 47.2647 41.7455L47.0956 41.8772L45.351 41.9211L43.6064 41.9651V43.1166V44.2681H51.4594H59.3123L59.3026 43.097L59.2978 41.926L57.5871 41.9016L55.8715 41.8772L55.6927 41.7357C55.2529 41.3991 55.2771 40.7062 55.7458 40.3891L55.9198 40.2671L57.6305 40.2524L59.3364 40.2378V39.5352V38.8277H57.128C55.0596 38.8277 54.9001 38.8179 54.7117 38.735C54.4314 38.6033 54.2526 38.3203 54.2526 38.0129C54.2574 37.7104 54.3154 37.564 54.499 37.3737C54.7358 37.1395 54.9243 37.12 57.2343 37.12H59.3364V36.4125V35.7099L57.6595 35.6952C56.0696 35.6806 55.9681 35.6757 55.7845 35.5781C55.4414 35.4025 55.2819 34.9048 55.4414 34.5193C55.5236 34.3144 55.7603 34.1144 55.9923 34.046C56.0986 34.0168 56.7849 33.9973 57.6595 33.9973C58.5874 33.9973 59.1431 33.9777 59.1431 33.9485C59.1431 33.8314 58.7469 32.7091 58.5681 32.3139C57.9978 31.0746 56.8912 29.8157 55.6975 29.0546C54.76 28.4496 53.5809 28.0251 52.4259 27.8689C51.962 27.8104 51.0969 27.7909 50.6862 27.8348Z" fill="white"/>
<path d="M80.8605 39.6584C80.6092 39.7169 80.3869 39.8828 80.2661 40.0975C80.1743 40.2634 80.1598 40.3561 80.1743 40.5855C80.1936 40.8343 80.2274 40.9173 80.4884 41.2978C81.223 42.3908 81.943 43.9766 82.3441 45.3819C82.6727 46.5334 82.8467 47.5922 82.9288 48.9146C83.127 52.0764 82.2765 55.3163 80.5609 57.9268C80.2274 58.4391 80.1598 58.6636 80.2323 59.0539C80.2758 59.2881 80.5077 59.5419 80.7687 59.6443C81.0538 59.7517 81.4501 59.7224 81.6579 59.5711C81.856 59.4247 82.175 58.9417 82.6921 58C84.6154 54.5112 85.2243 50.6516 84.5091 46.5383C84.3786 45.7869 84.1322 44.85 83.8567 44.0498C83.272 42.342 82.0203 40.0341 81.5419 39.7755C81.3099 39.6486 81.0635 39.6047 80.8605 39.6584Z" fill="white"/>
<path d="M23.3776 40.7675C23.1601 40.9139 23.0973 41.0017 22.4642 42.1191C21.4639 43.8757 20.8211 45.8225 20.4973 48.0719C20.3765 48.9112 20.3765 51.263 20.4973 52.2194C20.8163 54.7079 21.5412 56.7963 22.8508 58.9773C23.3292 59.7824 23.4694 59.9337 23.8028 60.0313C24.0348 60.0996 24.0831 60.0996 24.3151 60.0313C24.6099 59.9435 24.8853 59.6848 24.9771 59.4018C25.069 59.114 24.9965 58.8651 24.7065 58.4357C23.5612 56.7475 22.6962 54.5127 22.3917 52.4438C22.1501 50.8385 22.1936 48.8819 22.4932 47.34C22.8315 45.6078 23.5274 43.8805 24.576 42.1971C24.7887 41.8507 24.8322 41.7434 24.8322 41.5628C24.8273 41.0163 24.4407 40.6309 23.8898 40.6309C23.6482 40.6309 23.5564 40.6553 23.3776 40.7675Z" fill="white"/>
<path d="M76.7291 42.3271C76.4343 42.5174 76.2796 42.8296 76.3086 43.1663C76.328 43.3566 76.3956 43.503 76.6566 43.9079C77.5119 45.2302 78.1015 46.8648 78.2852 48.4505C78.3576 49.0799 78.3141 50.9097 78.2175 51.4415C77.9227 52.998 77.4878 54.1592 76.7146 55.4522C76.3618 56.0475 76.3135 56.2085 76.4004 56.5257C76.5309 56.999 77.0383 57.3015 77.5023 57.1746C77.7826 57.1014 77.8889 56.999 78.2272 56.4866C79.7639 54.1788 80.4501 51.3098 80.1409 48.4847C79.9621 46.8306 79.6141 45.6108 78.9086 44.1665C78.4591 43.2395 78.0242 42.5515 77.7729 42.3563C77.6231 42.2441 77.5313 42.2148 77.2703 42.2002C76.9852 42.1856 76.9272 42.2002 76.7291 42.3271Z" fill="white"/>
<path d="M27.3206 43.2394C27.05 43.3663 26.8035 43.7029 26.3154 44.6349C25.4697 46.245 25.0445 47.9186 24.9913 49.8361C24.9575 50.9633 25.0107 51.5683 25.2233 52.6612C25.4842 53.9981 25.9385 55.1838 26.6489 56.3841C27.1853 57.2868 27.3834 57.4673 27.8619 57.4673C28.3258 57.4673 28.6834 57.155 28.7704 56.6768C28.8139 56.4329 28.7317 56.2084 28.4176 55.7205C27.0258 53.5639 26.5232 50.8364 27.0307 48.1967C27.2675 46.9915 27.6299 46.045 28.263 45.0008C28.5529 44.5226 28.6206 44.3714 28.6399 44.1616C28.6689 43.8249 28.5191 43.5078 28.2533 43.3272C28.0213 43.1711 27.5526 43.1272 27.3206 43.2394Z" fill="white"/>
<path d="M73.3364 44.8337C73.0996 44.9606 72.9208 45.2436 72.8869 45.5412C72.8628 45.7559 72.8773 45.8193 73.0561 46.1463C73.5152 46.9904 73.723 47.532 73.8728 48.3176C74.1917 49.9424 73.9259 51.6356 73.1479 52.953C72.9981 53.2165 72.9449 53.358 72.9256 53.5727C72.8966 53.9338 72.9304 54.0606 73.1237 54.2753C73.5345 54.7535 74.2546 54.7437 74.5687 54.2558C75.3805 53.0213 75.8686 51.2989 75.8735 49.6838C75.8735 48.2834 75.6125 47.1221 75.0084 45.8925C74.6847 45.2289 74.4382 44.9069 74.1869 44.7947C73.9598 44.702 73.5538 44.7166 73.3364 44.8337Z" fill="white"/>
<path d="M30.8438 45.795C30.5925 45.917 30.3943 46.1658 30.1285 46.683C29.0364 48.8202 29.0267 51.5819 30.1044 53.7825C30.5345 54.6608 30.7954 54.9292 31.2255 54.9292C31.6363 54.9292 31.9359 54.7535 32.0857 54.4169C32.25 54.0607 32.2114 53.8362 31.8828 53.2019C31.4043 52.2699 31.2255 51.6259 31.1772 50.6353C31.1192 49.4497 31.3125 48.5031 31.8151 47.493C32.1679 46.7855 32.2114 46.5464 32.0326 46.1951C31.8296 45.7901 31.2594 45.5998 30.8438 45.795Z" fill="white"/>
<path d="M38.4116 49.328C38.4116 52.7729 38.4358 53.3096 38.6291 54.3928C38.9529 56.2128 39.5714 57.7938 40.5283 59.2722C41.055 60.0822 41.4706 60.6092 42.1037 61.2679C44.0754 63.3075 46.4144 64.6005 49.0916 65.1372L49.8648 65.2934V67.616C49.8648 68.8944 49.8503 70.4704 49.831 71.1194L49.802 72.3002H48.1492C46.6753 72.3002 46.4578 72.3099 46.1292 72.3929C45.2449 72.6222 44.5683 73.1833 44.2107 73.9835C44.0416 74.3641 43.9787 74.6325 43.9401 75.1546L43.9062 75.584L51.4257 75.5645L58.95 75.5449V75.1546C58.95 74.1934 58.4958 73.32 57.7177 72.7979C57.0508 72.3441 56.9783 72.3343 54.9148 72.3002L53.1268 72.2758L53.1123 68.7772L53.1026 65.2739L53.2089 65.2543C53.2718 65.2446 53.5907 65.186 53.9242 65.1275C55.8813 64.7713 57.8434 63.8588 59.4864 62.5365C60.5834 61.6533 61.5065 60.6384 62.2603 59.4918C63.3525 57.8328 64.0001 56.2128 64.3577 54.2708C64.5268 53.3535 64.5558 52.6655 64.5558 49.3036V46.0491H63.0867H61.6128L61.5934 49.694L61.5741 53.3438L61.4533 53.9537C60.9652 56.3885 59.8054 58.433 58.0367 59.9748C56.1036 61.668 53.7067 62.5219 51.1454 62.4292C49.6425 62.3755 48.444 62.073 47.1344 61.424C43.9352 59.8431 41.7993 56.7886 41.4078 53.2462C41.3788 52.9973 41.3595 51.3627 41.3595 49.4256V46.0491H39.8856H38.4116V49.328Z" fill="white"/>
<path d="M43.602 46.2636C43.5875 46.3027 43.5972 47.8884 43.6214 49.7913C43.6697 53.1922 43.6697 53.2556 43.7905 53.8069C44.1819 55.6562 45.1243 57.2127 46.5692 58.4032C48.6376 60.1109 51.4163 60.6281 53.9244 59.7743C55.1519 59.3595 56.2295 58.6618 57.1622 57.6811C58.1915 56.6028 58.8536 55.2951 59.2015 53.6654C59.2982 53.2214 59.303 53.0165 59.3224 49.6937L59.3417 46.1953H51.4839C44.6894 46.1953 43.6262 46.2051 43.602 46.2636Z" fill="white"/>
<path d="M69.77 47.1872C69.5574 47.3335 69.4076 47.558 69.3689 47.8068C69.3351 48.0362 69.3641 48.1923 69.4946 48.4607C69.8425 49.1584 69.8425 49.9147 69.5043 50.7978C69.3399 51.2174 69.3351 51.2613 69.3834 51.4858C69.4559 51.8127 69.6009 51.9932 69.8909 52.1298C70.1663 52.2567 70.292 52.2713 70.5626 52.1933C70.954 52.0859 71.2488 51.637 71.4759 50.8027C71.6258 50.2513 71.6258 49.0803 71.4711 48.5192C71.2778 47.7824 71.0168 47.3384 70.6931 47.1725C70.4224 47.031 69.9875 47.0408 69.77 47.1872Z" fill="white"/>
<path d="M34.4872 48.0931C34.1103 48.2151 33.9025 48.4737 33.7236 49.0493C33.569 49.5323 33.5352 50.5714 33.6512 51.1081C33.8976 52.2448 34.3084 52.679 34.9898 52.5326C35.6373 52.3911 35.8935 51.7569 35.5842 51.0739C35.4585 50.791 35.4392 50.7032 35.4392 50.2934C35.4392 49.9031 35.4634 49.7714 35.5794 49.4543C35.705 49.1079 35.7098 49.0591 35.6567 48.8396C35.5987 48.5761 35.3812 48.2785 35.1783 48.1761C35.0091 48.0834 34.6515 48.0443 34.4872 48.0931Z" fill="white"/>
<path d="M77.1496 62.2962C76.3233 62.4279 75.3616 62.789 74.6947 63.2135C74.2259 63.516 73.8828 63.7698 73.8828 63.8137C73.8828 63.8332 74.1969 64.1504 74.5835 64.5163L75.2843 65.1848L75.6564 64.9652C76.5311 64.448 77.1496 64.2772 78.1838 64.2772C79.073 64.2723 79.4789 64.365 80.2038 64.7212C81.7502 65.4824 82.6974 66.9267 82.8472 68.7614C82.9197 69.6006 82.6153 70.8302 82.1658 71.5133L81.9967 71.7817L82.6877 72.4551C83.0695 72.8259 83.3933 73.1284 83.4126 73.1284C83.4948 73.1284 83.9007 72.538 84.123 72.0989C84.9301 70.4984 85.0702 68.615 84.5096 66.9072C83.7461 64.5846 81.9097 62.9012 79.5611 62.3694C79.16 62.2767 77.5797 62.2328 77.1496 62.2962Z" fill="white"/>
<path d="M72.6553 65.0964C72.5877 65.1843 72.4234 65.4478 72.288 65.6722C71.2152 67.4825 71.1186 70.0246 72.0464 71.9373C72.4089 72.6888 72.7375 73.1523 73.3464 73.772C74.1776 74.6161 74.9653 75.1089 76.0526 75.4749C76.8597 75.7433 77.5072 75.836 78.4012 75.8018C79.8752 75.7481 81.1751 75.2651 82.2528 74.377L82.3784 74.2697L81.6632 73.5768L80.948 72.8888L80.6001 73.1084C79.8317 73.5817 78.9667 73.7915 77.918 73.7525C76.937 73.7134 76.2556 73.5036 75.521 73.001C74.2307 72.1179 73.443 70.6345 73.4382 69.0829C73.4382 68.1997 73.6508 67.3946 74.0761 66.6774C74.1824 66.5017 74.2694 66.3358 74.2646 66.3163C74.2597 66.2724 72.8873 64.9696 72.8196 64.9452C72.8003 64.9354 72.723 65.0037 72.6553 65.0964Z" fill="white"/>
<path d="M77.5312 65.7112C77.0528 65.8186 76.3183 66.1504 76.3569 66.2431C76.3763 66.287 79.4981 69.3511 80.3825 70.1953L81.0059 70.7905L81.117 70.5368C81.4263 69.8342 81.5278 69.1609 81.4215 68.507C81.2185 67.2287 80.4018 66.2333 79.2226 65.8283C78.9085 65.7259 78.7297 65.6966 78.2803 65.682C77.9758 65.6722 77.6376 65.6868 77.5312 65.7112Z" fill="white"/>
<path d="M75.144 67.559C74.8057 68.2323 74.7187 69.2374 74.941 69.9596C75.1295 70.589 75.3566 70.9647 75.8109 71.4233C76.299 71.9113 76.7049 72.1406 77.3863 72.3065C78.116 72.4821 78.9569 72.3797 79.6479 72.0284C79.7736 71.96 79.8751 71.8917 79.8751 71.8673C79.8751 71.7893 75.3518 67.3736 75.2745 67.3736C75.2551 67.3736 75.1972 67.4565 75.144 67.559Z" fill="white"/>
</svg>
