<svg width="105" height="105" viewBox="0 0 105 105" fill="none" xmlns="http://www.w3.org/2000/svg">
<path opacity="0.3" d="M51.8129 0.363281C23.528 0.363281 0.598145 23.2928 0.598145 51.5774C0.598145 79.8619 23.528 102.791 51.8129 102.791C80.0979 102.791 103.028 79.8619 103.028 51.5774C103.028 23.2928 80.0979 0.363281 51.8129 0.363281Z" fill="#CECEDB"/>
<path opacity="0.7" d="M53.0898 1.63672C24.8048 1.63672 1.875 24.5662 1.875 52.8508C1.875 81.1354 24.8048 104.065 53.0898 104.065C81.3748 104.065 104.305 81.1354 104.305 52.8508C104.305 24.5662 81.3748 1.63672 53.0898 1.63672Z" fill="white"/>
<path d="M51.8129 0.363281C23.5279 0.363281 0.598145 23.2927 0.598145 51.5773C0.598145 79.8619 23.5279 102.791 51.8129 102.791C80.0979 102.791 103.028 79.8619 103.028 51.5773C103.028 23.2927 80.0979 0.363281 51.8129 0.363281Z" fill="white"/>
<path opacity="0.2" d="M53.1797 24.8652C38.0559 24.8652 25.7969 37.1259 25.7969 52.2477C25.7969 67.3713 38.0577 79.6302 53.1797 79.6302C68.3036 79.6302 80.5626 67.3713 80.5626 52.2477C80.5626 37.1241 68.3036 24.8652 53.1797 24.8652Z" fill="#CECEDB"/>
<path d="M51.7447 7.08887C27.0907 7.08887 7.10693 27.0753 7.10693 51.726C7.10693 76.3795 27.0937 96.3631 51.7447 96.3631C76.3986 96.3631 96.3824 76.3795 96.3824 51.726C96.3824 27.0724 76.3986 7.08887 51.7447 7.08887Z" fill="#3F7EF8"/>
<path d="M52.2297 27.6075C50.8086 27.829 49.5555 28.3945 48.4819 29.2999C47.439 30.1786 46.5641 31.5348 46.2012 32.8299C46.0942 33.2043 45.9758 33.9226 45.9605 34.274L45.949 34.5606L47.7828 34.5797L49.6166 34.5988L49.777 34.7096C50.2126 35.0037 50.2011 35.6952 49.7579 35.9856C49.6663 36.0429 49.4791 36.0505 47.8019 36.0696L45.949 36.0887L45.9376 36.7802L45.9299 37.4717L47.7446 37.4908L49.5631 37.5137L49.7388 37.6207C49.991 37.7773 50.1056 38.0027 50.0865 38.3084C50.0674 38.6063 49.9413 38.8165 49.7045 38.9311C49.5402 39.0075 49.4905 39.0113 47.7408 39.0113H45.949L45.9528 39.7104V40.4057L47.7675 40.4248C49.3568 40.4401 49.5937 40.4516 49.693 40.5089C50.0368 40.6961 50.1858 41.124 50.0368 41.4831C49.9604 41.6665 49.8802 41.7505 49.693 41.8537C49.544 41.9301 49.4943 41.9339 47.7561 41.9454L45.9681 41.9568V42.3847C45.9681 42.6216 45.9567 42.9272 45.9414 43.0686L45.9185 43.3283H47.7102C49.3721 43.3283 49.5134 43.336 49.6548 43.4009C49.9337 43.527 50.0941 43.7906 50.0941 44.1077C50.0941 44.3216 50.0407 44.463 49.9108 44.6005C49.6815 44.845 49.7503 44.8374 47.7637 44.8565L45.949 44.8756L45.9376 48.4286C45.9261 52.142 45.9414 52.6845 46.0866 53.3951C46.5335 55.5841 48.0846 57.5516 50.1514 58.5373C51.2021 59.0378 52.0311 59.225 53.246 59.225C54.1094 59.2288 54.6939 59.1524 55.3854 58.9499C55.9011 58.7933 55.8935 58.8544 55.435 58.3883C54.6251 57.5707 53.9565 56.6195 53.4523 55.5727C53.1504 54.9423 53.0397 54.6367 52.8639 53.9681C52.6614 53.204 52.5774 52.631 52.5506 51.886C52.4857 49.9529 53.0129 48.0924 54.0979 46.4381C55.2631 44.6655 56.9403 43.2175 58.9116 42.2854C59.328 42.0905 60.18 41.7582 60.4474 41.6856L60.6002 41.6435V37.9989C60.6002 34.0677 60.5964 33.9378 60.3939 33.1088C59.8056 30.6981 57.968 28.7001 55.6108 27.9131C55.1867 27.7717 54.648 27.6533 54.1437 27.5884C53.7044 27.5349 52.6309 27.5463 52.2297 27.6075Z" fill="white"/>
<path d="M63.7136 42.526C60.0842 42.931 57.1082 44.5928 55.3813 47.1754C54.8465 47.9777 54.3651 49.1123 54.1856 49.9949C53.9067 51.3931 54.0098 52.9136 54.4721 54.1973C55.2209 56.2603 56.9095 58.0788 59.1597 59.2402L59.6755 59.5076L59.7022 59.8171C59.7328 60.1991 59.664 61.0625 59.5647 61.5668C59.4004 62.3882 58.9496 63.5305 58.6592 63.8552C58.6287 63.8896 58.6096 63.9316 58.621 63.9393C58.6554 63.9736 59.1826 63.8438 59.6449 63.6833C61.1272 63.1714 62.3535 62.2965 63.3774 61.0167L63.6983 60.6155L64.7757 60.6117C65.918 60.6117 66.3229 60.5735 67.2666 60.3863C68.2751 60.1838 69.0774 59.9088 70.1013 59.4121C71.8625 58.5563 73.1767 57.4561 74.128 56.0425C75.5492 53.9299 75.9121 51.4351 75.1366 49.1047C74.7278 47.8822 74.0974 46.8698 73.0926 45.8345C71.3964 44.0924 69.0507 42.9539 66.3688 42.5833C65.853 42.5107 64.1759 42.4763 63.7136 42.526ZM69.9981 46.6673C70.9609 46.8392 71.5645 47.5995 71.5645 48.6386C71.5607 49.7274 70.938 50.4877 69.9332 50.629C68.6572 50.8124 67.7059 49.9643 67.7059 48.6577C67.7059 47.546 68.3095 46.801 69.3257 46.652C69.6123 46.61 69.6849 46.61 69.9981 46.6673ZM67.3506 46.8125C67.4767 46.95 67.4843 47.2938 67.3621 47.4161C67.2933 47.4849 67.236 47.4925 66.7508 47.4925H66.216V48.9404V50.3922L66.1243 50.4991C66.0402 50.5947 66.0058 50.6061 65.8034 50.6061C65.6123 50.6061 65.555 50.5908 65.4748 50.5144L65.3755 50.4227V48.9557V47.4925H64.8597C64.3936 47.4925 64.3363 47.4849 64.2676 47.4161C64.1568 47.3053 64.1606 46.9385 64.2752 46.8163L64.3554 46.7284H65.8148H67.2742L67.3506 46.8125ZM63.2055 48.4591C63.4844 48.6501 63.4691 49.1506 63.1749 49.2804C63.1062 49.3148 62.3994 49.3263 60.6344 49.3263C57.9181 49.3263 58.0327 49.3377 57.9066 49.0741C57.8302 48.906 57.834 48.7571 57.9257 48.6081C58.0747 48.3674 58.0021 48.3712 60.6764 48.3827C62.9457 48.3903 63.11 48.3941 63.2055 48.4591ZM65.62 51.9776C65.7193 52.0197 65.8263 52.1496 66.1052 52.5698C66.3038 52.864 66.4834 53.1008 66.5025 53.0932C66.5254 53.0894 66.6515 52.9213 66.789 52.7226C66.9265 52.5278 67.1252 52.2756 67.2322 52.1648C67.4156 51.97 67.4308 51.9624 67.6257 51.9624C67.8664 51.9624 67.9542 52.0044 68.0306 52.1534C68.1032 52.2985 68.1109 52.2833 67.6104 52.9939C67.3965 53.2995 67.1825 53.6166 67.1328 53.7006L67.0488 53.8534L67.5875 54.6519C67.9428 55.1791 68.1261 55.4886 68.1261 55.5535C68.1261 55.7636 67.7861 55.9432 67.5378 55.8591C67.3659 55.8057 67.2742 55.6949 66.8654 55.0645C66.6706 54.7665 66.4987 54.522 66.4872 54.522C66.4757 54.5258 66.2771 54.8009 66.0479 55.1371C65.5971 55.798 65.5168 55.8706 65.2341 55.8668C65.0278 55.863 64.9323 55.8095 64.8597 55.6681C64.8062 55.565 64.8062 55.5421 64.8635 55.4274C64.9017 55.3625 64.9934 55.2173 65.0698 55.1142C65.1462 55.0072 65.3755 54.6863 65.578 54.3959C65.9103 53.926 65.9447 53.8611 65.9065 53.7847C65.8836 53.7388 65.6582 53.3912 65.4099 53.0091C65.1577 52.6309 64.9552 52.2909 64.9552 52.2527C64.9552 51.9967 65.3143 51.8477 65.62 51.9776ZM60.898 52.0961C61.0202 52.2412 61.0164 52.5431 60.8865 52.6691C60.7986 52.7608 60.7757 52.7646 60.2791 52.7646H59.7633L59.7519 54.2202L59.7404 55.6758L59.6334 55.7675C59.5494 55.84 59.4844 55.8591 59.3202 55.8591C59.1559 55.8591 59.0909 55.84 59.0069 55.7675L58.8999 55.6758L58.8885 54.2202L58.877 52.7646H58.3803C57.9028 52.7646 57.8799 52.7608 57.792 52.6691C57.6583 52.5392 57.6621 52.1916 57.7996 52.0388C57.8264 52.0082 59.5914 51.9738 60.2371 51.9853C60.7948 52.0006 60.8139 52.0006 60.898 52.0961ZM64.2485 52.0579C64.3745 52.1801 64.3822 52.4781 64.2637 52.6271L64.1873 52.7264H63.2895H62.3956V53.0855V53.4447L63.1023 53.4599C63.7747 53.4714 63.8091 53.4752 63.8932 53.5593C64.0192 53.6815 64.0192 54.0254 63.8932 54.1476C63.8091 54.2317 63.7862 54.2355 63.11 54.2355H62.4147L62.4032 54.6634L62.3918 55.0951H63.2934H64.195L64.2867 55.1906C64.4166 55.3167 64.4242 55.6376 64.2981 55.7713L64.2179 55.8591H62.961H61.7041L61.6124 55.7636L61.5169 55.6719V53.9184C61.5169 52.077 61.5131 52.0999 61.6888 52.0082C61.7385 51.9776 62.1702 51.9662 62.961 51.9624H64.1568L64.2485 52.0579ZM71.6294 52.0426C71.7058 52.1113 71.767 52.3597 71.7402 52.5125C71.6982 52.7341 71.618 52.7646 71.0411 52.7646H70.5368L70.5254 54.2126C70.5139 55.5726 70.5101 55.6643 70.4413 55.7407C70.2808 55.9165 69.9179 55.9241 69.7498 55.7522L69.6543 55.6567V54.2126V52.7646H69.1424C68.5196 52.7646 68.4662 52.7379 68.4394 52.417C68.428 52.2489 68.4394 52.1916 68.5044 52.1075C68.6113 51.9738 68.6763 51.97 70.2999 51.9891C71.1595 51.9967 71.5951 52.0158 71.6294 52.0426Z" fill="white"/>
<path d="M69.3834 47.4297C69.1198 47.4985 68.9594 47.6093 68.8257 47.8117C68.6576 48.0601 68.6079 48.2511 68.6079 48.656C68.6079 49.061 68.6538 49.2482 68.8257 49.5042C68.9135 49.6341 69.0091 49.7181 69.158 49.7945C69.3452 49.8938 69.3987 49.9015 69.6585 49.89C70.0062 49.8709 70.243 49.7525 70.4226 49.5042C70.7626 49.0381 70.7397 48.1135 70.3767 47.7009C70.1704 47.4679 69.7082 47.338 69.3834 47.4297Z" fill="white"/>
<path d="M42.3577 49.5677C42.1094 49.6518 41.9795 49.732 41.8305 49.8963C41.5172 50.2439 41.479 50.4502 41.5096 51.7453C41.5402 53.0061 41.6242 53.6517 41.9031 54.7673C42.0941 55.5275 42.331 56.1617 42.7207 56.9487C43.5459 58.622 44.7416 60.0623 46.2545 61.2084C47.8362 62.4004 49.6699 63.1989 51.4999 63.4854L51.9278 63.5541V67.1377V70.7212H53.3031H54.6785L54.6861 67.1415L54.6976 63.5656L55.2171 63.4777C55.4998 63.4319 55.8781 63.3555 56.0576 63.3096C56.4779 63.2027 57.433 62.8932 57.4979 62.8436C57.5972 62.7595 57.8608 62.11 57.9869 61.621C58.0633 61.3307 58.2047 60.4673 58.1779 60.4635C58.1779 60.4596 58.0748 60.3947 57.9525 60.3183C57.7501 60.1846 57.7271 60.1807 57.6469 60.2304C57.4941 60.3336 56.6536 60.6812 56.2066 60.8264C55.752 60.9792 55.1025 61.1244 54.5065 61.2123C53.9717 61.2925 52.5505 61.281 51.9851 61.1931C50.7129 60.9945 49.4942 60.5513 48.413 59.8904C47.5878 59.3861 46.6366 58.5456 45.9794 57.7281C45.2268 56.7959 44.5583 55.497 44.2297 54.3317C43.9699 53.4072 43.9012 52.88 43.8706 51.5047C43.8477 50.3433 43.8439 50.3394 43.7445 50.1484C43.6146 49.9039 43.4389 49.7358 43.1982 49.6288C42.9652 49.5257 42.5717 49.4989 42.3577 49.5677Z" fill="white"/>
<path d="M48.1839 72.3064C47.2059 72.5012 46.331 73.0361 45.7733 73.7696C45.418 74.2395 45.1047 74.9692 45.0818 75.3818L45.0703 75.5537H51.1638C54.5143 75.5537 58.2239 75.5499 59.4082 75.5384L61.5591 75.5231L61.5362 75.3665C61.4941 75.1182 61.326 74.6177 61.2038 74.3694C60.6995 73.3685 59.8399 72.6884 58.6556 72.3522C58.3653 72.272 58.3461 72.272 53.3988 72.2644C49.4332 72.2567 48.3826 72.2644 48.1839 72.3064Z" fill="white"/>
<path fill-rule="evenodd" clip-rule="evenodd" d="M29.2051 44.7378C28.5637 44.7378 28.0449 44.2183 28.0449 43.5765V39.3388C28.0449 38.6966 28.5637 38.1772 29.2051 38.1772C29.8464 38.1772 30.3652 38.6966 30.3652 39.3388V43.5765C30.3635 44.2169 29.8447 44.7378 29.2051 44.7378ZM31.9745 47.0116C31.3331 47.0116 30.8143 46.4921 30.8143 45.8503L30.8143 37.0632C30.8143 36.4213 31.3331 35.9015 31.9745 35.9015C32.6158 35.9015 33.1346 36.4213 33.1346 37.0632L33.1346 45.8503C33.1363 46.4907 32.6158 47.0116 31.9745 47.0116ZM40.9341 44.7378C40.2945 44.7378 39.774 44.2169 39.774 43.5765V39.3388C39.774 38.6985 40.2928 38.1772 40.9341 38.1772C41.5754 38.1772 42.0943 38.6966 42.0943 39.3388V43.5765C42.0943 44.2169 41.5738 44.7378 40.9341 44.7378ZM38.1631 47.0116C37.5217 47.0116 37.0029 46.4921 37.0029 45.8503V37.0632C37.0029 36.4213 37.5217 35.9015 38.1631 35.9015C38.8044 35.9015 39.3232 36.4228 39.3232 37.0632V45.8503C39.3232 46.4907 38.8027 47.0116 38.1631 47.0116ZM35.0704 50.856C34.4291 50.856 33.9103 50.3365 33.9103 49.6943L33.9103 33.2191C33.9103 32.5769 34.4291 32.0575 35.0704 32.0575C35.7118 32.0575 36.2289 32.5788 36.2289 33.2191L36.2289 49.6958C36.2289 50.3365 35.71 50.856 35.0704 50.856Z" fill="white"/>
</svg>
