<svg width="106" height="106" viewBox="0 0 106 106" fill="none" xmlns="http://www.w3.org/2000/svg">
<path opacity="0.3" d="M52.1577 0.960938C23.8727 0.960938 0.942871 23.8904 0.942871 52.175C0.942871 80.4596 23.8727 103.389 52.1577 103.389C80.4426 103.389 103.372 80.4596 103.372 52.175C103.372 23.8904 80.4426 0.960938 52.1577 0.960938Z" fill="#CECEDB"/>
<path opacity="0.7" d="M54.0849 2.88428C25.7999 2.88428 2.87012 25.8138 2.87012 54.0984C2.87012 82.3829 25.7999 105.312 54.0849 105.312C82.3699 105.312 105.3 82.3829 105.3 54.0984C105.3 25.8138 82.3699 2.88428 54.0849 2.88428Z" fill="white"/>
<path d="M52.1576 0.960449C23.8726 0.960449 0.942871 23.8899 0.942871 52.1745C0.942871 80.4591 23.8726 103.389 52.1576 103.389C80.4426 103.389 103.372 80.4591 103.372 52.1745C103.372 23.8899 80.4426 0.960449 52.1576 0.960449Z" fill="white"/>
<path opacity="0.2" d="M54.1748 26.1128C39.051 26.1128 26.792 38.3734 26.792 53.4953C26.792 68.6189 39.0528 80.8777 54.1748 80.8777C69.2987 80.8777 81.5577 68.6189 81.5577 53.4953C81.5577 38.3716 69.2987 26.1128 54.1748 26.1128Z" fill="#CECEDB"/>
<path d="M52.7398 8.33643C28.0858 8.33643 8.10205 28.3229 8.10205 52.9735C8.10205 77.6271 28.0888 97.6106 52.7398 97.6106C77.3937 97.6106 97.3775 77.6271 97.3775 52.9735C97.3775 28.3199 77.3937 8.33643 52.7398 8.33643Z" fill="#3F7EF8"/>
<path d="M39.7363 30.337C38.9129 30.4108 38.3166 30.638 37.6919 31.1036C37.0729 31.575 36.63 32.211 36.346 33.0572L36.187 33.5399V42.3365V63.0587L36.6697 63.2121C36.9366 63.2916 37.3625 63.4676 37.6238 63.5925L38.0894 63.8311V45.3747V38.8496H52.758H67.4209L67.4039 42.115L67.3868 61.1393H68.3749H69.3574L69.3404 39.5992C69.3176 33.1594 69.329 33.3525 68.9258 32.5177C68.4147 31.4671 67.5629 30.7459 66.4441 30.4278L66.0012 30.3029H53.0817C45.9774 30.2972 39.9692 30.3143 39.7363 30.337ZM43.4844 34.8744V37.0324H41.2867H39.0832L41.2412 34.8744C42.4281 33.6875 43.4162 32.7164 43.439 32.7164C43.4673 32.7164 43.4844 33.6875 43.4844 34.8744Z" fill="white"/>
<path d="M41.2185 41.6101C41.0425 41.7009 40.8892 41.9565 40.8892 42.1552C40.8892 42.3426 41.0936 42.6493 41.264 42.7118C41.3548 42.7458 43.8024 42.7686 47.8572 42.7686H65.3765L65.5696 42.5755C65.8308 42.3142 65.8422 42.0019 65.598 41.735L65.4333 41.5476L47.8628 41.5362C42.201 41.5249 41.3548 41.5362 41.2185 41.6101Z" fill="white"/>
<path d="M41.2185 44.1374C41.0425 44.2283 40.8892 44.4838 40.8892 44.6826C40.8892 44.87 41.0936 45.1766 41.264 45.2391C41.3548 45.2732 43.8024 45.2959 47.8572 45.2959H65.3765L65.5696 45.1028C65.8308 44.8416 65.8422 44.5292 65.598 44.2623L65.4333 44.0749L47.8628 44.0636C42.201 44.0522 41.3548 44.0636 41.2185 44.1374Z" fill="white"/>
<path d="M67.4437 52.4049L67.4778 54.2676H68.4148H69.3518L69.3632 52.4049L69.3689 50.5479H68.3921H67.4097L67.4437 52.4049Z" fill="white"/>
<path d="M67.4155 62.0594C67.4268 63.4905 67.4439 75.0072 67.4609 75.1606L67.495 75.1776L67.6767 75.189C68.0288 74.6949 68.7784 74.0078 69.3065 73.6897C69.3974 73.6386 69.3974 63.2406 69.3633 61.4347L69.3236 59.4641H68.3638H67.3984L67.4155 62.0594Z" fill="white"/>
<path d="M37.9646 61.9461C37.7999 62.0711 37.2888 62.2925 36.7436 62.4743L36.2609 62.6389L36.2269 63.7066C36.1701 65.4102 36.1758 71.0267 36.2325 71.6229C36.4029 73.372 37.4251 74.6384 39.0834 75.1495L39.4979 75.2801L52.5026 75.2972C59.658 75.3085 69.0224 75.2972 69.1587 75.2801H69.3547V74.2977L69.3233 73.3411L52.9455 73.3664C39.9636 73.3777 39.8954 73.3777 39.5547 73.2641C39.1061 73.1108 38.7199 72.8212 38.4757 72.4521C38.0952 71.8728 38.1009 72.0091 38.1123 66.688C38.1179 64.0587 38.1123 61.895 38.1009 61.8837C38.0895 61.8666 38.0271 61.895 37.9646 61.9461Z" fill="white"/>
<path d="M47.984 47.4759C47.218 47.7381 46.7347 48.2625 46.5497 49.0336C46.4366 49.5169 46.4366 56.452 46.5497 56.9352C46.7399 57.7321 47.2951 58.3027 48.0919 58.5135C48.2976 58.57 49.2487 58.5854 52.7959 58.5854C56.3431 58.5854 57.2942 58.57 57.4998 58.5135C58.2915 58.3027 58.8519 57.7269 59.0421 56.9352C59.1552 56.4417 59.1552 49.522 59.0421 49.0285C58.857 48.2471 58.3224 47.6918 57.5307 47.4502C57.3353 47.3937 56.5076 47.3782 52.7702 47.3834C48.6215 47.3834 48.2256 47.3937 47.984 47.4759ZM52.3126 50.4011C52.909 50.7044 53.3408 51.2802 53.4591 51.928C53.4899 52.0976 53.5156 52.8585 53.5156 53.6964C53.5156 55.0485 53.5105 55.177 53.4128 55.3724C53.2894 55.6294 53.0786 55.7579 52.7959 55.7579C52.3178 55.7579 52.0762 55.4238 52.0762 54.7657V54.3648L51.3976 54.3802L50.7138 54.3956L50.6881 54.8686C50.6675 55.2387 50.6418 55.3724 50.5544 55.4855C50.4105 55.6757 50.246 55.7579 49.9941 55.7579C49.7268 55.7579 49.5622 55.6705 49.4183 55.4546C49.3001 55.2798 49.3001 55.2644 49.3001 53.6245C49.3001 51.8354 49.3206 51.6503 49.5931 51.2134C49.8707 50.7661 50.21 50.4834 50.6984 50.3034C50.9195 50.2212 51.0737 50.2058 51.485 50.2212C51.9425 50.2366 52.035 50.2572 52.3126 50.4011ZM55.9318 50.2726C55.9987 50.3086 56.1118 50.4165 56.1735 50.5091L56.2917 50.6839V52.9818V55.2798L56.1735 55.4546C56.0295 55.6705 55.865 55.7579 55.5977 55.7579C55.3304 55.7579 55.1659 55.6705 55.0219 55.4546L54.9037 55.2798V52.9818V50.6839L55.0219 50.5091C55.1659 50.2931 55.3304 50.2058 55.5977 50.2058C55.7108 50.2058 55.8599 50.2366 55.9318 50.2726Z" fill="white"/>
<path d="M51.0278 51.6967C50.7759 51.8561 50.6936 52.0771 50.6885 52.5552V52.9819H51.3825H52.0765V52.5295C52.0765 52.1748 52.056 52.0463 51.9737 51.9178C51.7835 51.6042 51.326 51.4962 51.0278 51.6967Z" fill="white"/>
<path d="M44.735 51.3415C43.5423 52.3028 42.8277 54.0764 43.018 55.593C43.1156 56.3436 43.4035 57.1918 43.7068 57.6237L43.8199 57.7779L43.6914 57.8859C43.6194 57.9476 43.4704 58.0709 43.3573 58.1635C43.0334 58.4411 42.581 58.986 42.3239 59.423C41.2443 61.2686 41.3729 63.5409 42.6632 65.2528C43.1311 65.8697 43.6143 66.2913 44.2929 66.6614C44.6528 66.8619 44.6785 66.8825 44.8995 67.304C45.3108 68.0752 45.7889 68.6098 46.4675 69.0468C48.1229 70.1161 50.2307 70.0184 51.7832 68.7898L52.0763 68.5584V64.2657V59.9731H50.1381C48.0046 59.9731 47.7836 59.9474 47.1718 59.6698C46.8479 59.5258 46.4984 59.2996 46.2156 59.0631C46.0203 58.8986 45.5576 58.256 45.4239 57.9681C45.1103 57.2844 45.1154 57.3306 45.0846 54.0713L45.0589 51.0793L44.735 51.3415Z" fill="white"/>
<path d="M60.497 54.0712C60.4816 56.7496 60.4713 57.0992 60.389 57.3768C60.0909 58.3845 59.4482 59.1607 58.528 59.6183C57.8597 59.9473 57.6592 59.973 55.4589 59.973H53.5156V64.2657V68.5583L53.8138 68.7897C55.0887 69.7973 56.8264 70.0646 58.2915 69.4786C59.3506 69.057 60.1423 68.3424 60.6923 67.3039C60.898 66.9184 60.9494 66.8567 61.191 66.7333C63.2268 65.6691 64.363 63.294 63.8951 61.0783C63.633 59.8393 63.0417 58.8574 62.0547 58.0092L61.7771 57.7727L61.8902 57.6133C62.1884 57.1969 62.4865 56.3024 62.5688 55.5775C62.6716 54.6933 62.4917 53.7062 62.0701 52.8734C61.7617 52.2513 61.1653 51.5419 60.6512 51.1769L60.5124 51.0741L60.497 54.0712Z" fill="white"/>
</svg>
