<svg width="33" height="33" viewBox="0 0 33 33" fill="none" xmlns="http://www.w3.org/2000/svg">
<path d="M14.5151 7.5918C14.5151 6.76055 15.1839 6.0918 16.0151 6.0918C16.8464 6.0918 17.5151 6.76055 17.5151 7.5918V15.2918L22.8464 18.8418C23.5339 19.3043 23.7214 20.2355 23.2089 20.923C22.8026 21.6105 21.8714 21.798 21.1839 21.2855L15.1839 17.2855C14.7651 17.0605 14.5151 16.5918 14.5151 16.0355V7.5918ZM16.0151 0.0917969C24.8526 0.0917969 32.0151 7.2543 32.0151 16.0918C32.0151 24.9293 24.8526 32.0918 16.0151 32.0918C7.17764 32.0918 0.0151367 24.9293 0.0151367 16.0918C0.0151367 7.2543 7.17764 0.0917969 16.0151 0.0917969ZM3.01514 16.0918C3.01514 23.273 8.83389 29.0918 16.0151 29.0918C23.1964 29.0918 29.0151 23.273 29.0151 16.0918C29.0151 8.91055 23.1964 3.0918 16.0151 3.0918C8.83389 3.0918 3.01514 8.91055 3.01514 16.0918Z" fill="#3F7EF8"/>
</svg>
