<svg width="137" height="136" viewBox="0 0 137 136" fill="none" xmlns="http://www.w3.org/2000/svg">
<circle cx="68.4209" cy="68.0059" r="68" fill="url(#paint0_linear_1166_6855)" fill-opacity="0.1"/>
<circle cx="67.9209" cy="68.5059" r="51.5" fill="url(#paint1_linear_1166_6855)" stroke="#2B74FF" stroke-width="2"/>
<path d="M67.4209 83.0059V89.0059" stroke="white" stroke-width="4" stroke-linecap="round" stroke-linejoin="round"/>
<path d="M81.4209 65.0059V69.0059C81.4209 72.7189 79.9459 76.2798 77.3204 78.9054C74.6949 81.5309 71.1339 83.0059 67.4209 83.0059C63.7079 83.0059 60.1469 81.5309 57.5214 78.9054C54.8959 76.2798 53.4209 72.7189 53.4209 69.0059V65.0059" stroke="white" stroke-width="4" stroke-linecap="round" stroke-linejoin="round"/>
<path d="M73.4209 55.0059C73.4209 51.6922 70.7346 49.0059 67.4209 49.0059C64.1072 49.0059 61.4209 51.6922 61.4209 55.0059V69.0059C61.4209 72.3196 64.1072 75.0059 67.4209 75.0059C70.7346 75.0059 73.4209 72.3196 73.4209 69.0059V55.0059Z" stroke="white" stroke-width="4" stroke-linecap="round" stroke-linejoin="round"/>
<defs>
<linearGradient id="paint0_linear_1166_6855" x1="68.4209" y1="0.00585937" x2="68.4209" y2="136.006" gradientUnits="userSpaceOnUse">
<stop stop-color="#3F7EF8"/>
<stop offset="1" stop-color="#5B9AFF"/>
</linearGradient>
<linearGradient id="paint1_linear_1166_6855" x1="67.9209" y1="16.0059" x2="67.9209" y2="121.006" gradientUnits="userSpaceOnUse">
<stop stop-color="#3F7EF8"/>
<stop offset="1" stop-color="#5B9AFF"/>
</linearGradient>
</defs>
</svg>
