<svg width="18" height="24" viewBox="0 0 18 24" fill="none" xmlns="http://www.w3.org/2000/svg">
<path d="M17.8842 6.55C17.8279 6.4125 17.7592 6.28125 17.6654 6.16875L12.4279 0.4375C12.3092 0.30625 12.1654 0.2125 12.0092 0.13125C11.8279 0.0374999 11.6279 0 11.4154 0H1.42168C0.64668 0 0.00292969 0.6625 0.00292969 1.49375V22.4438C0.00292969 23.2812 0.64668 24 1.42168 24H16.6154C17.3904 24 18.0029 23.2812 18.0029 22.4438V7.1875C18.0029 6.9625 17.9717 6.74375 17.8842 6.55ZM3.00293 7.1375C3.00293 7.04375 3.11543 7.00625 3.21543 7.00625H7.64043C7.74043 7.00625 7.81543 7.04375 7.81543 7.1375V7.8125C7.81543 7.9 7.74668 8.00625 7.64043 8.00625H3.21543C3.11543 8.00625 3.00293 7.9 3.00293 7.8125V7.1375ZM3.00293 15.1375C3.00293 15.0438 3.11543 15.0063 3.21543 15.0063H10.8529C10.9529 15.0063 11.0029 15.0438 11.0029 15.1375V15.8125C11.0029 15.9 10.9592 16.0063 10.8529 16.0063H3.21543C3.11543 16.0063 3.00293 15.9 3.00293 15.8125V15.1375ZM13.0029 19.8125C13.0029 19.9 12.9592 20.0063 12.8529 20.0063H3.21543C3.11543 20.0063 3.00293 19.9 3.00293 19.8125V19.1375C3.00293 19.0438 3.11543 19.0063 3.21543 19.0063H12.8529C12.9529 19.0063 13.0029 19.0438 13.0029 19.1375V19.8125ZM15.0029 11.8125C15.0029 11.9 14.9592 12.0063 14.8529 12.0063H3.21543C3.11543 12.0063 3.00293 11.9 3.00293 11.8125V11.1375C3.00293 11.0438 3.11543 11.0063 3.21543 11.0063H14.8529C14.9529 11.0063 15.0029 11.0438 15.0029 11.1375V11.8125ZM12.0717 7.06875C11.7217 7.06875 11.3779 6.74375 11.3779 6.3625V2.2375L15.8279 7.06875H12.0717Z" fill="#3F7EF8"/>
</svg>
